{
.appVersion = "3115";
.formatVersion = 3;
axes = (
{
name = Weight;
tag = wght;
}
);
classes = (
{
automatic = 1;
code = "A Aacute Abreve Acircumflex Adieresis Agrave Amacron Aogonek Aring Atilde AE B C Cacute Ccaron Ccedilla Cdotaccent D Eth Dcaron Dcroat E Eacute Ecaron Ecircumflex Edieresis Edotaccent Egrave Emacron Eogonek F G Gbreve Gcommaaccent Gdotaccent H Hbar I IJ Iacute Icircumflex Idieresis Idotaccent Igrave Imacron Iogonek J K Kcommaaccent L Lacute Lcaron Lcommaaccent Ldot Lslash M N Nacute Ncaron Ncommaaccent Eng Ntilde O Oacute Ocircumflex Odieresis Ograve Ohungarumlaut Omacron Oslash Otilde OE P Thorn Q R Racute Rcaron Rcommaaccent S Sacute Scaron Scedilla Scommaaccent T Tbar Tcaron Tcedilla Tcommaaccent U Uacute Ucircumflex Udieresis Ugrave Uhungarumlaut Umacron Uogonek Uring V W Wacute Wcircumflex Wdieresis Wgrave X Y Yacute Ycircumflex Ydieresis Ygrave Z Zacute Zcaron Zdotaccent Delta Omega";
name = Uppercase;
}
);
customParameters = (
{
name = "Use Typo Metrics";
value = 1;
},
{
name = "Use Line Breaks";
value = 1;
},
{
name = "Write lastChange";
value = 0;
},
{
name = fsType;
value = (
);
},
{
name = "Axis Mappings";
value = {
wght = {
400 = 395;
500 = 435;
600 = 477;
700 = 525;
800 = 800;
};
};
}
);
date = "2020-07-30 14:47:41 +0000";
familyName = Syne;
featurePrefixes = (
{
automatic = 1;
code = "languagesystem DFLT dflt;

languagesystem latn dflt;
languagesystem latn AZE;
languagesystem latn CRT;
languagesystem latn KAZ;
languagesystem latn TAT;
languagesystem latn TRK;
languagesystem latn ROM;
languagesystem latn MOL;
languagesystem latn CAT;
";
name = Languagesystems;
}
);
features = (
{
automatic = 1;
code = "feature locl;
feature sups;
feature numr;
feature dnom;
feature frac;
feature ordn;
feature lnum;
feature pnum;
feature tnum;
feature onum;
feature case;
feature ss01;
feature ss02;
feature ss03;
feature ss04;
feature ss05;
";
tag = aalt;
},
{
automatic = 1;
code = "lookup ccmp_Other_1 {

glyphs = (
{
color = 6;
glyphname = A;
kernLeft = A;
kernRight = A;
layers = (
{
anchors = (
{
name = bottom;
pos = (310,0);
},
{
name = ogonek;
pos = (566,10);
},
{
name = top;
pos = (310,650);
}
);
layerId = "BC735296-CD3A-4FA4-9AA9-EE2D747BC69E";
shapes = (
{
closed = 1;
nodes = (
(464,170,l),
(464,245,l),
(152,245,l),
(152,170,l)
);
},
{
closed = 1;
nodes = (
(104,0,l),
(321,588,l),
(297,588,l),
(514,0,l),
(600,0,l),
(351,650,l),
(267,650,l),
(20,0,l)
);
}
);
width = 620;
},
{
anchors = (
{
name = bottom;
pos = (580,0);
},
{
name = ogonek;
pos = (1017,0);
},
{
name = top;
pos = (578,600);
}
);
layerId = "38E161BF-7670-40F4-B2BA-C78FC8454263";
shapes = (
{
closed = 1;
nodes = (
(918,97,l),
(918,247,l),
(234,247,l),
(234,97,l)
);
},
{
closed = 1;
nodes = (
(285,0,l),
(653,573,l),
(504,573,l),
(875,0,l),
(1150,0,l),
(717,640,l),
(439,640,l),
(10,0,l)
);
}
);
width = 1160;
},
{
anchors = (
{
name = bottom;
pos = (394,0);
},
{
name = ogonek;
pos = (707,7);
},
{
name = top;
pos = (394,634);
}
);
layerId = "3FBA4204-9B78-4099-9F7B-502DDE19710D";
shapes = (
{
closed = 1;
nodes = (
(606,141,l),
(606,252,l),
(178,252,l),
(178,141,l)
);
},
{
closed = 1;
nodes = (
(161,0,l),
(425,583,l),
(361,583,l),
(627,0,l),
(772,0,l),
(465,647,l),
(321,647,l),
(17,0,l)
);
}
);
width = 789;
}
);
unicode = 65;
},
{
color = 3;
glyphname = Aogonek;
kernLeft = A;
kernRight = A;
layers = (
{
anchors = (
{
name = _ogonek;
pos = (566,10);
}
);
layerId = "BC735296-CD3A-4FA4-9AA9-EE2D747BC69E";
shapes = (
{
closed = 1;
nodes = (
(597,-150,l),
(532,-150,o),
(497,-120,o),
(497,-75,cs),
(497,-30,o),
(534,0,o),
(576,10,c),
(576,32,l),
(497,22,o),
(432,-11,o),
(432,-85,cs),
(432,-159,o),
(498,-205,o),
(597,-205,c)
);
},
{
ref = A;
}
);
width = 620;
},
{
anchors = (
{
name = _ogonek;
pos = (1016.996,0);
}
);
layerId = "38E161BF-7670-40F4-B2BA-C78FC8454263";
shapes = (
{
closed = 1;
nodes = (
(1089,-142,l),
(999,-142,o),
(920,-120,o),
(920,-65,cs),
(920,-21,o),
(964,-10,o),
(1048,0,c),
(1048,22,l),
(870,12,o),
(740,-11,o),
(740,-105,cs),
(740,-189,o),
(871,-240,o),
(1089,-240,c)
);
},
{
ref = A;
}
);
width = 1160;
},
{
anchors = (
{
name = _ogonek;
pos = (707,7);
}
);
layerId = "3FBA4204-9B78-4099-9F7B-502DDE19710D";
shapes = (
{
closed = 1;
nodes = (
(750,-147,l),
(677,-147,o),
(629,-120,o),
(629,-72,cs),
(629,-27,o),
(668,-3,o),
(723,7,c),
(723,29,l),
(613,19,o),
(528,-11,o),
(528,-91,cs),
(528,-168,o),
(614,-216,o),
(750,-216,c)
);
},
{
ref = A;
}
);
width = 789;
}
);
metricLeft = A;
metricRight = A;
unicode = 260;
},
{
color = 6;
glyphname = AE;
kernLeft = A;
layers = (
{
anchors = (
{
name = bottom;
pos = (455,0);
},
{
name = ogonek;
pos = (811,0);
},
{
name = top;
pos = (455,680);
},
{
name = topleft;
pos = (340,680);
}
);
layerId = "BC735296-CD3A-4FA4-9AA9-EE2D747BC69E";
shapes = (
{
closed = 1;
nodes = (
(791,286,l),
(791,361,l),
(480,361,l),
(480,575,l),
(860,575,l),
(860,650,l),
(376,650,l),
(20,0,l),
(104,0,l),
(417,582,l),
(400,586,l),
(400,0,l),
(861,0,l),
(861,75,l),
(480,75,l),
(480,286,l)
);
},
{
closed = 1;
nodes = (
(434,176,l),
(434,251,l),
(162,251,l),
(162,176,l)
);
}
);
width = 921;
},
{
anchors = (
{
name = bottom;
pos = (981,0);
},
{
name = ogonek;
pos = (1521,0);
},
{
name = top;
pos = (981,680);
},
{
name = topleft;
pos = (579,680);
}
);
background = {
anchors = (
{
name = bottom;
pos = (1116.26,0);
},
{
name = ogonek;
pos = (1628.26,10);
},
{
name = top;
pos = (1116.26,650);
}
);
shapes = (
{
pos = (37.96,0);
ref = A;
}
);
};
layerId = "38E161BF-7670-40F4-B2BA-C78FC8454263";
shapes = (
{
closed = 1;
nodes = (
(1481,270,l),
(1481,370,l),
(861,370,l),
(861,450,l),
(1619,450,l),
(1619,640,l),
(454,640,l),
(10,0,l),
(282,0,l),
(671,580,l),
(611,598,l),
(611,0,l),
(1621,0,l),
(1621,190,l),
(861,190,l),
(861,270,l)
);
},
{
closed = 1;
nodes = (
(827.997,137,l),
(827.997,287,l),
(233.997,287,l),
(233.997,137,l)
);
}
);
width = 1681;
},
{
anchors = (
{
name = bottom;
pos = (619,0);
},
{
name = ogonek;
pos = (1033,0);
},
{
name = top;
pos = (619,680);
},
{
name = topleft;
pos = (415,680);
}
);
layerId = "3FBA4204-9B78-4099-9F7B-502DDE19710D";
shapes = (
{
closed = 1;
nodes = (
(1007,270,l),
(1007,375,l),
(599,375,l),
(599,536,l),
(1097,536,l),
(1097,647,l),
(400,647,l),
(17,0,l),
(160,0,l),
(495,579,l),
(466,586,l),
(466,0,l),
(1098,0,l),
(1098,111,l),
(599,111,l),
(599,270,l)
);
},
{
closed = 1;
nodes = (
(557,164,l),
(557,262,l),
(184,262,l),
(184,164,l)
);
}
);
width = 1158;
}
);
metricLeft = A;
metricRight = E;
unicode = 198;
},
{
color = 6;
glyphname = B;
layers = (
{
anchors = (
{
name = bottom;
pos = (312,0);
},
{
name = top;
pos = (312,680);
}
);
background = {
shapes = (
{
pos = (-0.208,0);
ref = R;
}
);
};
layerId = "BC735296-CD3A-4FA4-9AA9-EE2D747BC69E";
shapes = (
{
closed = 1;
nodes = (
(366,0,l),
(486,6,o),
(571,63,o),
(571,181,cs),
(571,297,o),
(485,325,o),
(387,330,c),
(385,324,l),
(484,334,o),
(550,373,o),
(550,476,cs),
(550,585,o),
(470,650,o),
(336,650,cs),
(80,650,l),
(80,0,l)
);
},
{
closed = 1;
nodes = (
(160,284,l),
(326,284,ls),
(406,284,o),
(491,268,o),
(491,181,cs),
(491,107,o),
(436,75,o),
(346,75,cs),
(160,75,l)
);
},
{
closed = 1;
nodes = (
(160,575,l),
(336,575,ls),
(413,575,o),
(471,545,o),
(471,473,cs),
(471,399,o),
(416,359,o),
(326,359,cs),
(160,359,l)
);
}
);
width = 616;
},
{
anchors = (
{
name = bottom;
pos = (522,0);
},
{
name = top;
pos = (522,680);
}
);
background = {
shapes = (
{
ref = E;
}
);
};
layerId = "38E161BF-7670-40F4-B2BA-C78FC8454263";
shapes = (
{
closed = 1;
nodes = (
(750,0,ls),
(970,0,o),
(1110,57,o),
(1110,181,cs),
(1110,317,o),
(956,325,o),
(757,326,c),
(749,318,l),
(954,323,o),
(1078,349,o),
(1078,470,cs),
(1078,595,o),
(958,640,o),
(700,640,cs),
(70,640,l),
(70,0,l)
);
},
{
closed = 1;
nodes = (
(320,272,l),
(750,272,ls),
(820,272,o),
(850,260,o),
(850,230,cs),
(850,200,o),
(820,188,o),
(750,188,cs),
(320,188,l)
);
},
{
closed = 1;
nodes = (
(320,452,l),
(708,452,ls),
(778,452,o),
(808,440,o),
(808,410,cs),
(808,380,o),
(778,368,o),
(708,368,cs),
(320,368,l)
);
}
);
width = 1140;
},
{
anchors = (
{
name = bottom;
pos = (378,0);
},
{
name = top;
pos = (378,680);
}
);
layerId = "3FBA4204-9B78-4099-9F7B-502DDE19710D";
shapes = (
{
closed = 1;
nodes = (
(486,0,ls),
(636,3,o),
(739,61,o),
(739,181,cs),
(739,304,o),
(630,326,o),
(499,329,c),
(495,322,l),
(629,330,o),
(715,364,o),
(715,474,cs),
(715,588,o),
(623,647,o),
(450,647,cs),
(77,647,l),
(77,0,l)
);
},
{
closed = 1;
nodes = (
(210,266,l),
(459,266,ls),
(535,266,o),
(603,262,o),
(603,196,cs),
(603,136,o),
(556,110,o),
(472,110,cs),
(210,110,l)
);
},
{
closed = 1;
nodes = (
(210,537,l),
(452,537,ls),
(527,537,o),
(576,515,o),
(576,455,cs),
(576,395,o),
(529,373,o),
(445,373,cs),
(210,373,l)
);
}
);
width = 780;
}
);
metricLeft = H;
unicode = 66;
},
{
color = 6;
glyphname = C;
kernLeft = O;
kernRight = O;
layers = (
{
anchors = (
{
name = bottom;
pos = (359,0);
},
{
name = center;
pos = (370,340);
},
{
name = ogonek;
pos = (596,0);
},
{
name = top;
pos = (359,650);
},
{
name = topleft;
pos = (20,680);
},
{
name = topright;
pos = (720,680);
}
);
background = {
shapes = (
{
closed = 1;
nodes = (
(679.714,231.8,o),
(682.865,246.189,o),
(685.194,261.076,c),
(603.909,261.076,l),
(600.838,245.846,o),
(596.66,231.461,o),
(591.501,217.94,c),
(675.793,217.94,l)
);
},
{
ref = G;
}
);
};
layerId = "BC735296-CD3A-4FA4-9AA9-EE2D747BC69E";
shapes = (
{
closed = 1;
nodes = (
(565,217,l),
(537,119,o),
(457,65,o),
(364,65,cs),
(241,65,o),
(130,157,o),
(130,325,cs),
(130,492,o),
(241,585,o),
(364,585,cs),
(458,585,o),
(538,530,o),
(566,431,c),
(640,431,l),
(620,573,o),
(509,660,o),
(364,660,cs),
(186,660,o),
(50,529,o),
(50,325,cs),
(50,121,o),
(186,-10,o),
(364,-10,cs),
(508,-10,o),
(619,76,o),
(639,217,c)
);
}
);
width = 690;
},
{
anchors = (
{
name = bottom;
pos = (683,0);
},
{
name = center;
pos = (715,340);
},
{
name = ogonek;
pos = (1167,0);
},
{
name = top;
pos = (663,610);
},
{
name = topleft;
pos = (15,680);
},
{
name = topright;
pos = (1415,680);
}
);
layerId = "38E161BF-7670-40F4-B2BA-C78FC8454263";
shapes = (
{
closed = 1;
nodes = (
(995,267,l),
(970,214,o),
(900,170,o),
(683,170,cs),
(427,170,o),
(321,212,o),
(321,315,cs),
(321,427,o),
(427,470,o),
(683,470,cs),
(900,470,o),
(971,425,o),
(996,361,c),
(1256,361,l),
(1245,553,o),
(1062,660,o),
(683,660,cs),
(297,660,o),
(60,579,o),
(60,315,cs),
(60,51,o),
(297,-20,o),
(683,-20,cs),
(1062,-20,o),
(1244,76,o),
(1255,267,c)
);
}
);
width = 1316;
},
{
anchors = (
{
name = bottom;
pos = (463,0);
},
{
name = center;
pos = (478,340);
},
{
name = ogonek;
pos = (774,0);
},
{
name = top;
pos = (454,638);
},
{
name = topleft;
pos = (18,680);
},
{
name = topright;
pos = (937,680);
}
);
layerId = "3FBA4204-9B78-4099-9F7B-502DDE19710D";
shapes = (
{
closed = 1;
nodes = (
(700,233,l),
(672,152,o),
(596,101,o),
(464,101,cs),
(299,101,o),
(190,178,o),
(190,322,cs),
(190,468,o),
(299,545,o),
(464,545,cs),
(596,545,o),
(673,494,o),
(700,410,c),
(832,410,l),
(815,567,o),
(682,660,o),
(464,660,cs),
(221,660,o),
(53,545,o),
(53,322,cs),
(53,99,o),
(221,-13,o),
(464,-13,cs),
(681,-13,o),
(814,76,o),
(832,233,c)
);
}
);
width = 885;
}
);
metricLeft = O;
metricRight = O;
unicode = 67;
},
{
color = 3;
glyphname = Ccedilla;
kernLeft = O;
kernRight = O;
layers = (
{
anchors = (
{
name = _bottom;
pos = (359,0);
}
);
layerId = "BC735296-CD3A-4FA4-9AA9-EE2D747BC69E";
shapes = (
{
closed = 1;
nodes = (
(224,-119,l),
(214,-176,o),
(259,-230,o),
(331,-230,cs),
(407,-230,o),
(442,-181,o),
(442,-133,cs),
(442,-74,o),
(406,-44,o),
(361,-32,c),
(319,-54,l),
(368,-75,o),
(378,-105,o),
(378,-126,cs),
(378,-143,o),
(369,-168,o),
(336,-168,cs),
(291,-168,o),
(284,-133,o),
(282,-119,c)
);
},
{
closed = 1;
nodes = (
(319,-54,l),
(400,-64,l),
(400,16,l),
(319,16,l)
);
},
{
ref = C;
}
);
width = 690;
},
{
anchors = (
{
name = _bottom;
pos = (683,0);
}
);
layerId = "38E161BF-7670-40F4-B2BA-C78FC8454263";
shapes = (
{
closed = 1;
nodes = (
(391,-109,l),
(401,-186,o),
(486,-260,o),
(651,-260,cs),
(820,-260,o),
(915,-211,o),
(915,-138,cs),
(915,-77,o),
(848,-56,o),
(763,-42,c),
(598,-65,l),
(695,-78,o),
(703,-96,o),
(703,-112,cs),
(703,-129,o),
(683,-140,o),
(645,-140,cs),
(586,-140,o),
(570,-116,o),
(565,-109,c)
);
},
{
closed = 1;
nodes = (
(598,-65,l),
(768,-67,l),
(768,19,l),
(598,19,l)
);
},
{
ref = C;
}
);
width = 1316;
},
{
anchors = (
{
name = _bottom;
pos = (463,0);
}
);
layerId = "3FBA4204-9B78-4099-9F7B-502DDE19710D";
shapes = (
{
closed = 1;
nodes = (
(274,-116,l),
(270,-179,o),
(328,-239,o),
(429,-239,cs),
(534,-239,o),
(587,-190,o),
(587,-134,cs),
(587,-75,o),
(541,-47,o),
(485,-36,c),
(404,-64,l),
(471,-77,o),
(477,-103,o),
(477,-117,cs),
(477,-139,o),
(463,-157,o),
(426,-157,cs),
(379,-157,o),
(371,-127,o),
(368,-116,c)
);
},
{
closed = 1;
nodes = (
(404,-64,l),
(513,-71,l),
(513,17,l),
(404,17,l)
);
},
{
ref = C;
}
);
width = 885;
}
);
metricLeft = C;
metricRight = C;
unicode = 199;
},
{
color = 6;
glyphname = D;
kernRight = O;
layers = (
{
anchors = (
{
name = bottom;
pos = (345,0);
},
{
name = center;
pos = (345,340);
},
{
name = top;
pos = (325,650);
}
);
background = {
shapes = (
{
pos = (-37,0);
ref = O;
}
);
};
layerId = "BC735296-CD3A-4FA4-9AA9-EE2D747BC69E";
shapes = (
{
closed = 1;
nodes = (
(80,650,l),
(80,0,l),
(291,0,ls),
(541,0,o),
(638,155,o),
(638,328,cs),
(638,501,o),
(551,650,o),
(291,650,cs)
);
},
{
closed = 1;
nodes = (
(160,575,l),
(291,575,ls),
(501,575,o),
(558,451,o),
(558,328,cs),
(558,205,o),
(501,75,o),
(291,75,cs),
(160,75,l)
);
}
);
width = 688;
},
{
anchors = (
{
name = bottom;
pos = (658,0);
},
{
name = center;
pos = (229,330);
},
{
name = top;
pos = (598,600);
}
);
background = {
shapes = (
{
pos = (-29,0);
ref = O;
}
);
};
layerId = "38E161BF-7670-40F4-B2BA-C78FC8454263";
shapes = (
{
closed = 1;
nodes = (
(70,640,l),
(70,0,l),
(790,0,ls),
(1130,0,o),
(1242,152,o),
(1242,320,cs),
(1242,488,o),
(1150,640,o),
(790,640,cs)
);
},
{
closed = 1;
nodes = (
(320,440,l),
(780,440,ls),
(930,440,o),
(982,400,o),
(982,320,cs),
(982,240,o),
(930,200,o),
(780,200,cs),
(320,200,l)
);
}
);
width = 1302;
},
{
anchors = (
{
name = bottom;
pos = (443,0);
},
{
name = center;
pos = (309,337);
},
{
name = top;
pos = (410,655);
}
);
layerId = "3FBA4204-9B78-4099-9F7B-502DDE19710D";
shapes = (
{
closed = 1;
nodes = (
(77,647,l),
(77,0,l),
(447,0,ls),
(725,0,o),
(826,154,o),
(826,326,cs),
(826,497,o),
(738,647,o),
(447,647,cs)
);
},
{
closed = 1;
nodes = (
(210,533,l),
(444,533,ls),
(635,533,o),
(691,435,o),
(691,326,cs),
(691,216,o),
(635,114,o),
(444,114,cs),
(210,114,l)
);
}
);
width = 879;
}
);
metricLeft = H;
metricRight = O;
unicode = 68;
},
{
color = 6;
glyphname = E;
kernRight = E;
layers = (
{
anchors = (
{
name = bottom;
pos = (311,0);
},
{
name = ogonek;
pos = (491,0);
},
{
name = top;
pos = (311,650);
},
{
name = topleft;
pos = (20,680);
}
);
background = {
shapes = (
{
pos = (2,0);
ref = N;
}
);
};
layerId = "BC735296-CD3A-4FA4-9AA9-EE2D747BC69E";
shapes = (
{
closed = 1;
nodes = (
(471,286,l),
(471,361,l),
(160,361,l),
(160,575,l),
(540,575,l),
(540,650,l),
(80,650,l),
(80,0,l),
(541,0,l),
(541,75,l),
(160,75,l),
(160,286,l)
);
}
);
width = 601;
},
{
anchors = (
{
name = bottom;
pos = (620,0);
},
{
name = ogonek;
pos = (980,0);
},
{
name = top;
pos = (595,600);
},
{
name = topleft;
pos = (38,680);
}
);
background = {
shapes = (
{
ref = N;
}
);
};
layerId = "38E161BF-7670-40F4-B2BA-C78FC8454263";
shapes = (
{
closed = 1;
nodes = (
(940,270,l),
(940,370,l),
(320,370,l),
(320,450,l),
(1078,450,l),
(1078,640,l),
(70,640,l),
(70,0,l),
(1080,0,l),
(1080,190,l),
(320,190,l),
(320,270,l)
);
}
);
width = 1140;
},
{
anchors = (
{
name = bottom;
pos = (408,0);
},
{
name = ogonek;
pos = (644,0);
},
{
name = top;
pos = (397,634);
},
{
name = topleft;
pos = (26,680);
}
);
layerId = "3FBA4204-9B78-4099-9F7B-502DDE19710D";
shapes = (
{
closed = 1;
nodes = (
(618,270,l),
(618,375,l),
(210,375,l),
(210,536,l),
(708,536,l),
(708,647,l),
(77,647,l),
(77,0,l),
(709,0,l),
(709,111,l),
(210,111,l),
(210,270,l)
);
}
);
width = 769;
}
);
metricLeft = H;
unicode = 69;
},
{
color = 3;
glyphname = Eogonek;
kernRight = E;
layers = (
{
anchors = (
{
name = _ogonek;
pos = (531,0);
}
);
layerId = "BC735296-CD3A-4FA4-9AA9-EE2D747BC69E";
shapes = (
{
closed = 1;
nodes = (
(502,-160,l),
(437,-160,o),
(402,-130,o),
(402,-85,cs),
(402,-40,o),
(439,-10,o),
(481,0,c),
(481,22,l),
(402,12,o),
(337,-21,o),
(337,-95,cs),
(337,-169,o),
(403,-215,o),
(502,-215,c)
);
},
{
ref = E;
}
);
width = 601;
},
{
anchors = (
{
name = _ogonek;
pos = (1049,0);
}
);
layerId = "38E161BF-7670-40F4-B2BA-C78FC8454263";
shapes = (
{
closed = 1;
nodes = (
(1041,-142,l),
(951,-142,o),
(872,-120,o),
(872,-65,cs),
(872,-21,o),
(916,-10,o),
(1000,0,c),
(1000,22,l),
(822,12,o),
(692,-11,o),
(692,-105,cs),
(692,-189,o),
(823,-240,o),
(1041,-240,c)
);
},
{
ref = E;
}
);
width = 1140;
},
{
anchors = (
{
name = _ogonek;
pos = (693,0);
}
);
layerId = "3FBA4204-9B78-4099-9F7B-502DDE19710D";
shapes = (
{
closed = 1;
nodes = (
(656,-154,l),
(583,-154,o),
(535,-127,o),
(535,-79,cs),
(535,-34,o),
(574,-10,o),
(629,0,c),
(629,22,l),
(519,12,o),
(434,-18,o),
(434,-98,cs),
(434,-175,o),
(520,-223,o),
(656,-223,c)
);
},
{
ref = E;
}
);
width = 769;
}
);
metricLeft = E;
unicode = 280;
},
{
color = 6;
glyphname = F;
kernRight = F;
layers = (
{
anchors = (
{
name = bottom;
pos = (301,0);
},
{
name = top;
pos = (301,680);
}
);
layerId = "BC735296-CD3A-4FA4-9AA9-EE2D747BC69E";
shapes = (
{
closed = 1;
nodes = (
(80,650,l),
(80,0,l),
(160,0,l),
(160,286,l),
(471,286,l),
(471,361,l),
(160,361,l),
(160,575,l),
(540,575,l),
(540,650,l)
);
}
);
width = 565;
},
{
anchors = (
{
name = bottom;
pos = (600,0);
},
{
name = top;
pos = (600,680);
}
);
background = {
shapes = (
{
pos = (-2,0);
ref = E;
}
);
};
layerId = "38E161BF-7670-40F4-B2BA-C78FC8454263";
shapes = (
{
closed = 1;
nodes = (
(70,640,l),
(70,0,l),
(320,0,l),
(320,195,l),
(940,195,l),
(940,365,l),
(320,365,l),
(320,450,l),
(1078,450,l),
(1078,640,l)
);
}
);
width = 1128;
},
{
anchors = (
{
name = bottom;
pos = (394,0);
},
{
name = top;
pos = (394,680);
}
);
layerId = "3FBA4204-9B78-4099-9F7B-502DDE19710D";
shapes = (
{
closed = 1;
nodes = (
(77,647,l),
(77,0,l),
(210,0,l),
(210,258,l),
(618,258,l),
(618,362,l),
(210,362,l),
(210,536,l),
(708,536,l),
(708,647,l)
);
}
);
width = 741;
}
);
metricLeft = H;
unicode = 70;
},
{
color = 6;
glyphname = G;
kernLeft = O;
layers = (
{
anchors = (
{
name = bottom;
pos = (365,0);
},
{
name = center;
pos = (370,340);
},
{
name = ogonek;
pos = (666,10);
},
{
name = top;
pos = (365,650);
},
{
name = topleft;
pos = (20,680);
},
{
name = topright;
pos = (720,680);
}
);
background = {
shapes = (
{
ref = C;
}
);
};
layerId = "BC735296-CD3A-4FA4-9AA9-EE2D747BC69E";
shapes = (
{
closed = 1;
nodes = (
(485,-10,o),
(578,75,o),
(599,247,c),
(550,247,l),
(532,129,o),
(464,65,o),
(356,65,cs),
(215,65,o),
(130,168,o),
(130,320,cs),
(130,472,o),
(226,585,o),
(364,585,cs),
(463,585,o),
(539,526,o),
(566,431,c),
(634,431,l),
(620,569,o),
(513,660,o),
(364,660,cs),
(179,660,o),
(50,518,o),
(50,320,cs),
(50,124,o),
(167,-10,o),
(356,-10,cs)
);
},
{
closed = 1;
nodes = (
(661,0,l),
(661,311,l),
(374,311,l),
(374,236,l),
(594,236,l),
(589,167,o),
(583,65,o),
(583,0,c)
);
}
);
width = 721;
},
{
anchors = (
{
name = bottom;
pos = (651,0);
},
{
name = center;
pos = (699,340);
},
{
name = ogonek;
pos = (1291,10);
},
{
name = top;
pos = (651,610);
},
{
name = topleft;
pos = (-1,680);
},
{
name = topright;
pos = (1399,680);
}
);
background = {
anchors = (
{
name = bottom;
pos = (692.999,0);
},
{
name = center;
pos = (714.999,340);
},
{
name = ogonek;
pos = (1166.999,0);
},
{
name = top;
pos = (692.999,650);
},
{
name = topleft;
pos = (14.999,680);
},
{
name = topright;
pos = (1414.999,680);
}
);
};
layerId = "38E161BF-7670-40F4-B2BA-C78FC8454263";
shapes = (
{
closed = 1;
nodes = (
(897,-20,o),
(1059,65,o),
(1142,221,c),
(1118,250,l),
(1002,195,o),
(896,170,o),
(703,170,cs),
(427,170,o),
(321,217,o),
(321,315,cs),
(321,427,o),
(427,470,o),
(683,470,cs),
(900,470,o),
(971,425,o),
(996,381,c),
(1256,381,l),
(1245,553,o),
(1052,660,o),
(683,660,cs),
(307,660,o),
(60,579,o),
(60,315,cs),
(60,51,o),
(307,-20,o),
(653,-20,cs)
);
},
{
closed = 1;
nodes = (
(1270,0,l),
(1270,331,l),
(737,331,l),
(737,226,l),
(1127,226,l),
(1102,151,o),
(1074,59,o),
(1074,0,c)
);
}
);
width = 1340;
},
{
anchors = (
{
name = bottom;
pos = (454,0);
},
{
name = center;
pos = (473,340);
},
{
name = ogonek;
pos = (861,10);
},
{
name = top;
pos = (454,638);
},
{
name = topleft;
pos = (14,680);
},
{
name = topright;
pos = (932,680);
}
);
layerId = "3FBA4204-9B78-4099-9F7B-502DDE19710D";
shapes = (
{
closed = 1;
nodes = (
(634,-13,o),
(752,88,o),
(770,260,c),
(718,241,l),
(687,162,o),
(594,102,o),
(454,102,cs),
(271,102,o),
(190,184,o),
(190,318,cs),
(190,455,o),
(289,545,o),
(464,545,cs),
(600,545,o),
(674,492,o),
(700,413,c),
(828,413,l),
(815,564,o),
(682,660,o),
(464,660,cs),
(219,660,o),
(53,537,o),
(53,318,cs),
(53,101,o),
(210,-13,o),
(449,-13,cs)
);
},
{
closed = 1;
nodes = (
(851,0,l),
(851,315,l),
(465,315,l),
(465,230,l),
(761,230,l),
(750,160,o),
(736,62,o),
(736,0,c)
);
}
);
width = 914;
}
);
metricLeft = O;
metricRight = "=O+10";
unicode = 71;
},
{
color = 6;
glyphname = H;
layers = (
{
anchors = (
{
name = bottom;
pos = (360,0);
},
{
name = center;
pos = (360,340);
},
{
name = top;
pos = (360,680);
},
{
name = topleft;
pos = (20,680);
}
);
background = {
shapes = (
{
pos = (2,0);
ref = N;
}
);
};
layerId = "BC735296-CD3A-4FA4-9AA9-EE2D747BC69E";
shapes = (
{
closed = 1;
nodes = (
(153,287,l),
(565,287,l),
(565,362,l),
(153,362,l)
);
},
{
closed = 1;
nodes = (
(560,0,l),
(640,0,l),
(640,650,l),
(560,650,l)
);
},
{
closed = 1;
nodes = (
(80,0,l),
(160,0,l),
(160,650,l),
(80,650,l)
);
}
);
width = 720;
},
{
anchors = (
{
name = bottom;
pos = (698,0);
},
{
name = center;
pos = (698,340);
},
{
name = top;
pos = (698,680);
},
{
name = topleft;
pos = (18,680);
}
);
background = {
shapes = (
{
pos = (-20,0);
ref = N;
}
);
};
layerId = "38E161BF-7670-40F4-B2BA-C78FC8454263";
shapes = (
{
closed = 1;
nodes = (
(284,229,l),
(988,229,l),
(988,419,l),
(284,419,l)
);
},
{
closed = 1;
nodes = (
(960,0,l),
(1210,0,l),
(1210,640,l),
(960,640,l)
);
},
{
closed = 1;
nodes = (
(70,0,l),
(320,0,l),
(320,640,l),
(70,640,l)
);
}
);
width = 1280;
},
{
anchors = (
{
name = bottom;
pos = (466,0);
},
{
name = center;
pos = (466,340);
},
{
name = top;
pos = (466,680);
},
{
name = topleft;
pos = (19,680);
}
);
layerId = "3FBA4204-9B78-4099-9F7B-502DDE19710D";
shapes = (
{
closed = 1;
nodes = (
(194,269,l),
(707,269,l),
(707,380,l),
(194,380,l)
);
},
{
closed = 1;
nodes = (
(685,0,l),
(818,0,l),
(818,647,l),
(685,647,l)
);
},
{
closed = 1;
nodes = (
(77,0,l),
(210,0,l),
(210,647,l),
(77,647,l)
);
}
);
width = 895;
}
);
unicode = 72;
},
{
color = 3;
glyphname = Hbar;
layers = (
{
layerId = "BC735296-CD3A-4FA4-9AA9-EE2D747BC69E";
shapes = (
{
closed = 1;
nodes = (
(680,462,l),
(680,537,l),
(40,537,l),
(40,462,l)
);
},
{
ref = H;
}
);
width = 720;
},
{
layerId = "38E161BF-7670-40F4-B2BA-C78FC8454263";
shapes = (
{
closed = 1;
nodes = (
(1250,480,l),
(1250,555,l),
(30,555,l),
(30,480,l)
);
},
{
pos = (1,0);
ref = H;
}
);
width = 1280;
},
{
layerId = "3FBA4204-9B78-4099-9F7B-502DDE19710D";
shapes = (
{
closed = 1;
nodes = (
(858,471,l),
(858,546,l),
(37,546,l),
(37,471,l)
);
},
{
alignment = -1;
ref = H;
}
);
width = 895;
}
);
metricLeft = "=H-40";
metricRight = "=H-40";
unicode = 294;
},
{
color = 3;
glyphname = IJ;
layers = (
{
anchors = (
{
name = bottom;
pos = (138,0);
},
{
name = ogonek;
pos = (266,10);
},
{
name = top;
pos = (138,680);
},
{
name = topleft;
pos = (-2,680);
}
);
layerId = "BC735296-CD3A-4FA4-9AA9-EE2D747BC69E";
shapes = (
{
closed = 1;
nodes = (
(100,263,l),
(180,263,l),
(180,650,l),
(100,650,l)
);
},
{
pos = (78,0);
ref = J;
}
);
width = 615;
},
{
anchors = (
{
name = bottom;
pos = (114,0);
},
{
name = ogonek;
pos = (242,10);
},
{
name = top;
pos = (114,680);
},
{
name = topleft;
pos = (-26,680);
}
);
layerId = "38E161BF-7670-40F4-B2BA-C78FC8454263";
shapes = (
{
closed = 1;
nodes = (
(86,344,l),
(326,344,l),
(326,640,l),
(86,640,l)
);
},
{
pos = (54,0);
ref = J;
}
);
width = 1058;
},
{
anchors = (
{
name = bottom;
pos = (131,0);
},
{
name = ogonek;
pos = (259,10);
},
{
name = top;
pos = (131,680);
},
{
name = topleft;
pos = (-9,680);
}
);
layerId = "3FBA4204-9B78-4099-9F7B-502DDE19710D";
shapes = (
{
closed = 1;
nodes = (
(96,289,l),
(226,289,l),
(226,647,l),
(96,647,l)
);
},
{
alignment = -1;
pos = (71,0);
ref = J;
}
);
width = 754;
}
);
metricLeft = I;
metricRight = J;
unicode = 306;
},
{
color = 3;
glyphname = Iogonek;
layers = (
{
anchors = (
{
name = _ogonek;
pos = (139,0);
}
);
layerId = "BC735296-CD3A-4FA4-9AA9-EE2D747BC69E";
shapes = (
{
closed = 1;
nodes = (
(170,-160,l),
(105,-160,o),
(70,-130,o),
(70,-85,cs),
(70,-40,o),
(107,-10,o),
(149,0,c),
(149,22,l),
(70,12,o),
(5,-21,o),
(5,-95,cs),
(5,-169,o),
(71,-215,o),
(170,-215,c)
);
},
{
ref = I;
}
);
width = 280;
},
{
anchors = (
{
name = _ogonek;
pos = (209.996,0);
}
);
layerId = "38E161BF-7670-40F4-B2BA-C78FC8454263";
shapes = (
{
closed = 1;
nodes = (
(282,-142,l),
(192,-142,o),
(113,-120,o),
(113,-65,cs),
(113,-21,o),
(157,-10,o),
(241,0,c),
(241,22,l),
(63,12,o),
(-67,-11,o),
(-67,-105,cs),
(-67,-189,o),
(64,-240,o),
(282,-240,c)
);
},
{
ref = I;
}
);
width = 420;
},
{
anchors = (
{
name = _ogonek;
pos = (161,0);
}
);
layerId = "3FBA4204-9B78-4099-9F7B-502DDE19710D";
shapes = (
{
closed = 1;
nodes = (
(204,-154,l),
(131,-154,o),
(83,-127,o),
(83,-79,cs),
(83,-34,o),
(122,-10,o),
(177,0,c),
(177,22,l),
(67,12,o),
(-18,-18,o),
(-18,-98,cs),
(-18,-175,o),
(68,-223,o),
(204,-223,c)
);
},
{
ref = I;
}
);
width = 324;
}
);
unicode = 302;
},
{
color = 6;
glyphname = J;
kernLeft = J;
layers = (
{
anchors = (
{
name = bottom;
pos = (263,0);
},
{
name = top;
pos = (263,680);
}
);
background = {
anchors = (
{
name = bottom;
pos = (215.771,-10);
},
{
name = center;
pos = (215.771,250);
},
{
name = ogonek;
pos = (128.771,10);
},
{
name = top;
pos = (220.771,510);
},
{
name = topright;
pos = (-48.229,500);
}
);
};
layerId = "BC735296-CD3A-4FA4-9AA9-EE2D747BC69E";
shapes = (
{
closed = 1;
nodes = (
(377,129,o),
(335,65,o),
(242,65,cs),
(166,65,o),
(110,107,o),
(97,188,c),
(24,188,l),
(30,64,o),
(121,-10,o),
(242,-10,cs),
(381,-10,o),
(457,88,o),
(457,219,cs),
(457,650,l),
(377,650,l),
(377,219,ls)
);
}
);
width = 537;
},
{
anchors = (
{
name = bottom;
pos = (526,0);
},
{
name = top;
pos = (526,680);
}
);
background = {
shapes = (
{
pos = (-52.932,0);
ref = U;
}
);
};
layerId = "38E161BF-7670-40F4-B2BA-C78FC8454263";
shapes = (
{
closed = 1;
nodes = (
(684,242,o),
(650,180,o),
(484,180,cs),
(353,180,o),
(290,211,o),
(271,294,c),
(31,294,l),
(33,64,o),
(262,-10,o),
(484,-10,cs),
(802,-10,o),
(934,148,o),
(934,299,cs),
(934,640,l),
(684,640,l),
(684,329,ls)
);
}
);
width = 1004;
},
{
anchors = (
{
name = bottom;
pos = (345,0);
},
{
name = top;
pos = (345,680);
}
);
layerId = "3FBA4204-9B78-4099-9F7B-502DDE19710D";
shapes = (
{
closed = 1;
nodes = (
(473,169,o),
(427,105,o),
(318,105,cs),
(232,105,o),
(166,145,o),
(152,221,c),
(26,221,l),
(31,64,o),
(172,-10,o),
(318,-10,cs),
(506,-10,o),
(606,107,o),
(606,244,cs),
(606,647,l),
(473,647,l),
(473,253,ls)
);
}
);
width = 683;
}
);
metricRight = H;
unicode = 74;
},
{
color = 6;
glyphname = K;
kernLeft = I;
kernRight = K;
layers = (
{
anchors = (
{
name = bottom;
pos = (308,0);
},
{
name = top;
pos = (308,680);
}
);
layerId = "BC735296-CD3A-4FA4-9AA9-EE2D747BC69E";
shapes = (
{
closed = 1;
nodes = (
(569,650,l),
(461,650,l),
(160,340,l),
(502,0,l),
(611,0,l),
(235,368,l),
(235,316,l)
);
},
{
closed = 1;
nodes = (
(80,0,l),
(160,0,l),
(160,650,l),
(80,650,l)
);
}
);
width = 631;
},
{
anchors = (
{
name = bottom;
pos = (514,0);
},
{
name = top;
pos = (554,680);
}
);
layerId = "38E161BF-7670-40F4-B2BA-C78FC8454263";
shapes = (
{
closed = 1;
nodes = (
(1126,640,l),
(770,640,l),
(318,340,l),
(808,0,l),
(1180,0,l),
(603,371,l),
(603,315,l)
);
},
{
closed = 1;
nodes = (
(70,0,l),
(320,0,l),
(320,640,l),
(70,640,l)
);
}
);
width = 1215;
},
{
anchors = (
{
name = bottom;
pos = (385,0);
},
{
name = top;
pos = (385,680);
}
);
layerId = "3FBA4204-9B78-4099-9F7B-502DDE19710D";
shapes = (
{
closed = 1;
nodes = (
(743,647,l),
(554,647,l),
(209,340,l),
(597,0,l),
(789,0,l),
(353,371,l),
(354,315,l)
);
},
{
closed = 1;
nodes = (
(77,0,l),
(210,0,l),
(210,647,l),
(77,647,l)
);
}
);
width = 814;
}
);
metricLeft = H;
unicode = 75;
},
{
color = 6;
glyphname = L;
kernRight = L;
layers = (
{
anchors = (
{
name = bottom;
pos = (330,0);
},
{
name = center;
pos = (280,340);
},
{
name = top;
pos = (119,650);
},
{
name = topright;
pos = (302,500);
}
);
layerId = "BC735296-CD3A-4FA4-9AA9-EE2D747BC69E";
shapes = (
{
closed = 1;
nodes = (
(80,650,l),
(80,0,l),
(520,0,l),
(520,75,l),
(160,75,l),
(160,650,l)
);
}
);
width = 570;
},
{
anchors = (
{
name = bottom;
pos = (523,0);
},
{
name = center;
pos = (423,340);
},
{
name = top;
pos = (206,600);
},
{
name = topright;
pos = (602,490);
}
);
background = {
shapes = (
{
pos = (-2,0);
ref = E;
}
);
};
layerId = "38E161BF-7670-40F4-B2BA-C78FC8454263";
shapes = (
{
closed = 1;
nodes = (
(70,640,l),
(70,0,l),
(903,0,l),
(903,190,l),
(320,190,l),
(320,640,l)
);
}
);
width = 943;
},
{
anchors = (
{
name = bottom;
pos = (390,0);
},
{
name = center;
pos = (325,340);
},
{
name = top;
pos = (143,634);
},
{
name = topright;
pos = (372,496);
}
);
layerId = "3FBA4204-9B78-4099-9F7B-502DDE19710D";
shapes = (
{
closed = 1;
nodes = (
(77,647,l),
(77,0,l),
(640,0,l),
(640,111,l),
(210,111,l),
(210,647,l)
);
}
);
width = 687;
}
);
metricLeft = H;
unicode = 76;
},
{
color = 6;
glyphname = M;
kernLeft = M;
kernRight = M;
layers = (
{
anchors = (
{
name = bottom;
pos = (440,0);
},
{
name = top;
pos = (440,680);
}
);
layerId = "BC735296-CD3A-4FA4-9AA9-EE2D747BC69E";
shapes = (
{
closed = 1;
nodes = (
(160,650,l),
(80,650,l),
(80,0,l),
(160,0,l),
(160,510,l),
(144,506,l),
(400,0,l),
(480,0,l),
(736,507,l),
(720,511,l),
(720,0,l),
(800,0,l),
(800,650,l),
(720,650,l),
(424,48,l),
(456,48,l)
);
}
);
width = 880;
},
{
anchors = (
{
name = bottom;
pos = (790,0);
},
{
name = top;
pos = (790,640);
}
);
layerId = "38E161BF-7670-40F4-B2BA-C78FC8454263";
shapes = (
{
closed = 1;
nodes = (
(320,640,l),
(70,640,l),
(70,0,l),
(320,0,l),
(320,435,l),
(244,404,l),
(640,0,l),
(940,0,l),
(1335,405,l),
(1260,436,l),
(1260,0,l),
(1510,0,l),
(1510,640,l),
(1260,640,l),
(714,76,l),
(864,76,l)
);
}
);
width = 1580;
},
{
anchors = (
{
name = bottom;
pos = (549,0);
},
{
name = top;
pos = (549,668);
}
);
layerId = "3FBA4204-9B78-4099-9F7B-502DDE19710D";
shapes = (
{
closed = 1;
nodes = (
(210,647,l),
(77,647,l),
(77,0,l),
(210,0,l),
(210,468,l),
(178,459,l),
(475,0,l),
(624,0,l),
(921,461,l),
(889,470,l),
(889,0,l),
(1022,0,l),
(1022,647,l),
(889,647,l),
(517,66,l),
(580,66,l)
);
}
);
width = 1099;
}
);
metricLeft = H;
metricRight = H;
unicode = 77;
},
{
color = 6;
glyphname = N;
layers = (
{
anchors = (
{
name = bottom;
pos = (367,0);
},
{
name = top;
pos = (367,650);
}
);
background = {
shapes = (
{
ref = H;
}
);
};
layerId = "BC735296-CD3A-4FA4-9AA9-EE2D747BC69E";
shapes = (
{
closed = 1;
nodes = (
(160,650,l),
(80,650,l),
(80,0,l),
(160,0,l),
(160,561,l),
(138,554,l),
(560,0,l),
(640,0,l),
(640,650,l),
(560,650,l),
(560,88,l),
(582,95,l)
);
}
);
width = 720;
},
{
anchors = (
{
name = bottom;
pos = (649,0);
},
{
name = top;
pos = (649,600);
}
);
background = {
shapes = (
{
pos = (-2.102,0);
ref = H;
}
);
};
layerId = "38E161BF-7670-40F4-B2BA-C78FC8454263";
shapes = (
{
closed = 1;
nodes = (
(320,640,l),
(70,640,l),
(70,0,l),
(320,0,l),
(320,490,l),
(227,436,l),
(980,0,l),
(1230,0,l),
(1230,640,l),
(980,640,l),
(980,143,l),
(1073,196,l)
);
}
);
width = 1300;
},
{
anchors = (
{
name = bottom;
pos = (460,0);
},
{
name = top;
pos = (457,634);
}
);
layerId = "3FBA4204-9B78-4099-9F7B-502DDE19710D";
shapes = (
{
closed = 1;
nodes = (
(210,647,l),
(77,647,l),
(77,0,l),
(210,0,l),
(210,528,l),
(168,511,l),
(691,0,l),
(824,0,l),
(824,647,l),
(691,647,l),
(691,115,l),
(733,132,l)
);
}
);
width = 901;
}
);
metricLeft = H;
metricRight = H;
unicode = 78;
},
{
color = 6;
glyphname = Eng;
layers = (
{
anchors = (
{
name = bottom;
pos = (367,0);
},
{
name = top;
pos = (367,650);
}
);
layerId = "BC735296-CD3A-4FA4-9AA9-EE2D747BC69E";
shapes = (
{
closed = 1;
nodes = (
(160,650,l),
(80,650,l),
(80,0,l),
(160,0,l),
(160,561,l),
(138,554,l),
(560,0,l),
(560,-110,o),
(500,-130,o),
(440,-130,c),
(440,-210,l),
(540,-210,o),
(640,-150,o),
(640,-20,cs),
(640,650,l),
(560,650,l),
(560,88,l),
(582,95,l)
);
}
);
width = 720;
},
{
anchors = (
{
name = bottom;
pos = (649,0);
},
{
name = top;
pos = (649,600);
}
);
layerId = "38E161BF-7670-40F4-B2BA-C78FC8454263";
shapes = (
{
closed = 1;
nodes = (
(320,640,l),
(70,640,l),
(70,0,l),
(320,0,l),
(320,490,l),
(227,436,l),
(980,0,l),
(980,-30,o),
(920,-40,o),
(840,-40,c),
(840,-210,l),
(979,-210,o),
(1230,-241,o),
(1230,-60,cs),
(1230,640,l),
(980,640,l),
(980,143,l),
(1073,196,l)
);
}
);
width = 1300;
},
{
anchors = (
{
name = bottom;
pos = (460,0);
},
{
name = top;
pos = (457,634);
}
);
layerId = "3FBA4204-9B78-4099-9F7B-502DDE19710D";
shapes = (
{
closed = 1;
nodes = (
(210,647,l),
(77,647,l),
(77,0,l),
(210,0,l),
(210,528,l),
(168,511,l),
(691,0,l),
(691,-85,o),
(631,-102,o),
(565,-102,c),
(565,-210,l),
(677,-210,o),
(824,-178,o),
(824,-33,cs),
(824,647,l),
(691,647,l),
(691,115,l),
(733,132,l)
);
}
);
width = 901;
}
);
metricLeft = N;
metricRight = N;
unicode = 330;
},
{
color = 6;
glyphname = O;
kernLeft = O;
kernRight = O;
layers = (
{
anchors = (
{
name = bottom;
pos = (370,0);
},
{
name = center;
pos = (370,340);
},
{
name = ogonek;
pos = (666,10);
},
{
name = top;
pos = (370,650);
},
{
name = topleft;
pos = (20,680);
},
{
name = topright;
pos = (720,680);
}
);
layerId = "BC735296-CD3A-4FA4-9AA9-EE2D747BC69E";
shapes = (
{
closed = 1;
nodes = (
(548,-10,o),
(690,121,o),
(690,325,cs),
(690,529,o),
(548,660,o),
(370,660,cs),
(192,660,o),
(50,529,o),
(50,325,cs),
(50,121,o),
(192,-10,o),
(370,-10,cs)
);
},
{
closed = 1;
nodes = (
(235,65,o),
(130,155,o),
(130,325,cs),
(130,494,o),
(235,585,o),
(370,585,cs),
(505,585,o),
(610,494,o),
(610,325,cs),
(610,155,o),
(505,65,o),
(370,65,cs)
);
}
);
width = 740;
},
{
anchors = (
{
name = bottom;
pos = (665,0);
},
{
name = center;
pos = (665,320);
},
{
name = ogonek;
pos = (1252,10);
},
{
name = top;
pos = (665,610);
},
{
name = topleft;
pos = (-40,680);
},
{
name = topright;
pos = (1360,680);
}
);
background = {
shapes = (
{
pos = (9.928,-2.078);
ref = o;
scale = (1.2919,1.2919);
}
);
};
layerId = "38E161BF-7670-40F4-B2BA-C78FC8454263";
shapes = (
{
closed = 1;
nodes = (
(1101,-20,o),
(1270,96,o),
(1270,320,cs),
(1270,544,o),
(1101,660,o),
(665,660,cs),
(229,660,o),
(60,544,o),
(60,320,cs),
(60,96,o),
(229,-20,o),
(665,-20,cs)
);
},
{
closed = 1;
nodes = (
(459,170,o),
(320,200,o),
(320,320,cs),
(320,440,o),
(459,470,o),
(665,470,cs),
(871,470,o),
(1000,440,o),
(1000,320,cs),
(1000,200,o),
(871,170,o),
(665,170,cs)
);
}
);
width = 1330;
},
{
anchors = (
{
name = bottom;
pos = (462,0);
},
{
name = center;
pos = (462,334);
},
{
name = ogonek;
pos = (849,10);
},
{
name = top;
pos = (462,638);
},
{
name = topleft;
pos = (1,680);
},
{
name = topright;
pos = (920,680);
}
);
layerId = "3FBA4204-9B78-4099-9F7B-502DDE19710D";
shapes = (
{
closed = 1;
nodes = (
(721,-13,o),
(871,113,o),
(871,323,cs),
(871,534,o),
(721,660,o),
(462,660,cs),
(204,660,o),
(53,534,o),
(53,323,cs),
(53,113,o),
(204,-13,o),
(462,-13,cs)
);
},
{
closed = 1;
nodes = (
(303,102,o),
(189,174,o),
(189,323,cs),
(189,473,o),
(303,545,o),
(462,545,cs),
(621,545,o),
(732,473,o),
(732,323,cs),
(732,174,o),
(621,102,o),
(462,102,cs)
);
}
);
width = 924;
}
);
unicode = 79;
},
{
color = 6;
glyphname = OE;
kernLeft = O;
layers = (
{
anchors = (
{
name = bottom;
pos = (370,0);
},
{
name = center;
pos = (370,340);
},
{
name = ogonek;
pos = (666,10);
},
{
name = top;
pos = (370,650);
},
{
name = topleft;
pos = (20,680);
},
{
name = topright;
pos = (720,680);
}
);
layerId = "BC735296-CD3A-4FA4-9AA9-EE2D747BC69E";
shapes = (
{
closed = 1;
nodes = (
(522,76,l),
(426,0,l),
(906,0,l),
(906,76,l)
);
},
{
closed = 1;
nodes = (
(675,361,l),
(675,286,l),
(836,286,l),
(836,361,l)
);
},
{
closed = 1;
nodes = (
(409,650,l),
(542,574,l),
(905,574,l),
(905,650,l)
);
},
{
closed = 1;
nodes = (
(548,-10,o),
(690,121,o),
(690,325,cs),
(690,529,o),
(548,660,o),
(370,660,cs),
(192,660,o),
(50,529,o),
(50,325,cs),
(50,121,o),
(192,-10,o),
(370,-10,cs)
);
},
{
closed = 1;
nodes = (
(235,65,o),
(130,155,o),
(130,325,cs),
(130,494,o),
(235,585,o),
(370,585,cs),
(505,585,o),
(610,494,o),
(610,325,cs),
(610,155,o),
(505,65,o),
(370,65,cs)
);
}
);
width = 966;
},
{
anchors = (
{
name = bottom;
pos = (665,0);
},
{
name = center;
pos = (665,320);
},
{
name = ogonek;
pos = (1252,10);
},
{
name = top;
pos = (665,610);
},
{
name = topleft;
pos = (-40,680);
},
{
name = topright;
pos = (1360,680);
}
);
layerId = "38E161BF-7670-40F4-B2BA-C78FC8454263";
shapes = (
{
closed = 1;
nodes = (
(1196,190,l),
(846,0,l),
(1902,0,l),
(1902,190,l)
);
},
{
closed = 1;
nodes = (
(1242,370,l),
(1242,270,l),
(1762,270,l),
(1762,370,l)
);
},
{
closed = 1;
nodes = (
(856,640,l),
(1202,450,l),
(1900,450,l),
(1900,640,l)
);
},
{
closed = 1;
nodes = (
(1101,-20,o),
(1270,96,o),
(1270,320,cs),
(1270,544,o),
(1101,660,o),
(665,660,cs),
(229,660,o),
(60,544,o),
(60,320,cs),
(60,96,o),
(229,-20,o),
(665,-20,cs)
);
},
{
closed = 1;
nodes = (
(459,170,o),
(320,200,o),
(320,320,cs),
(320,440,o),
(459,470,o),
(665,470,cs),
(871,470,o),
(1000,440,o),
(1000,320,cs),
(1000,200,o),
(871,170,o),
(665,170,cs)
);
}
);
width = 1962;
},
{
anchors = (
{
name = bottom;
pos = (462,0);
},
{
name = center;
pos = (462,334);
},
{
name = ogonek;
pos = (849,10);
},
{
name = top;
pos = (462,638);
},
{
name = topleft;
pos = (1,680);
},
{
name = topright;
pos = (920,680);
}
);
layerId = "3FBA4204-9B78-4099-9F7B-502DDE19710D";
shapes = (
{
closed = 1;
nodes = (
(765,112,l),
(543,0,l),
(1217,0,l),
(1217,112,l)
);
},
{
closed = 1;
nodes = (
(844,375,l),
(844,270,l),
(1125,270,l),
(1125,375,l)
);
},
{
closed = 1;
nodes = (
(543,647,l),
(721,535,l),
(1216,535,l),
(1216,647,l)
);
},
{
closed = 1;
nodes = (
(721,-13,o),
(871,113,o),
(871,323,cs),
(871,534,o),
(721,660,o),
(462,660,cs),
(204,660,o),
(53,534,o),
(53,323,cs),
(53,113,o),
(204,-13,o),
(462,-13,cs)
);
},
{
closed = 1;
nodes = (
(303,102,o),
(189,174,o),
(189,323,cs),
(189,473,o),
(303,545,o),
(462,545,cs),
(621,545,o),
(732,473,o),
(732,323,cs),
(732,174,o),
(621,102,o),
(462,102,cs)
);
}
);
width = 1277;
}
);
metricLeft = O;
metricRight = E;
unicode = 338;
},
{
color = 6;
glyphname = P;
kernRight = P;
layers = (
{
anchors = (
{
name = bottom;
pos = (296,0);
},
{
name = top;
pos = (296,680);
}
);
background = {
shapes = (
{
ref = R;
}
);
};
layerId = "BC735296-CD3A-4FA4-9AA9-EE2D747BC69E";
shapes = (
{
closed = 1;
nodes = (
(346,230,ls),
(466,230,o),
(561,307,o),
(561,440,cs),
(561,573,o),
(466,650,o),
(346,650,cs),
(78,650,l),
(78,0,l),
(158,0,l),
(158,575,l),
(346,575,ls),
(426,575,o),
(481,523,o),
(481,440,cs),
(481,360,o),
(426,305,o),
(346,305,cs),
(142,305,l),
(142,230,l)
);
}
);
width = 606;
},
{
anchors = (
{
name = bottom;
pos = (592,0);
},
{
name = top;
pos = (592,680);
}
);
background = {
shapes = (
{
ref = R;
}
);
};
layerId = "38E161BF-7670-40F4-B2BA-C78FC8454263";
shapes = (
{
closed = 1;
nodes = (
(762,165,ls),
(962,165,o),
(1122,185,o),
(1122,390,cs),
(1122,595,o),
(962,640,o),
(762,640,cs),
(68,640,l),
(68,0,l),
(318,0,l),
(318,440,l),
(801,440,ls),
(841,440,o),
(872,432,o),
(872,390,cs),
(872,348,o),
(841,340,o),
(801,340,cs),
(302,340,l),
(302,165,l)
);
}
);
width = 1177;
},
{
anchors = (
{
name = bottom;
pos = (389,0);
},
{
name = top;
pos = (389,680);
}
);
layerId = "3FBA4204-9B78-4099-9F7B-502DDE19710D";
shapes = (
{
closed = 1;
nodes = (
(476,210,ls),
(621,210,o),
(736,269,o),
(736,424,cs),
(736,580,o),
(621,647,o),
(476,647,cs),
(75,647,l),
(75,0,l),
(208,0,l),
(208,533,l),
(488,533,ls),
(558,533,o),
(603,495,o),
(603,424,cs),
(603,356,o),
(558,316,o),
(488,316,cs),
(192,316,l),
(192,210,l)
);
}
);
width = 784;
}
);
metricRight = "=O-5";
unicode = 80;
},
{
color = 6;
glyphname = Thorn;
layers = (
{
anchors = (
{
name = bottom;
pos = (296,0);
},
{
name = top;
pos = (296,680);
}
);
layerId = "BC735296-CD3A-4FA4-9AA9-EE2D747BC69E";
shapes = (
{
closed = 1;
nodes = (
(146,535,l),
(146,460,l),
(346,460,ls),
(426,460,o),
(481,408,o),
(481,325,cs),
(481,245,o),
(426,190,o),
(346,190,cs),
(146,190,l),
(146,115,l),
(346,115,ls),
(466,115,o),
(561,192,o),
(561,325,cs),
(561,458,o),
(466,535,o),
(346,535,cs)
);
},
{
closed = 1;
nodes = (
(78,0,l),
(158,0,l),
(158,650,l),
(78,650,l)
);
}
);
width = 606;
},
{
anchors = (
{
name = bottom;
pos = (316,0);
},
{
name = top;
pos = (316,680);
}
);
layerId = "38E161BF-7670-40F4-B2BA-C78FC8454263";
shapes = (
{
closed = 1;
nodes = (
(282,550,l),
(282,370,l),
(721,370,ls),
(761,370,o),
(792,362,o),
(792,320,cs),
(792,278,o),
(761,270,o),
(721,270,cs),
(282,270,l),
(282,90,l),
(682,90,ls),
(882,90,o),
(1042,115,o),
(1042,320,cs),
(1042,525,o),
(882,550,o),
(682,550,cs)
);
},
{
closed = 1;
nodes = (
(68,0,l),
(318,0,l),
(318,640,l),
(68,640,l)
);
}
);
width = 1097;
},
{
anchors = (
{
name = bottom;
pos = (302,0);
},
{
name = top;
pos = (302,680);
}
);
layerId = "3FBA4204-9B78-4099-9F7B-502DDE19710D";
shapes = (
{
closed = 1;
nodes = (
(180,540,l),
(180,432,l),
(463,432,ls),
(531,432,o),
(578,394,o),
(578,323,cs),
(578,255,o),
(531,215,o),
(463,215,cs),
(180,215,l),
(180,107,l),
(451,107,ls),
(596,107,o),
(711,168,o),
(711,323,cs),
(711,479,o),
(596,540,o),
(451,540,cs)
);
},
{
closed = 1;
nodes = (
(75,0,l),
(208,0,l),
(208,647,l),
(75,647,l)
);
}
);
width = 759;
}
);
metricLeft = P;
metricRight = P;
unicode = 222;
},
{
color = 6;
glyphname = Q;
kernLeft = O;
kernRight = O;
layers = (
{
anchors = (
{
name = bottom;
pos = (370,0);
},
{
name = center;
pos = (370,340);
},
{
name = ogonek;
pos = (666,10);
},
{
name = top;
pos = (370,680);
},
{
name = topleft;
pos = (20,680);
},
{
name = topright;
pos = (720,680);
}
);
layerId = "BC735296-CD3A-4FA4-9AA9-EE2D747BC69E";
shapes = (
{
closed = 1;
nodes = (
(330,-200,l),
(410,-200,l),
(410,43,l),
(330,43,l)
);
},
{
closed = 1;
nodes = (
(548,-10,o),
(690,121,o),
(690,325,cs),
(690,529,o),
(548,660,o),
(370,660,cs),
(192,660,o),
(50,529,o),
(50,325,cs),
(50,121,o),
(192,-10,o),
(370,-10,cs)
);
},
{
closed = 1;
nodes = (
(235,65,o),
(130,155,o),
(130,325,cs),
(130,494,o),
(235,585,o),
(370,585,cs),
(505,585,o),
(610,494,o),
(610,325,cs),
(610,155,o),
(505,65,o),
(370,65,cs)
);
}
);
width = 740;
},
{
anchors = (
{
name = bottom;
pos = (665,0);
},
{
name = center;
pos = (665,320);
},
{
name = ogonek;
pos = (1252,10);
},
{
name = top;
pos = (665,680);
},
{
name = topleft;
pos = (-40,680);
},
{
name = topright;
pos = (1360,680);
}
);
layerId = "38E161BF-7670-40F4-B2BA-C78FC8454263";
shapes = (
{
closed = 1;
nodes = (
(545,-200,l),
(785,-200,l),
(785,43,l),
(545,43,l)
);
},
{
closed = 1;
nodes = (
(1101,-20,o),
(1270,96,o),
(1270,320,cs),
(1270,544,o),
(1101,660,o),
(665,660,cs),
(229,660,o),
(60,544,o),
(60,320,cs),
(60,96,o),
(229,-20,o),
(665,-20,cs)
);
},
{
closed = 1;
nodes = (
(459,170,o),
(320,200,o),
(320,320,cs),
(320,440,o),
(459,470,o),
(665,470,cs),
(871,470,o),
(1000,440,o),
(1000,320,cs),
(1000,200,o),
(871,170,o),
(665,170,cs)
);
}
);
width = 1330;
},
{
anchors = (
{
name = bottom;
pos = (462,0);
},
{
name = center;
pos = (462,334);
},
{
name = ogonek;
pos = (849,10);
},
{
name = top;
pos = (462,680);
},
{
name = topleft;
pos = (1,680);
},
{
name = topright;
pos = (920,680);
}
);
layerId = "3FBA4204-9B78-4099-9F7B-502DDE19710D";
shapes = (
{
closed = 1;
nodes = (
(397,-200,l),
(527,-200,l),
(527,43,l),
(397,43,l)
);
},
{
closed = 1;
nodes = (
(721,-13,o),
(871,113,o),
(871,323,cs),
(871,534,o),
(721,660,o),
(462,660,cs),
(204,660,o),
(53,534,o),
(53,323,cs),
(53,113,o),
(204,-13,o),
(462,-13,cs)
);
},
{
closed = 1;
nodes = (
(303,102,o),
(189,174,o),
(189,323,cs),
(189,473,o),
(303,545,o),
(462,545,cs),
(621,545,o),
(732,473,o),
(732,323,cs),
(732,174,o),
(621,102,o),
(462,102,cs)
);
}
);
width = 924;
}
);
metricLeft = O;
metricRight = O;
unicode = 81;
},
{
color = 6;
glyphname = R;
kernLeft = I;
kernRight = R;
layers = (
{
anchors = (
{
name = bottom;
pos = (319,0);
},
{
name = top;
pos = (319,650);
}
);
background = {
shapes = (
{
pos = (2,0);
ref = B;
}
);
};
layerId = "BC735296-CD3A-4FA4-9AA9-EE2D747BC69E";
shapes = (
{
closed = 1;
nodes = (
(160,0,l),
(160,266,l),
(347,266,ls),
(457,266,o),
(492,242,o),
(492,162,cs),
(492,0,l),
(572,0,l),
(572,162,ls),
(572,277,o),
(506,298,o),
(401,302,c),
(404,297,l),
(505,305,o),
(582,354,o),
(582,465,cs),
(582,588,o),
(502,650,o),
(367,650,cs),
(80,650,l),
(80,0,l)
);
},
{
closed = 1;
nodes = (
(160,575,l),
(367,575,ls),
(458,575,o),
(502,535,o),
(502,465,cs),
(502,392,o),
(458,341,o),
(367,341,cs),
(160,341,l)
);
}
);
width = 642;
},
{
anchors = (
{
name = bottom;
pos = (589,-15);
},
{
name = top;
pos = (589,600);
}
);
layerId = "38E161BF-7670-40F4-B2BA-C78FC8454263";
shapes = (
{
closed = 1;
nodes = (
(320,0,l),
(320,180,l),
(711,180,ls),
(871,180,o),
(891,167,o),
(891,107,cs),
(891,0,l),
(1141,0,l),
(1141,137,ls),
(1141,225,o),
(1079,245,o),
(842,247,c),
(915,233,l),
(1046,239,o),
(1164,272,o),
(1164,420,cs),
(1164,585,o),
(1024,640,o),
(843,640,cs),
(70,640,l),
(70,0,l)
);
},
{
closed = 1;
nodes = (
(320,440,l),
(843,440,ls),
(883,440,o),
(914,430,o),
(914,395,cs),
(914,357,o),
(883,347,o),
(843,347,cs),
(320,347,l)
);
}
);
width = 1232;
},
{
anchors = (
{
name = bottom;
pos = (405,-5);
},
{
name = top;
pos = (408,634);
}
);
layerId = "3FBA4204-9B78-4099-9F7B-502DDE19710D";
shapes = (
{
closed = 1;
nodes = (
(210,0,l),
(210,239,l),
(461,239,ls),
(586,239,o),
(617,219,o),
(617,145,cs),
(617,0,l),
(750,0,l),
(750,154,ls),
(750,262,o),
(684,282,o),
(545,285,c),
(559,277,l),
(671,286,o),
(764,327,o),
(764,451,cs),
(764,587,o),
(665,647,o),
(516,647,cs),
(77,647,l),
(77,0,l)
);
},
{
closed = 1;
nodes = (
(210,533,l),
(516,533,ls),
(591,533,o),
(631,502,o),
(631,443,cs),
(631,381,o),
(591,343,o),
(516,343,cs),
(210,343,l)
);
}
);
width = 826;
}
);
metricLeft = H;
unicode = 82;
},
{
color = 6;
glyphname = S;
layers = (
{
anchors = (
{
name = bottom;
pos = (272,0);
},
{
name = top;
pos = (264,650);
}
);
background = {
anchors = (
{
name = bottom;
pos = (298.23,-9.868);
},
{
name = top;
pos = (274.977,661.897);
}
);
};
layerId = "BC735296-CD3A-4FA4-9AA9-EE2D747BC69E";
shapes = (
{
closed = 1;
nodes = (
(24,160,o),
(72,-10,o),
(286,-10,cs),
(435,-10,o),
(501,74,o),
(501,168,cs),
(501,298,o),
(395,334,o),
(310,362,cs),
(178,405,o),
(138,430,o),
(138,488,cs),
(138,554,o),
(197,585,o),
(265,585,cs),
(346,585,o),
(401,546,o),
(404,452,c),
(476,452,l),
(479,577,o),
(409,660,o),
(269,660,cs),
(134,660,o),
(58,577,o),
(58,487,cs),
(58,365,o),
(185,319,o),
(288,286,cs),
(370,260,o),
(421,237,o),
(421,172,cs),
(421,108,o),
(374,65,o),
(284,65,cs),
(180,65,o),
(113,127,o),
(108,211,c),
(36,211,l)
);
}
);
width = 541;
},
{
anchors = (
{
name = bottom;
pos = (545,-15);
},
{
name = top;
pos = (515,610);
}
);
background = {
shapes = (
{
pos = (-5.19,0);
ref = E;
}
);
};
layerId = "38E161BF-7670-40F4-B2BA-C78FC8454263";
shapes = (
{
closed = 1;
nodes = (
(35,76,o),
(227,-20,o),
(544,-20,cs),
(879,-20,o),
(1016,46,o),
(1016,198,cs),
(1016,316,o),
(910,370,o),
(624,370,cs),
(364,370,o),
(304,379,o),
(304,418,cs),
(304,456,o),
(370,471,o),
(509,471,cs),
(649,471,o),
(726,447,o),
(733,403,c),
(992,403,l),
(992,570,o),
(825,661,o),
(519,661,cs),
(204,661,o),
(50,588,o),
(50,437,cs),
(50,320,o),
(165,270,o),
(432,270,cs),
(700,270,o),
(772,260,o),
(772,222,cs),
(772,182,o),
(724,170,o),
(574,170,cs),
(421,170,o),
(321,193,o),
(308,235,c),
(35,235,l)
);
}
);
width = 1056;
},
{
anchors = (
{
name = bottom;
pos = (344,-5);
},
{
name = top;
pos = (339,638);
}
);
layerId = "3FBA4204-9B78-4099-9F7B-502DDE19710D";
shapes = (
{
closed = 1;
nodes = (
(26,133,o),
(126,-14,o),
(365,-14,cs),
(566,-14,o),
(654,62,o),
(654,180,cs),
(654,307,o),
(552,350,o),
(401,372,cs),
(237,397,o),
(190,415,o),
(190,464,cs),
(190,525,o),
(252,548,o),
(337,548,cs),
(429,548,o),
(496,515,o),
(501,437,c),
(631,437,l),
(633,575,o),
(529,660,o),
(342,660,cs),
(156,660,o),
(56,583,o),
(56,469,cs),
(56,347,o),
(180,294,o),
(327,273,cs),
(466,253,o),
(523,241,o),
(523,188,cs),
(523,132,o),
(475,98,o),
(374,98,cs),
(261,98,o),
(177,149,o),
(169,218,c),
(34,218,l)
);
}
);
width = 694;
}
);
unicode = 83;
},
{
color = 3;
glyphname = Scedilla;
layers = (
{
anchors = (
{
name = _bottom;
pos = (272,0);
}
);
layerId = "BC735296-CD3A-4FA4-9AA9-EE2D747BC69E";
shapes = (
{
closed = 1;
nodes = (
(137,-119,l),
(127,-176,o),
(172,-230,o),
(244,-230,cs),
(320,-230,o),
(355,-181,o),
(355,-133,cs),
(355,-74,o),
(319,-44,o),
(274,-32,c),
(232,-54,l),
(281,-75,o),
(291,-105,o),
(291,-126,cs),
(291,-143,o),
(282,-168,o),
(249,-168,cs),
(204,-168,o),
(197,-133,o),
(195,-119,c)
);
},
{
closed = 1;
nodes = (
(232,-54,l),
(313,-64,l),
(313,16,l),
(232,16,l)
);
},
{
ref = S;
}
);
width = 541;
},
{
anchors = (
{
name = _bottom;
pos = (545,-15);
}
);
layerId = "38E161BF-7670-40F4-B2BA-C78FC8454263";
shapes = (
{
closed = 1;
nodes = (
(253,-124,l),
(263,-201,o),
(348,-275,o),
(513,-275,cs),
(682,-275,o),
(777,-226,o),
(777,-153,cs),
(777,-92,o),
(710,-71,o),
(625,-57,c),
(460,-80,l),
(557,-93,o),
(565,-111,o),
(565,-127,cs),
(565,-144,o),
(545,-155,o),
(507,-155,cs),
(448,-155,o),
(432,-131,o),
(427,-124,c)
);
},
{
closed = 1;
nodes = (
(460,-80,l),
(630,-100,l),
(630,4,l),
(460,4,l)
);
},
{
ref = S;
}
);
width = 1056;
},
{
anchors = (
{
name = _bottom;
pos = (344,-5);
}
);
layerId = "3FBA4204-9B78-4099-9F7B-502DDE19710D";
shapes = (
{
closed = 1;
nodes = (
(155,-121,l),
(151,-184,o),
(209,-244,o),
(310,-244,cs),
(415,-244,o),
(468,-195,o),
(468,-139,cs),
(468,-80,o),
(422,-52,o),
(366,-41,c),
(285,-69,l),
(352,-82,o),
(358,-108,o),
(358,-122,cs),
(358,-144,o),
(344,-162,o),
(307,-162,cs),
(260,-162,o),
(252,-132,o),
(249,-121,c)
);
},
{
closed = 1;
nodes = (
(285,-69,l),
(394,-76,l),
(394,12,l),
(285,12,l)
);
},
{
ref = S;
}
);
width = 694;
}
);
metricLeft = S;
metricRight = S;
unicode = 350;
},
{
color = 6;
glyphname = T;
kernLeft = T;
kernRight = T;
layers = (
{
anchors = (
{
name = bottom;
pos = (275,0);
},
{
name = center;
pos = (275,340);
},
{
name = top;
pos = (275,650);
}
);
layerId = "BC735296-CD3A-4FA4-9AA9-EE2D747BC69E";
shapes = (
{
closed = 1;
nodes = (
(15,575,l),
(535,575,l),
(535,650,l),
(15,650,l)
);
},
{
closed = 1;
nodes = (
(235,0,l),
(315,0,l),
(315,583,l),
(235,583,l)
);
}
);
width = 550;
},
{
anchors = (
{
name = bottom;
pos = (550,0);
},
{
name = center;
pos = (550,340);
},
{
name = top;
pos = (550,600);
}
);
layerId = "38E161BF-7670-40F4-B2BA-C78FC8454263";
shapes = (
{
closed = 1;
nodes = (
(30,450,l),
(1070,450,l),
(1070,640,l),
(30,640,l)
);
},
{
closed = 1;
nodes = (
(425,0,l),
(675,0,l),
(675,463,l),
(425,463,l)
);
}
);
width = 1100;
},
{
anchors = (
{
name = bottom;
pos = (361,0);
},
{
name = center;
pos = (361,340);
},
{
name = top;
pos = (361,634);
}
);
layerId = "3FBA4204-9B78-4099-9F7B-502DDE19710D";
shapes = (
{
closed = 1;
nodes = (
(20,536,l),
(702,536,l),
(702,647,l),
(20,647,l)
);
},
{
closed = 1;
nodes = (
(295,0,l),
(428,0,l),
(428,550,l),
(295,550,l)
);
}
);
width = 722;
}
);
unicode = 84;
},
{
color = 3;
glyphname = Tbar;
layers = (
{
layerId = "BC735296-CD3A-4FA4-9AA9-EE2D747BC69E";
shapes = (
{
closed = 1;
nodes = (
(475,287,l),
(475,362,l),
(75,362,l),
(75,287,l)
);
},
{
ref = T;
}
);
width = 550;
},
{
layerId = "38E161BF-7670-40F4-B2BA-C78FC8454263";
shapes = (
{
closed = 1;
nodes = (
(1010,283,l),
(1010,358,l),
(90,358,l),
(90,283,l)
);
},
{
ref = T;
}
);
width = 1100;
},
{
layerId = "3FBA4204-9B78-4099-9F7B-502DDE19710D";
shapes = (
{
closed = 1;
nodes = (
(642,286,l),
(642,361,l),
(80,361,l),
(80,286,l)
);
},
{
alignment = -1;
ref = T;
}
);
width = 722;
}
);
metricLeft = T;
metricRight = T;
unicode = 358;
},
{
color = 3;
glyphname = Tcedilla;
kernLeft = T;
kernRight = T;
layers = (
{
anchors = (
{
name = _bottom;
pos = (275,0);
}
);
layerId = "BC735296-CD3A-4FA4-9AA9-EE2D747BC69E";
shapes = (
{
closed = 1;
nodes = (
(140,-119,l),
(130,-176,o),
(175,-230,o),
(247,-230,cs),
(323,-230,o),
(358,-181,o),
(358,-133,cs),
(358,-74,o),
(322,-44,o),
(277,-32,c),
(235,-54,l),
(284,-75,o),
(294,-105,o),
(294,-126,cs),
(294,-143,o),
(285,-168,o),
(252,-168,cs),
(207,-168,o),
(200,-133,o),
(198,-119,c)
);
},
{
closed = 1;
nodes = (
(235,-54,l),
(316,-64,l),
(316,16,l),
(235,16,l)
);
},
{
ref = T;
}
);
width = 550;
},
{
anchors = (
{
name = _bottom;
pos = (550,0);
}
);
layerId = "38E161BF-7670-40F4-B2BA-C78FC8454263";
shapes = (
{
closed = 1;
nodes = (
(258,-109,l),
(268,-186,o),
(353,-260,o),
(518,-260,cs),
(687,-260,o),
(782,-211,o),
(782,-138,cs),
(782,-77,o),
(715,-56,o),
(630,-42,c),
(465,-65,l),
(562,-78,o),
(570,-96,o),
(570,-112,cs),
(570,-129,o),
(550,-140,o),
(512,-140,cs),
(453,-140,o),
(437,-116,o),
(432,-109,c)
);
},
{
closed = 1;
nodes = (
(465,-65,l),
(635,-85,l),
(635,19,l),
(465,19,l)
);
},
{
ref = T;
}
);
width = 1100;
},
{
anchors = (
{
name = _bottom;
pos = (361,0);
}
);
layerId = "3FBA4204-9B78-4099-9F7B-502DDE19710D";
shapes = (
{
closed = 1;
nodes = (
(172,-116,l),
(168,-179,o),
(226,-239,o),
(327,-239,cs),
(432,-239,o),
(485,-190,o),
(485,-134,cs),
(485,-75,o),
(439,-47,o),
(383,-36,c),
(302,-64,l),
(369,-77,o),
(375,-103,o),
(375,-117,cs),
(375,-139,o),
(361,-157,o),
(324,-157,cs),
(277,-157,o),
(269,-127,o),
(266,-116,c)
);
},
{
closed = 1;
nodes = (
(302,-64,l),
(411,-71,l),
(411,17,l),
(302,17,l)
);
},
{
ref = T;
}
);
width = 722;
}
);
metricLeft = T;
metricRight = T;
unicode = 354;
},
{
color = 6;
glyphname = U;
layers = (
{
anchors = (
{
name = bottom;
pos = (347,0);
},
{
name = ogonek;
pos = (570,0);
},
{
name = top;
pos = (349,650);
},
{
name = topright;
pos = (648,680);
}
);
background = {
shapes = (
{
pos = (-10,0);
ref = H;
}
);
};
layerId = "BC735296-CD3A-4FA4-9AA9-EE2D747BC69E";
shapes = (
{
closed = 1;
nodes = (
(535,100,o),
(448,65,o),
(349,65,cs),
(247,65,o),
(160,100,o),
(160,250,cs),
(160,650,l),
(80,650,l),
(80,250,ls),
(80,66,o),
(192,-10,o),
(349,-10,cs),
(503,-10,o),
(615,66,o),
(615,250,cs),
(615,650,l),
(535,650,l),
(535,250,ls)
);
}
);
width = 695;
},
{
anchors = (
{
name = bottom;
pos = (645,-15);
},
{
name = ogonek;
pos = (1100,-15);
},
{
name = top;
pos = (645,600);
},
{
name = topright;
pos = (1226,680);
}
);
background = {
shapes = (
{
pos = (-25,0);
ref = O;
}
);
};
layerId = "38E161BF-7670-40F4-B2BA-C78FC8454263";
shapes = (
{
closed = 1;
nodes = (
(969,205,o),
(843,170,o),
(645,170,cs),
(441,170,o),
(320,205,o),
(320,365,cs),
(320,640,l),
(70,640,l),
(70,320,ls),
(70,36,o),
(341,-20,o),
(645,-20,cs),
(932,-20,o),
(1219,36,o),
(1219,320,cs),
(1219,640,l),
(969,640,l),
(969,365,ls)
);
}
);
width = 1289;
},
{
anchors = (
{
name = bottom;
pos = (440,-5);
},
{
name = ogonek;
pos = (736,-5);
},
{
name = top;
pos = (442,634);
},
{
name = topright;
pos = (829,680);
}
);
layerId = "3FBA4204-9B78-4099-9F7B-502DDE19710D";
shapes = (
{
closed = 1;
nodes = (
(671,134,o),
(571,102,o),
(442,102,cs),
(308,102,o),
(210,134,o),
(210,286,cs),
(210,647,l),
(77,647,l),
(77,272,ls),
(77,57,o),
(239,-13,o),
(442,-13,cs),
(637,-13,o),
(804,57,o),
(804,272,cs),
(804,647,l),
(671,647,l),
(671,286,ls)
);
}
);
width = 881;
}
);
metricLeft = H;
metricRight = H;
unicode = 85;
},
{
color = 3;
glyphname = Uogonek;
layers = (
{
anchors = (
{
name = _ogonek;
pos = (428,0);
}
);
layerId = "BC735296-CD3A-4FA4-9AA9-EE2D747BC69E";
shapes = (
{
closed = 1;
nodes = (
(488,-160,l),
(423,-160,o),
(389,-130,o),
(389,-85,cs),
(389,-40,o),
(426,-10,o),
(468,9,c),
(468,31,l),
(389,12,o),
(324,-21,o),
(324,-95,cs),
(324,-169,o),
(389,-215,o),
(488,-215,c)
);
},
{
ref = U;
}
);
width = 695;
},
{
anchors = (
{
name = _ogonek;
pos = (751,-15);
}
);
layerId = "38E161BF-7670-40F4-B2BA-C78FC8454263";
shapes = (
{
closed = 1;
nodes = (
(983,-157,l),
(893,-157,o),
(814,-135,o),
(814,-80,cs),
(814,-36,o),
(858,-15,o),
(942,10,c),
(942,22,l),
(764,-3,o),
(634,-26,o),
(634,-120,cs),
(634,-204,o),
(765,-255,o),
(983,-255,c)
);
},
{
ref = U;
}
);
width = 1289;
},
{
anchors = (
{
name = _ogonek;
pos = (529,-5);
}
);
layerId = "3FBA4204-9B78-4099-9F7B-502DDE19710D";
shapes = (
{
closed = 1;
nodes = (
(643,-159,l),
(570,-159,o),
(522,-132,o),
(522,-83,cs),
(522,-39,o),
(561,-12,o),
(616,9,c),
(616,28,l),
(506,7,o),
(421,-23,o),
(421,-103,cs),
(421,-180,o),
(507,-228,o),
(643,-228,c)
);
},
{
alignment = -1;
ref = U;
}
);
width = 881;
}
);
metricLeft = U;
metricRight = U;
unicode = 370;
},
{
color = 6;
glyphname = V;
kernLeft = V;
kernRight = V;
layers = (
{
anchors = (
{
name = bottom;
pos = (300,0);
},
{
name = top;
pos = (300,680);
}
);
layerId = "BC735296-CD3A-4FA4-9AA9-EE2D747BC69E";
shapes = (
{
closed = 1;
nodes = (
(343,0,l),
(580,650,l),
(496,650,l),
(289,80,l),
(313,80,l),
(106,650,l),
(20,650,l),
(259,0,l)
);
}
);
width = 600;
},
{
anchors = (
{
name = bottom;
pos = (580,0);
},
{
name = top;
pos = (580,680);
}
);
background = {
shapes = (
{
pos = (0,640);
ref = A;
scale = (1,-1);
}
);
};
layerId = "38E161BF-7670-40F4-B2BA-C78FC8454263";
shapes = (
{
closed = 1;
nodes = (
(756,0,l),
(1140,640,l),
(862,640,l),
(531,25,l),
(633,25,l),
(302,640,l),
(20,640,l),
(408,0,l)
);
}
);
width = 1160;
},
{
anchors = (
{
name = bottom;
pos = (388,0);
},
{
name = top;
pos = (388,680);
}
);
layerId = "3FBA4204-9B78-4099-9F7B-502DDE19710D";
shapes = (
{
closed = 1;
nodes = (
(472,0,l),
(755,647,l),
(610,647,l),
(366,63,l),
(412,63,l),
(167,647,l),
(20,647,l),
(306,0,l)
);
}
);
width = 775;
}
);
unicode = 86;
},
{
color = 6;
glyphname = W;
kernLeft = V;
kernRight = V;
layers = (
{
anchors = (
{
name = bottom;
pos = (450,0);
},
{
name = top;
pos = (520,650);
}
);
layerId = "BC735296-CD3A-4FA4-9AA9-EE2D747BC69E";
shapes = (
{
closed = 1;
nodes = (
(338,0,l),
(530,584,l),
(508,584,l),
(700,0,l),
(784,0,l),
(1016,650,l),
(932,650,l),
(731,86,l),
(755,86,l),
(562,650,l),
(476,650,l),
(283,86,l),
(307,86,l),
(106,650,l),
(20,650,l),
(254,0,l)
);
}
);
width = 1036;
},
{
anchors = (
{
name = bottom;
pos = (950,0);
},
{
name = top;
pos = (950,650);
}
);
background = {
shapes = (
{
pos = (812.195,0);
ref = V;
},
{
pos = (-90,0);
ref = V;
}
);
};
layerId = "38E161BF-7670-40F4-B2BA-C78FC8454263";
shapes = (
{
closed = 1;
nodes = (
(716,0,l),
(992,539,l),
(894,539,l),
(1170,0,l),
(1508,0,l),
(1862,640,l),
(1584,640,l),
(1282,45,l),
(1377,43,l),
(1094,640,l),
(792,640,l),
(509,43,l),
(604,45,l),
(302,640,l),
(20,640,l),
(378,0,l)
);
}
);
width = 1882;
},
{
anchors = (
{
name = bottom;
pos = (606,0);
},
{
name = top;
pos = (654,650);
}
);
layerId = "3FBA4204-9B78-4099-9F7B-502DDE19710D";
shapes = (
{
closed = 1;
nodes = (
(456,0,l),
(673,561,l),
(631,561,l),
(847,0,l),
(1010,0,l),
(1280,647,l),
(1136,647,l),
(905,74,l),
(948,73,l),
(728,647,l),
(575,647,l),
(355,73,l),
(398,74,l),
(167,647,l),
(20,647,l),
(293,0,l)
);
}
);
width = 1300;
}
);
metricLeft = V;
metricRight = V;
unicode = 87;
},
{
color = 6;
glyphname = X;
layers = (
{
anchors = (
{
name = bottom;
pos = (308,0);
},
{
name = top;
pos = (308,680);
}
);
layerId = "BC735296-CD3A-4FA4-9AA9-EE2D747BC69E";
shapes = (
{
closed = 1;
nodes = (
(289,368,l),
(287,366,l),
(43,0,l),
(133,0,l),
(331,301,l),
(333,304,l),
(573,650,l),
(483,650,l)
);
},
{
closed = 1;
nodes = (
(53,650,l),
(282,305,l),
(284,303,l),
(473,0,l),
(573,0,l),
(330,367,l),
(329,369,l),
(143,650,l)
);
}
);
width = 616;
},
{
anchors = (
{
name = bottom;
pos = (560,0);
},
{
name = top;
pos = (560,680);
}
);
layerId = "38E161BF-7670-40F4-B2BA-C78FC8454263";
shapes = (
{
closed = 1;
nodes = (
(507,400,l),
(500,394,l),
(30,0,l),
(350,0,l),
(640,252,l),
(650,260,l),
(1100,640,l),
(780,640,l)
);
},
{
closed = 1;
nodes = (
(40,640,l),
(484,265,l),
(488,261,l),
(790,0,l),
(1110,0,l),
(647,387,l),
(641,393,l),
(360,640,l)
);
}
);
width = 1140;
},
{
anchors = (
{
name = bottom;
pos = (387,0);
},
{
name = top;
pos = (387,680);
}
);
layerId = "3FBA4204-9B78-4099-9F7B-502DDE19710D";
shapes = (
{
closed = 1;
nodes = (
(357,378,l),
(354,375,l),
(39,0,l),
(201,0,l),
(428,286,l),
(432,290,l),
(738,647,l),
(576,647,l)
);
},
{
closed = 1;
nodes = (
(49,647,l),
(345,292,l),
(348,290,l),
(572,0,l),
(741,0,l),
(429,373,l),
(427,376,l),
(211,647,l)
);
}
);
width = 780;
}
);
unicode = 88;
},
{
color = 6;
glyphname = Y;
kernLeft = Y;
kernRight = Y;
layers = (
{
anchors = (
{
name = bottom;
pos = (295,0);
},
{
name = top;
pos = (295,650);
},
{
name = topleft;
pos = (12,680);
}
);
layerId = "BC735296-CD3A-4FA4-9AA9-EE2D747BC69E";
shapes = (
{
closed = 1;
nodes = (
(475,650,l),
(281,275,l),
(313,275,l),
(115,650,l),
(25,650,l),
(255,223,l),
(255,0,l),
(335,0,l),
(335,223,l),
(565,650,l)
);
}
);
width = 590;
},
{
anchors = (
{
name = bottom;
pos = (535,0);
},
{
name = top;
pos = (535,600);
},
{
name = topleft;
pos = (-31,680);
}
);
background = {
shapes = (
{
closed = 1;
nodes = (
(790,640,l),
(443.606,225.329,l),
(628.998,225.484,l),
(280,640,l),
(-5,640,l),
(410,172.711,l),
(410,0,l),
(660,0,l),
(660,172.711,l),
(1075,640,l)
);
}
);
};
layerId = "38E161BF-7670-40F4-B2BA-C78FC8454263";
shapes = (
{
closed = 1;
nodes = (
(770,640,l),
(444,225,l),
(629,225,l),
(300,640,l),
(5,640,l),
(410,163,l),
(410,0,l),
(660,0,l),
(660,163,l),
(1065,640,l)
);
}
);
width = 1070;
},
{
anchors = (
{
name = bottom;
pos = (370,0);
},
{
name = top;
pos = (370,634);
},
{
name = topleft;
pos = (-1,680);
}
);
layerId = "3FBA4204-9B78-4099-9F7B-502DDE19710D";
shapes = (
{
closed = 1;
nodes = (
(567,647,l),
(332,260,l),
(412,260,l),
(173,647,l),
(19,647,l),
(303,204,l),
(303,0,l),
(437,0,l),
(437,204,l),
(721,647,l)
);
}
);
width = 740;
}
);
unicode = 89;
},
{
color = 6;
glyphname = Z;
layers = (
{
anchors = (
{
name = bottom;
pos = (325,0);
},
{
name = top;
pos = (325,650);
}
);
layerId = "BC735296-CD3A-4FA4-9AA9-EE2D747BC69E";
shapes = (
{
closed = 1;
nodes = (
(60,575,l),
(525,575,l),
(512,602,l),
(60,75,l),
(60,0,l),
(590,0,l),
(590,75,l),
(127,75,l),
(140,48,l),
(590,575,l),
(590,650,l),
(60,650,l)
);
}
);
width = 650;
},
{
anchors = (
{
name = bottom;
pos = (600,0);
},
{
name = top;
pos = (600,650);
}
);
background = {
shapes = (
{
pos = (-40,0);
ref = E;
}
);
};
layerId = "38E161BF-7670-40F4-B2BA-C78FC8454263";
shapes = (
{
closed = 1;
nodes = (
(70,450,l),
(809,450,l),
(801,491,l),
(70,190,l),
(70,0,l),
(1130,0,l),
(1130,190,l),
(394,190,l),
(402,149,l),
(1130,450,l),
(1130,640,l),
(70,640,l)
);
}
);
width = 1200;
},
{
anchors = (
{
name = bottom;
pos = (411,0);
},
{
name = top;
pos = (411,650);
}
);
layerId = "3FBA4204-9B78-4099-9F7B-502DDE19710D";
shapes = (
{
closed = 1;
nodes = (
(63,536,l),
(652,536,l),
(640,573,l),
(63,111,l),
(63,0,l),
(758,0,l),
(758,111,l),
(169,111,l),
(181,74,l),
(758,536,l),
(758,647,l),
(63,647,l)
);
}
);
width = 821;
}
);
unicode = 90;
},
{
color = 3;
glyphname = T_h;
layers = (
{
anchors = (
{
name = caret_1;
pos = (519,0);
}
);
layerId = "BC735296-CD3A-4FA4-9AA9-EE2D747BC69E";
shapes = (
{
closed = 1;
nodes = (
(533,0,l),
(613,0,l),
(613,650,l),
(533,650,l)
);
},
{
closed = 1;
nodes = (
(877,0,l),
(957,0,l),
(957,332,l),
(877,312,l)
);
},
{
closed = 1;
nodes = (
(957,472,o),
(861,510,o),
(783,510,cs),
(633,510,o),
(612,364,o),
(607,325,c),
(608,267,l),
(616,337,o),
(665,430,o),
(767,430,cs),
(830,430,o),
(877,402,o),
(877,312,c),
(957,332,l)
);
},
{
ref = T;
}
);
width = 1022;
},
{
anchors = (
{
name = caret_1;
pos = (897,0);
}
);
layerId = "38E161BF-7670-40F4-B2BA-C78FC8454263";
shapes = (
{
closed = 1;
nodes = (
(1030,0,l),
(1270,0,l),
(1270,640,l),
(1030,640,l)
);
},
{
closed = 1;
nodes = (
(1698,0,l),
(1938,0,l),
(1938,302,l),
(1698,202,l)
);
},
{
closed = 1;
nodes = (
(1938,472,o),
(1786,525,o),
(1630,525,cs),
(1380,525,o),
(1268,374,o),
(1258,335,c),
(1260,287,l),
(1302,310,o),
(1393,340,o),
(1488,340,cs),
(1654,340,o),
(1698,292,o),
(1698,202,c),
(1938,302,l)
);
},
{
ref = T;
}
);
width = 1983;
},
{
anchors = (
{
name = caret_1;
pos = (600,0);
}
);
layerId = "3FBA4204-9B78-4099-9F7B-502DDE19710D";
shapes = (
{
closed = 1;
nodes = (
(688,0,l),
(818,0,l),
(818,647,l),
(688,647,l)
);
},
{
closed = 1;
nodes = (
(1134,0,l),
(1264,0,l),
(1264,323,l),
(1134,278,l)
);
},
{
closed = 1;
nodes = (
(1264,472,o),
(1150,515,o),
(1048,515,cs),
(866,515,o),
(817,367,o),
(810,328,c),
(812,273,l),
(830,328,o),
(892,402,o),
(992,402,cs),
(1088,402,o),
(1134,368,o),
(1134,278,c),
(1264,323,l)
);
},
{
alignment = -1;
ref = T;
}
);
width = 1322;
}
);
metricLeft = T;
metricRight = h;
},
{
color = 6;
glyphname = a;
kernLeft = o;
kernRight = a;
layers = (
{
anchors = (
{
name = bottom;
pos = (185,-10);
},
{
name = center;
pos = (269,250);
},
{
name = ogonek;
pos = (463,0);
},
{
name = top;
pos = (281,510);
},
{
name = topright;
pos = (564,500);
}
);
background = {
shapes = (
{
closed = 1;
nodes = (
(313,67.779,o),
(187,65.779,o),
(187,65.779,cs),
(123.26,65.779,o),
(82,75.361,o),
(82,138.779,cs),
(82,189.779,o),
(132,213.779,o),
(197,213.779,c),
(311,213.779,o),
(334,99.789,o),
(334,50.779,cs),
(334,33.779,o),
(332,65.779,o),
(332,67.779,c)
);
},
{
closed = 1;
nodes = (
(67.086,66.547,l),
(224.52,66.547,l),
(224.52,432.939,l),
(67.086,432.939,l)
);
}
);
};
layerId = "BC735296-CD3A-4FA4-9AA9-EE2D747BC69E";
shapes = (
{
closed = 1;
nodes = (
(400,-10,o),
(434,148,o),
(434,249,cs),
(434,392,o),
(404,510,o),
(264,510,cs),
(136,510,o),
(37,399,o),
(37,249,cs),
(37,98,o),
(136,-10,o),
(254,-10,cs)
);
},
{
closed = 1;
nodes = (
(183,66,o),
(117,142,o),
(117,249,cs),
(117,356,o),
(174,434,o),
(274,434,cs),
(374,434,o),
(424,359,o),
(424,249,cs),
(424,149,o),
(376,66,o),
(274,66,cs)
);
},
{
closed = 1;
nodes = (
(424,100,l),
(424,67,o),
(431,0,o),
(431,0,c),
(504,0,l),
(504,500,l),
(424,500,l)
);
}
);
width = 569;
},
{
anchors = (
{
name = bottom;
pos = (320,-10);
},
{
name = center;
pos = (488,250);
},
{
name = ogonek;
pos = (896,0);
},
{
name = top;
pos = (514,510);
},
{
name = topright;
pos = (1078,500);
}
);
background = {
anchors = (
{
name = bottom;
pos = (564,0);
},
{
name = top;
pos = (514,510);
}
);
shapes = (
{
closed = 1;
nodes = (
(778,490,l),
(778,0,l),
(1018,0,l),
(1018,490,l)
);
},
{
closed = 1;
nodes = (
(262,505,o),
(110,447,o),
(110,237,cs),
(110,0,l),
(350,0,l),
(350,207,ls),
(350,307,o),
(394,345,o),
(530,345,cs),
(639,345,o),
(742,303,o),
(788,272,c),
(790,310,l),
(780,359,o),
(668,505,o),
(418,505,cs)
);
}
);
};
layerId = "38E161BF-7670-40F4-B2BA-C78FC8454263";
shapes = (
{
closed = 1;
nodes = (
(648,-14,o),
(798,91,o),
(798,245,cs),
(798,400,o),
(648,505,o),
(408,505,cs),
(192,505,o),
(35,417,o),
(35,245,cs),
(35,81,o),
(192,-14,o),
(408,-14,cs)
);
},
{
closed = 1;
nodes = (
(362,138,o),
(284,174,o),
(284,245,cs),
(284,317,o),
(362,352,o),
(498,352,cs),
(650,352,o),
(778,330,o),
(778,245,cs),
(778,161,o),
(650,138,o),
(498,138,cs)
);
},
{
closed = 1;
nodes = (
(778,190,l),
(778,73,o),
(792,0,o),
(792,0,c),
(1018,0,l),
(1018,490,l),
(778,490,l)
);
}
);
width = 1063;
},
{
anchors = (
{
name = bottom;
pos = (227,-10);
},
{
name = center;
pos = (337,250);
},
{
name = ogonek;
pos = (599,0);
},
{
name = top;
pos = (344,510);
},
{
name = topright;
pos = (725,500);
}
);
layerId = "3FBA4204-9B78-4099-9F7B-502DDE19710D";
shapes = (
{
closed = 1;
nodes = (
(478,-11,o),
(548,130,o),
(548,248,cs),
(548,394,o),
(480,508,o),
(309,508,cs),
(154,508,o),
(36,405,o),
(36,248,cs),
(36,93,o),
(154,-11,o),
(302,-11,cs)
);
},
{
closed = 1;
nodes = (
(239,89,o),
(169,152,o),
(169,248,cs),
(169,344,o),
(233,407,o),
(344,407,cs),
(461,407,o),
(535,350,o),
(535,248,cs),
(535,153,o),
(462,89,o),
(344,89,cs)
);
},
{
closed = 1;
nodes = (
(535,128,l),
(535,69,o),
(544,0,o),
(544,0,c),
(665,0,l),
(665,497,l),
(535,497,l)
);
}
);
width = 723;
}
);
metricLeft = o;
metricRight = n;
unicode = 97;
},
{
color = 3;
glyphname = aogonek;
kernLeft = o;
kernRight = a;
layers = (
{
anchors = (
{
name = _ogonek;
pos = (463,0);
}
);
layerId = "BC735296-CD3A-4FA4-9AA9-EE2D747BC69E";
shapes = (
{
closed = 1;
nodes = (
(494,-160,l),
(429,-160,o),
(394,-130,o),
(394,-85,cs),
(394,-40,o),
(431,-10,o),
(473,0,c),
(473,22,l),
(394,12,o),
(329,-21,o),
(329,-95,cs),
(329,-169,o),
(395,-215,o),
(494,-215,c)
);
},
{
ref = a;
}
);
width = 569;
},
{
anchors = (
{
name = _ogonek;
pos = (895.996,0);
}
);
layerId = "38E161BF-7670-40F4-B2BA-C78FC8454263";
shapes = (
{
closed = 1;
nodes = (
(968,-142,l),
(878,-142,o),
(799,-120,o),
(799,-65,cs),
(799,-21,o),
(843,-10,o),
(927,0,c),
(927,22,l),
(749,12,o),
(619,-11,o),
(619,-105,cs),
(619,-189,o),
(750,-240,o),
(968,-240,c)
);
},
{
ref = a;
}
);
width = 1063;
},
{
anchors = (
{
name = _ogonek;
pos = (599,0);
}
);
layerId = "3FBA4204-9B78-4099-9F7B-502DDE19710D";
shapes = (
{
closed = 1;
nodes = (
(642,-154,l),
(569,-154,o),
(521,-127,o),
(521,-79,cs),
(521,-34,o),
(560,-10,o),
(615,0,c),
(615,22,l),
(505,12,o),
(420,-18,o),
(420,-98,cs),
(420,-175,o),
(506,-223,o),
(642,-223,c)
);
},
{
ref = a;
}
);
width = 723;
}
);
metricLeft = a;
metricRight = a;
unicode = 261;
},
{
color = 6;
glyphname = ae;
kernLeft = o;
kernRight = o;
layers = (
{
anchors = (
{
name = bottom;
pos = (430,0);
},
{
name = center;
pos = (269,250);
},
{
name = ogonek;
pos = (880,-2);
},
{
name = top;
pos = (430,500);
},
{
name = topright;
pos = (564,500);
}
);
layerId = "BC735296-CD3A-4FA4-9AA9-EE2D747BC69E";
shapes = (
{
closed = 1;
nodes = (
(400,-10,o),
(434,148,o),
(434,249,cs),
(434,392,o),
(404,510,o),
(264,510,cs),
(136,510,o),
(37,399,o),
(37,249,cs),
(37,98,o),
(136,-10,o),
(254,-10,cs)
);
},
{
closed = 1;
nodes = (
(183,66,o),
(117,142,o),
(117,249,cs),
(117,356,o),
(174,434,o),
(274,434,cs),
(374,434,o),
(424,359,o),
(424,249,cs),
(424,149,o),
(376,66,o),
(274,66,cs)
);
},
{
closed = 1;
nodes = (
(424,100,l),
(424,76,o),
(428,29,o),
(431,0,c),
(504,0,l),
(504,500,l),
(424,500,l)
);
},
{
closed = 1;
nodes = (
(839,102,o),
(789,63,o),
(721,63,cs),
(628,63,o),
(563,129,o),
(554,227,c),
(934,227,l),
(944,409,o),
(861,508,o),
(716,508,cs),
(577,508,o),
(474,397,o),
(474,247,cs),
(474,96,o),
(581,-12,o),
(721,-12,cs),
(837,-12,o),
(915,62,o),
(931,159,c),
(856,159,l)
);
},
{
closed = 1;
nodes = (
(788,433,o),
(846,387,o),
(852,299,c),
(559,299,l),
(578,381,o),
(636,433,o),
(719,433,cs)
);
}
);
width = 972;
},
{
anchors = (
{
name = bottom;
pos = (430,0);
},
{
name = center;
pos = (488,250);
},
{
name = ogonek;
pos = (1773,-2);
},
{
name = top;
pos = (430,500);
},
{
name = topright;
pos = (1078,500);
}
);
layerId = "38E161BF-7670-40F4-B2BA-C78FC8454263";
shapes = (
{
closed = 1;
nodes = (
(648,-14,o),
(798,91,o),
(798,245,cs),
(798,400,o),
(648,505,o),
(408,505,cs),
(192,505,o),
(35,417,o),
(35,245,cs),
(35,81,o),
(192,-14,o),
(408,-14,cs)
);
},
{
closed = 1;
nodes = (
(362,138,o),
(284,174,o),
(284,245,cs),
(284,317,o),
(362,352,o),
(498,352,cs),
(650,352,o),
(778,330,o),
(778,245,cs),
(778,161,o),
(650,138,o),
(498,138,cs)
);
},
{
closed = 1;
nodes = (
(778,190,l),
(778,105,o),
(786,31,o),
(792,0,c),
(1018,0,l),
(1018,490,l),
(778,490,l)
);
},
{
closed = 1;
nodes = (
(1627,144,o),
(1549,128,o),
(1434,128,cs),
(1268,128,o),
(1209,173,o),
(1200,225,c),
(1880,225,l),
(1884,430,o),
(1748,503,o),
(1444,503,cs),
(1134,503,o),
(956,434,o),
(956,242,cs),
(956,47,o),
(1142,-17,o),
(1444,-17,cs),
(1729,-17,o),
(1859,57,o),
(1878,174,c),
(1642,174,l)
);
},
{
closed = 1;
nodes = (
(1578,358,o),
(1637,323,o),
(1647,289,c),
(1207,289,l),
(1220,320,o),
(1293,358,o),
(1434,358,cs)
);
}
);
width = 1915;
},
{
anchors = (
{
name = bottom;
pos = (430,0);
},
{
name = center;
pos = (337,250);
},
{
name = ogonek;
pos = (1159,-2);
},
{
name = top;
pos = (430,500);
},
{
name = topright;
pos = (725,500);
}
);
layerId = "3FBA4204-9B78-4099-9F7B-502DDE19710D";
shapes = (
{
closed = 1;
nodes = (
(478,-11,o),
(548,130,o),
(548,248,cs),
(548,394,o),
(480,508,o),
(309,508,cs),
(154,508,o),
(36,405,o),
(36,248,cs),
(36,93,o),
(154,-11,o),
(302,-11,cs)
);
},
{
closed = 1;
nodes = (
(239,89,o),
(169,152,o),
(169,248,cs),
(169,344,o),
(233,407,o),
(344,407,cs),
(461,407,o),
(535,350,o),
(535,248,cs),
(535,153,o),
(462,89,o),
(344,89,cs)
);
},
{
closed = 1;
nodes = (
(535,128,l),
(535,85,o),
(540,30,o),
(544,0,c),
(665,0,l),
(665,497,l),
(535,497,l)
);
},
{
closed = 1;
nodes = (
(1085,118,o),
(1026,86,o),
(944,86,cs),
(831,86,o),
(765,145,o),
(755,222,c),
(1229,222,l),
(1238,415,o),
(1138,506,o),
(943,506,cs),
(751,506,o),
(624,409,o),
(624,245,cs),
(624,81,o),
(756,-14,o),
(947,-14,cs),
(1116,-14,o),
(1210,61,o),
(1227,163,c),
(1101,163,l)
);
},
{
closed = 1;
nodes = (
(1034,407,o),
(1093,364,o),
(1100,298,c),
(762,298,l),
(779,359,o),
(841,407,o),
(937,407,cs)
);
}
);
width = 1266;
}
);
metricLeft = a;
metricRight = e;
unicode = 230;
},
{
color = 6;
glyphname = b;
kernRight = o;
layers = (
{
anchors = (
{
name = bottom;
pos = (268,-10);
},
{
name = center;
pos = (315,250);
},
{
name = ogonek;
pos = (132,0);
},
{
name = top;
pos = (307,510);
},
{
name = topleft;
pos = (20,500);
}
);
background = {
shapes = (
{
pos = (570,0);
ref = a;
scale = (-1,1);
}
);
};
layerId = "BC735296-CD3A-4FA4-9AA9-EE2D747BC69E";
shapes = (
{
closed = 1;
nodes = (
(451,-10,o),
(547,98,o),
(547,249,cs),
(547,399,o),
(456,510,o),
(330,510,cs),
(180,510,o),
(150,392,o),
(150,249,cs),
(150,148,o),
(184,-10,o),
(330,-10,cs)
);
},
{
closed = 1;
nodes = (
(208,66,o),
(160,149,o),
(160,249,cs),
(160,359,o),
(210,434,o),
(310,434,cs),
(410,434,o),
(467,356,o),
(467,249,cs),
(467,142,o),
(401,66,o),
(310,66,cs)
);
},
{
closed = 1;
nodes = (
(80,700,l),
(80,0,l),
(153,0,l),
(156,29,o),
(160,76,o),
(160,100,c),
(160,700,l)
);
}
);
width = 584;
},
{
anchors = (
{
name = bottom;
pos = (536,-10);
},
{
name = center;
pos = (560,250);
},
{
name = ogonek;
pos = (194,0);
},
{
name = top;
pos = (614,510);
},
{
name = topleft;
pos = (-30,500);
}
);
background = {
shapes = (
{
pos = (570,0);
ref = a;
scale = (-1,1);
}
);
};
layerId = "38E161BF-7670-40F4-B2BA-C78FC8454263";
shapes = (
{
closed = 1;
nodes = (
(906,-14,o),
(1063,81,o),
(1063,245,cs),
(1063,417,o),
(906,505,o),
(690,505,cs),
(450,505,o),
(300,400,o),
(300,245,cs),
(300,91,o),
(450,-14,o),
(690,-14,cs)
);
},
{
closed = 1;
nodes = (
(448,138,o),
(320,161,o),
(320,245,cs),
(320,330,o),
(448,352,o),
(600,352,cs),
(736,352,o),
(814,317,o),
(814,245,cs),
(814,174,o),
(736,138,o),
(600,138,cs)
);
},
{
closed = 1;
nodes = (
(80,690,l),
(80,0,l),
(306,0,l),
(312,31,o),
(320,105,o),
(320,190,c),
(320,690,l)
);
}
);
width = 1098;
},
{
anchors = (
{
name = bottom;
pos = (352,-10);
},
{
name = center;
pos = (392,250);
},
{
name = ogonek;
pos = (151,0);
},
{
name = top;
pos = (403,510);
},
{
name = topleft;
pos = (4,500);
}
);
layerId = "3FBA4204-9B78-4099-9F7B-502DDE19710D";
shapes = (
{
closed = 1;
nodes = (
(593,-11,o),
(708,93,o),
(708,248,cs),
(708,405,o),
(596,508,o),
(443,508,cs),
(265,508,o),
(197,394,o),
(197,248,cs),
(197,130,o),
(267,-11,o),
(443,-11,cs)
);
},
{
closed = 1;
nodes = (
(283,89,o),
(210,153,o),
(210,248,cs),
(210,350,o),
(284,408,o),
(401,408,cs),
(512,408,o),
(575,344,o),
(575,248,cs),
(575,152,o),
(506,89,o),
(401,89,cs)
);
},
{
closed = 1;
nodes = (
(80,697,l),
(80,0,l),
(201,0,l),
(205,30,o),
(210,85,o),
(210,128,c),
(210,697,l)
);
}
);
width = 744;
}
);
metricRight = o;
unicode = 98;
},
{
color = 6;
glyphname = c;
kernLeft = o;
layers = (
{
anchors = (
{
name = bottom;
pos = (281,-10);
},
{
name = center;
pos = (281,250);
},
{
name = ogonek;
pos = (368,10);
},
{
name = top;
pos = (276,510);
},
{
name = topright;
pos = (545,500);
}
);
layerId = "BC735296-CD3A-4FA4-9AA9-EE2D747BC69E";
shapes = (
{
closed = 1;
nodes = (
(437,188,l),
(414,110,o),
(363,65,o),
(282,65,cs),
(194,65,o),
(117,132,o),
(117,249,cs),
(117,366,o),
(195,435,o),
(282,435,cs),
(353,435,o),
(413,389,o),
(436,313,c),
(509,313,l),
(493,435,o),
(395,510,o),
(282,510,cs),
(153,510,o),
(37,409,o),
(37,249,cs),
(37,88,o),
(153,-10,o),
(282,-10,cs),
(396,-10,o),
(494,64,o),
(509,188,c)
);
}
);
width = 546;
},
{
anchors = (
{
name = bottom;
pos = (518,-10);
},
{
name = center;
pos = (518,250);
},
{
name = ogonek;
pos = (692,10);
},
{
name = top;
pos = (508,510);
},
{
name = topright;
pos = (1046,500);
}
);
background = {
anchors = (
{
name = bottom;
pos = (508,-10);
},
{
name = center;
pos = (506,250);
},
{
name = ogonek;
pos = (680,10);
},
{
name = top;
pos = (508,510);
},
{
name = topright;
pos = (1034,500);
}
);
shapes = (
{
closed = 1;
nodes = (
(834,-15,o),
(989,68,o),
(989,254,cs),
(989,439,o),
(834,525,o),
(508,525,cs),
(180,525,o),
(23,439,o),
(23,254,cs),
(23,68,o),
(180,-15,o),
(508,-15,cs)
);
},
{
closed = 1;
nodes = (
(352,133,o),
(268,172,o),
(268,254,cs),
(268,336,o),
(354,376,o),
(508,376,cs),
(662,376,o),
(744,335,o),
(744,254,cs),
(744,172,o),
(660,133,o),
(508,133,cs)
);
}
);
};
layerId = "38E161BF-7670-40F4-B2BA-C78FC8454263";
shapes = (
{
closed = 1;
nodes = (
(739,213,l),
(717,160,o),
(640,130,o),
(520,130,cs),
(371,130,o),
(280,155,o),
(280,244,cs),
(280,333,o),
(373,360,o),
(520,360,cs),
(640,360,o),
(716,330,o),
(738,278,c),
(958,278,l),
(956,420,o),
(830,505,o),
(520,505,cs),
(210,505,o),
(35,434,o),
(35,244,cs),
(35,54,o),
(210,-15,o),
(520,-15,cs),
(830,-15,o),
(959,69,o),
(959,213,c)
);
}
);
width = 994;
},
{
anchors = (
{
name = bottom;
pos = (355,-10);
},
{
name = center;
pos = (355,250);
},
{
name = ogonek;
pos = (469,10);
},
{
name = top;
pos = (349,510);
},
{
name = topright;
pos = (702,500);
}
);
layerId = "3FBA4204-9B78-4099-9F7B-502DDE19710D";
shapes = (
{
closed = 1;
nodes = (
(531,196,l),
(509,127,o),
(449,88,o),
(356,88,cs),
(251,88,o),
(168,141,o),
(168,247,cs),
(168,354,o),
(252,408,o),
(356,408,cs),
(442,408,o),
(507,369,o),
(530,302,c),
(649,302,l),
(637,431,o),
(531,508,o),
(356,508,cs),
(171,508,o),
(36,417,o),
(36,247,cs),
(36,77,o),
(171,-12,o),
(356,-12,cs),
(532,-12,o),
(640,65,o),
(650,196,c)
);
}
);
width = 686;
}
);
metricLeft = o;
metricRight = o;
unicode = 99;
},
{
color = 3;
glyphname = ccedilla;
kernLeft = o;
layers = (
{
anchors = (
{
name = _bottom;
pos = (281,-10);
}
);
layerId = "BC735296-CD3A-4FA4-9AA9-EE2D747BC69E";
shapes = (
{
closed = 1;
nodes = (
(146,-129,l),
(136,-186,o),
(181,-240,o),
(253,-240,cs),
(329,-240,o),
(364,-191,o),
(364,-143,cs),
(364,-84,o),
(328,-54,o),
(283,-42,c),
(241,-64,l),
(290,-85,o),
(300,-115,o),
(300,-136,cs),
(300,-153,o),
(291,-178,o),
(258,-178,cs),
(213,-178,o),
(206,-143,o),
(204,-129,c)
);
},
{
closed = 1;
nodes = (
(241,-64,l),
(322,-74,l),
(322,6,l),
(241,6,l)
);
},
{
ref = c;
}
);
width = 546;
},
{
anchors = (
{
name = _bottom;
pos = (518,-10);
}
);
layerId = "38E161BF-7670-40F4-B2BA-C78FC8454263";
shapes = (
{
closed = 1;
nodes = (
(226,-119,l),
(236,-196,o),
(321,-270,o),
(486,-270,cs),
(655,-270,o),
(750,-221,o),
(750,-148,cs),
(750,-87,o),
(683,-66,o),
(598,-52,c),
(433,-75,l),
(530,-88,o),
(538,-106,o),
(538,-122,cs),
(538,-139,o),
(518,-150,o),
(480,-150,cs),
(421,-150,o),
(405,-126,o),
(400,-119,c)
);
},
{
closed = 1;
nodes = (
(433,-75,l),
(603,-95,l),
(603,9,l),
(433,9,l)
);
},
{
ref = c;
}
);
width = 994;
},
{
anchors = (
{
name = _bottom;
pos = (355,-10);
}
);
layerId = "3FBA4204-9B78-4099-9F7B-502DDE19710D";
shapes = (
{
closed = 1;
nodes = (
(166,-126,l),
(162,-189,o),
(220,-249,o),
(321,-249,cs),
(426,-249,o),
(479,-200,o),
(479,-144,cs),
(479,-85,o),
(433,-57,o),
(377,-46,c),
(296,-74,l),
(363,-87,o),
(369,-113,o),
(369,-127,cs),
(369,-149,o),
(355,-167,o),
(318,-167,cs),
(271,-167,o),
(263,-137,o),
(260,-126,c)
);
},
{
closed = 1;
nodes = (
(296,-74,l),
(405,-81,l),
(405,7,l),
(296,7,l)
);
},
{
ref = c;
}
);
width = 686;
}
);
metricLeft = c;
metricRight = c;
unicode = 231;
},
{
color = 6;
glyphname = d;
kernLeft = o;
kernRight = d;
layers = (
{
anchors = (
{
name = bottom;
pos = (266,-10);
},
{
name = center;
pos = (269,250);
},
{
name = ogonek;
pos = (452,0);
},
{
name = top;
pos = (262,510);
},
{
name = topright;
pos = (558,500);
}
);
background = {
shapes = (
{
ref = a;
}
);
};
layerId = "BC735296-CD3A-4FA4-9AA9-EE2D747BC69E";
shapes = (
{
closed = 1;
nodes = (
(400,-10,o),
(434,148,o),
(434,249,cs),
(434,392,o),
(404,510,o),
(254,510,cs),
(128,510,o),
(37,399,o),
(37,249,cs),
(37,98,o),
(133,-10,o),
(254,-10,cs)
);
},
{
closed = 1;
nodes = (
(183,66,o),
(117,142,o),
(117,249,cs),
(117,356,o),
(174,434,o),
(274,434,cs),
(374,434,o),
(424,359,o),
(424,249,cs),
(424,149,o),
(376,66,o),
(274,66,cs)
);
},
{
closed = 1;
nodes = (
(424,100,l),
(424,76,o),
(428,29,o),
(431,0,c),
(504,0,l),
(504,700,l),
(424,700,l)
);
}
);
width = 584;
},
{
anchors = (
{
name = bottom;
pos = (532,-10);
},
{
name = center;
pos = (538,250);
},
{
name = ogonek;
pos = (904,0);
},
{
name = top;
pos = (444,510);
},
{
name = topright;
pos = (1069,490);
}
);
background = {
anchors = (
{
name = bottom;
pos = (320,-10);
},
{
name = center;
pos = (488.086,250);
},
{
name = ogonek;
pos = (876.392,0);
},
{
name = top;
pos = (498,510);
},
{
name = topright;
pos = (1078,500);
}
);
shapes = (
{
closed = 1;
nodes = (
(648,-14,o),
(798,91,o),
(798,255,cs),
(798,420,o),
(648,525,o),
(408,525,cs),
(192.472,525,o),
(35,437.167,o),
(35,255,cs),
(35,81,o),
(192,-14,o),
(408,-14,cs)
);
},
{
closed = 1;
nodes = (
(372,138,o),
(284,174,o),
(284,255,cs),
(284,337,o),
(372,372,o),
(498,372,cs),
(650.366,372,o),
(778,350,o),
(778,255,cs),
(778,161,o),
(650.366,138,o),
(498,138,cs)
);
},
{
closed = 1;
nodes = (
(778,190,l),
(778,73,o),
(792,-4,o),
(792,-4,c),
(1018,0,l),
(1018,510,l),
(778,510,l)
);
}
);
};
layerId = "38E161BF-7670-40F4-B2BA-C78FC8454263";
shapes = (
{
closed = 1;
nodes = (
(648,-14,o),
(798,91,o),
(798,245,cs),
(798,400,o),
(648,505,o),
(408,505,cs),
(192,505,o),
(35,417,o),
(35,245,cs),
(35,81,o),
(192,-14,o),
(408,-14,cs)
);
},
{
closed = 1;
nodes = (
(362,138,o),
(284,174,o),
(284,245,cs),
(284,317,o),
(362,352,o),
(498,352,cs),
(650,352,o),
(778,330,o),
(778,245,cs),
(778,161,o),
(650,138,o),
(498,138,cs)
);
},
{
closed = 1;
nodes = (
(778,190,l),
(778,105,o),
(786,31,o),
(792,0,c),
(1018,0,l),
(1018,690,l),
(778,690,l)
);
}
);
width = 1098;
},
{
anchors = (
{
name = bottom;
pos = (349,-10);
},
{
name = center;
pos = (353,250);
},
{
name = ogonek;
pos = (593,0);
},
{
name = top;
pos = (344,510);
},
{
name = topright;
pos = (720,496);
}
);
layerId = "3FBA4204-9B78-4099-9F7B-502DDE19710D";
shapes = (
{
closed = 1;
nodes = (
(478,-11,o),
(548,130,o),
(548,248,cs),
(548,394,o),
(480,508,o),
(302,508,cs),
(148,508,o),
(36,405,o),
(36,248,cs),
(36,93,o),
(151,-11,o),
(302,-11,cs)
);
},
{
closed = 1;
nodes = (
(239,89,o),
(169,152,o),
(169,248,cs),
(169,344,o),
(233,408,o),
(344,408,cs),
(461,408,o),
(535,350,o),
(535,248,cs),
(535,153,o),
(462,89,o),
(344,89,cs)
);
},
{
closed = 1;
nodes = (
(535,128,l),
(535,85,o),
(540,30,o),
(544,0,c),
(665,0,l),
(665,697,l),
(535,697,l)
);
}
);
width = 745;
}
);
metricLeft = o;
unicode = 100;
},
{
color = 6;
glyphname = eth;
kernLeft = o;
layers = (
{
background = {
shapes = (
{
closed = 1;
nodes = (
(120.203,661.771,o),
(127.862,658.852,o),
(131.23,657.106,cs),
(165.581,639.293,l),
(196.117,624.026,ls),
(198.661,622.754,o),
(203.75,619.785,o),
(211.384,615.12,c),
(130.805,572.71,l),
(161.765,517.153,l),
(263.548,571.862,l),
(309.351,529.452,o),
(348.792,477.712,o),
(383.144,416.218,c),
(361.939,422.58,o),
(339.886,425.548,o),
(316.56,425.548,cs),
(192.3,425.548,o),
(95.181,330.126,o),
(95.181,206.714,cs),
(95.181,84.15,o),
(191.451,-10,o),
(316.984,-10,cs),
(380.175,-10,o),
(432.763,11.205,o),
(473.9,53.191,cs),
(515.464,95.611,o),
(535.819,150.309,o),
(535.819,215.62,cs),
(535.819,280.507,o),
(518.431,348.787,o),
(484.079,420.883,cs),
(450.548,491.256,o),
(401.804,554.474,o),
(340.734,610.879,c),
(420.04,653.289,l),
(386.536,708.421,l),
(286.449,655.833,l),
(267.365,667.284,ls),
(224.767,692.843,o),
(185.09,712.238,o),
(147.345,725.385,c),
(108.328,666.012,l)
);
},
{
closed = 1;
nodes = (
(192.724,286.02,o),
(242.343,339.881,o),
(315.288,339.881,cs),
(389.505,339.881,o),
(438.276,287.292,o),
(438.276,207.562,cs),
(438.276,127.408,o),
(389.929,75.244,o),
(315.288,75.244,cs),
(241.071,75.244,o),
(192.724,127.408,o),
(192.724,209.258,cs)
);
}
);
};
layerId = "BC735296-CD3A-4FA4-9AA9-EE2D747BC69E";
shapes = (
{
closed = 1;
nodes = (
(180,67,o),
(117,142,o),
(117,249,cs),
(117,356,o),
(174,433,o),
(274,433,cs),
(374,433,o),
(424,359,o),
(424,249,cs),
(424,149,o),
(376,67,o),
(274,67,cs)
);
},
{
closed = 1;
nodes = (
(256,618,l),
(296,568,l),
(397,662,l),
(353,710,l)
);
},
{
closed = 1;
nodes = (
(270,587,o),
(355,516,o),
(395,433,c),
(398,430,l),
(371,479,o),
(326,510,o),
(254,510,cs),
(127,510,o),
(37,399,o),
(37,249,cs),
(37,98,o),
(130,-10,o),
(274,-10,cs),
(430,-10,o),
(504,129,o),
(504,253,cs),
(504,412,o),
(440,600,o),
(147,710,c),
(118,642,l)
);
}
);
width = 549;
},
{
background = {
anchors = (
{
name = bottom;
pos = (532,-10);
},
{
name = center;
pos = (538.086,250);
},
{
name = ogonek;
pos = (904,0);
},
{
name = top;
pos = (524,510);
},
{
name = topright;
pos = (1128,500);
}
);
shapes = (
{
closed = 1;
nodes = (
(648,-14,o),
(798,91,o),
(798,245,cs),
(798,400,o),
(648,505,o),
(408,505,cs),
(192.472,505,o),
(35,417.167,o),
(35,245,cs),
(35,81,o),
(192,-14,o),
(408,-14,cs)
);
},
{
closed = 1;
nodes = (
(362,138,o),
(284,174,o),
(284,245,cs),
(284,317,o),
(362,352,o),
(498,352,cs),
(650.366,352,o),
(778,330,o),
(778,245,cs),
(778,161,o),
(650.366,138,o),
(498,138,cs)
);
},
{
closed = 1;
nodes = (
(778,190,l),
(778,73,o),
(792,0,o),
(792,0,c),
(1018,0,l),
(1018,689.992,l),
(778,689.992,l)
);
}
);
};
layerId = "38E161BF-7670-40F4-B2BA-C78FC8454263";
shapes = (
{
closed = 1;
nodes = (
(372,138,o),
(284,159,o),
(284,234,cs),
(284,301.994,o),
(372,327,o),
(508,327,cs),
(609,327,o),
(779,311,o),
(779,239,cs),
(779,149,o),
(623,138,o),
(518,138,cs)
);
},
{
closed = 1;
nodes = (
(708,531,l),
(785,450,l),
(988,623,l),
(909,705,l)
);
},
{
closed = 1;
nodes = (
(622,552,o),
(750,461,o),
(774,302,c),
(789,307,l),
(747,414,o),
(587,475,o),
(388,475,cs),
(193,475,o),
(35,417,o),
(35,245,cs),
(35,81,o),
(202,-15,o),
(498,-15,cs),
(726,-15,o),
(969,43,o),
(969,283,cs),
(969,426,o),
(841,705,o),
(256,705,c),
(256,552,l)
);
}
);
width = 1008;
},
{
layerId = "3FBA4204-9B78-4099-9F7B-502DDE19710D";
shapes = (
{
closed = 1;
nodes = (
(240,89,o),
(169,147,o),
(169,244,cs),
(169,339,o),
(236,400,o),
(347,400,cs),
(448,400,o),
(535,344,o),
(535,246,cs),
(535,149,o),
(453,89,o),
(350,89,cs)
);
},
{
closed = 1;
nodes = (
(397,591,l),
(449,531,l),
(582,650,l),
(527,709,l)
);
},
{
closed = 1;
nodes = (
(403,563,o),
(503,469,o),
(529,348,c),
(535,342,l),
(505,436,o),
(425,499,o),
(296,499,cs),
(148,499,o),
(36,405,o),
(36,248,cs),
(36,93,o),
(153,-12,o),
(344,-12,cs),
(523,-12,o),
(649,102,o),
(649,262,cs),
(649,416,o),
(565,633,o),
(181,709,c),
(161,614,l)
);
}
);
width = 692;
}
);
metricLeft = d;
unicode = 240;
},
{
color = 6;
glyphname = e;
kernLeft = o;
kernRight = o;
layers = (
{
anchors = (
{
name = bottom;
pos = (284,0);
},
{
name = ogonek;
pos = (443,0);
},
{
name = top;
pos = (279,510);
}
);
background = {
anchors = (
{
name = bottom;
pos = (279,-10);
},
{
name = center;
pos = (279,250);
},
{
name = ogonek;
pos = (366,10);
},
{
name = top;
pos = (274,510);
},
{
name = topright;
pos = (543,500);
}
);
shapes = (
{
closed = 1;
nodes = (
(434.719,188.229,l),
(411.935,110.027,o),
(345.639,68,o),
(280,68,cs),
(197,68,o),
(115,132,o),
(115,249,cs),
(115,366,o),
(198,432,o),
(280,432,cs),
(345.589,432,o),
(410.539,389.134,o),
(433.908,312.615,c),
(516.518,312.615,l),
(490.546,435.3,o),
(390.08,510,o),
(280,510,cs),
(151,510,o),
(35,409,o),
(35,249,cs),
(35,88,o),
(151,-10,o),
(280,-10,cs),
(390.988,-10,o),
(492.203,63.682,o),
(517.146,188.229,c)
);
}
);
};
layerId = "BC735296-CD3A-4FA4-9AA9-EE2D747BC69E";
shapes = (
{
closed = 1;
nodes = (
(402,104,o),
(352,65,o),
(284,65,cs),
(191,65,o),
(126,131,o),
(117,229,c),
(497,229,l),
(507,411,o),
(424,510,o),
(279,510,cs),
(140,510,o),
(37,399,o),
(37,249,cs),
(37,98,o),
(144,-10,o),
(284,-10,cs),
(400,-10,o),
(478,64,o),
(494,161,c),
(419,161,l)
);
},
{
closed = 1;
nodes = (
(351,435,o),
(409,389,o),
(415,301,c),
(122,301,l),
(141,383,o),
(199,435,o),
(282,435,cs)
);
}
);
width = 535;
},
{
anchors = (
{
name = bottom;
pos = (533,0);
},
{
name = ogonek;
pos = (852,0);
},
{
name = top;
pos = (513,510);
}
);
background = {
shapes = (
{
closed = 1;
nodes = (
(966.744,324.322,l),
(947.776,451.018,o),
(818.353,525,o),
(523,525,cs),
(211,525,o),
(25,461,o),
(25,256,cs),
(25,54,o),
(203,-15,o),
(523,-15,cs),
(836.551,-15,o),
(972.814,58.177,o),
(969,283,c),
(268.744,283,l),
(278.234,324.102,o),
(336.946,379,o),
(513,379,cs),
(638.294,379,o),
(705.889,352.879,o),
(721.412,324.322,c)
);
},
{
closed = 1;
nodes = (
(362.386,132,o),
(279.388,178.208,o),
(279.388,208,c),
(745.832,208,l),
(745.832,178.208,o),
(666.508,132,o),
(513,132,cs)
);
}
);
};
layerId = "38E161BF-7670-40F4-B2BA-C78FC8454263";
shapes = (
{
closed = 1;
nodes = (
(706,146,o),
(628,130,o),
(513,130,cs),
(347,130,o),
(288,175,o),
(279,227,c),
(959,227,l),
(963,432,o),
(827,505,o),
(523,505,cs),
(213,505,o),
(35,436,o),
(35,244,cs),
(35,49,o),
(221,-15,o),
(523,-15,cs),
(808,-15,o),
(938,59,o),
(957,176,c),
(721,176,l)
);
},
{
closed = 1;
nodes = (
(657,360,o),
(716,325,o),
(726,291,c),
(286,291,l),
(299,322,o),
(372,360,o),
(513,360,cs)
);
}
);
width = 994;
},
{
anchors = (
{
name = bottom;
pos = (362,0);
},
{
name = ogonek;
pos = (571,0);
},
{
name = top;
pos = (352,510);
}
);
layerId = "3FBA4204-9B78-4099-9F7B-502DDE19710D";
shapes = (
{
closed = 1;
nodes = (
(497,120,o),
(438,88,o),
(356,88,cs),
(243,88,o),
(177,147,o),
(167,224,c),
(641,224,l),
(650,417,o),
(550,508,o),
(355,508,cs),
(163,508,o),
(36,411,o),
(36,247,cs),
(36,83,o),
(168,-12,o),
(359,-12,cs),
(528,-12,o),
(622,63,o),
(639,165,c),
(513,165,l)
);
},
{
closed = 1;
nodes = (
(446,409,o),
(505,366,o),
(512,300,c),
(174,300,l),
(191,361,o),
(253,409,o),
(349,409,cs)
);
}
);
width = 678;
}
);
metricLeft = o;
metricRight = o;
unicode = 101;
},
{
color = 3;
glyphname = eogonek;
kernLeft = o;
kernRight = o;
layers = (
{
anchors = (
{
name = _ogonek;
pos = (393,0);
}
);
layerId = "BC735296-CD3A-4FA4-9AA9-EE2D747BC69E";
shapes = (
{
closed = 1;
nodes = (
(414,-160,l),
(349,-160,o),
(314,-130,o),
(314,-85,cs),
(314,-40,o),
(351,-10,o),
(393,17,c),
(393,39,l),
(314,12,o),
(249,-21,o),
(249,-95,cs),
(249,-169,o),
(315,-215,o),
(414,-215,c)
);
},
{
ref = e;
}
);
width = 535;
},
{
anchors = (
{
name = _ogonek;
pos = (852,0);
}
);
layerId = "38E161BF-7670-40F4-B2BA-C78FC8454263";
shapes = (
{
closed = 1;
nodes = (
(864,-142,l),
(774,-142,o),
(695,-120,o),
(695,-65,cs),
(695,-21,o),
(739,-3,o),
(823,30,c),
(823,52,l),
(645,12,o),
(515,-11,o),
(515,-105,cs),
(515,-189,o),
(646,-240,o),
(864,-240,c)
);
},
{
ref = e;
}
);
width = 994;
},
{
anchors = (
{
name = _ogonek;
pos = (537,0);
}
);
layerId = "3FBA4204-9B78-4099-9F7B-502DDE19710D";
shapes = (
{
closed = 1;
nodes = (
(555,-155,l),
(482,-155,o),
(433,-127,o),
(433,-79,cs),
(433,-34,o),
(473,-8,o),
(528,21,c),
(528,43,l),
(418,12,o),
(332,-18,o),
(332,-98,cs),
(332,-175,o),
(418,-223,o),
(555,-223,c)
);
},
{
alignment = -1;
ref = e;
}
);
width = 678;
}
);
metricLeft = e;
metricRight = e;
unicode = 281;
},
{
color = 6;
glyphname = f;
kernLeft = t;
kernRight = f;
layers = (
{
anchors = (
{
name = bottom;
pos = (197,0);
},
{
name = top;
pos = (197,500);
}
);
layerId = "BC735296-CD3A-4FA4-9AA9-EE2D747BC69E";
shapes = (
{
closed = 1;
nodes = (
(30,425,l),
(324,425,l),
(324,500,l),
(30,500,l)
);
},
{
closed = 1;
nodes = (
(189,700,o),
(119,650,o),
(119,530,cs),
(119,0,l),
(199,0,l),
(199,530,ls),
(199,601,o),
(239,621,o),
(289,620,cs),
(335,620,l),
(335,700,l),
(289,700,ls)
);
}
);
width = 347;
},
{
anchors = (
{
name = bottom;
pos = (379,0);
},
{
name = top;
pos = (379,500);
}
);
background = {
anchors = (
{
name = bottom;
pos = (314,0);
},
{
name = center;
pos = (302,250);
},
{
name = top;
pos = (312.682,639.109);
},
{
name = topright;
pos = (668,500);
}
);
shapes = (
{
closed = 1;
nodes = (
(20,330,l),
(608,330,l),
(608,510,l),
(20,510,l)
);
},
{
closed = 1;
nodes = (
(194,0,l),
(434,0,l),
(434,660,l),
(194,660,l)
);
}
);
};
layerId = "38E161BF-7670-40F4-B2BA-C78FC8454263";
shapes = (
{
closed = 1;
nodes = (
(20,310,l),
(654,310,l),
(654,460,l),
(20,460,l)
);
},
{
closed = 1;
nodes = (
(243,690,o),
(183,630,o),
(183,510,cs),
(183,0,l),
(423,0,l),
(423,460,ls),
(423,521,o),
(443,531,o),
(523,530,cs),
(654,530,l),
(654,690,l),
(423,690,ls)
);
}
);
width = 674;
},
{
anchors = (
{
name = bottom;
pos = (251.998,0);
},
{
name = top;
pos = (251.998,500);
}
);
layerId = "3FBA4204-9B78-4099-9F7B-502DDE19710D";
shapes = (
{
closed = 1;
nodes = (
(25,389,l),
(425,389,l),
(425,488,l),
(25,488,l)
);
},
{
closed = 1;
nodes = (
(204,697,o),
(137,644,o),
(137,524,cs),
(137,0,l),
(267,0,l),
(267,508,ls),
(267,576,o),
(301,593,o),
(360,592,cs),
(432,592,l),
(432,697,l),
(329,697,ls)
);
}
);
width = 446;
}
);
metricLeft = t;
unicode = 102;
},
{
color = 6;
glyphname = g;
kernLeft = o;
kernRight = g;
layers = (
{
anchors = (
{
name = bottom;
pos = (247,-210);
},
{
name = center;
pos = (243,250);
},
{
name = ogonek;
pos = (330,10);
},
{
name = top;
pos = (244,510);
},
{
name = topright;
pos = (507,500);
}
);
layerId = "BC735296-CD3A-4FA4-9AA9-EE2D747BC69E";
shapes = (
{
closed = 1;
nodes = (
(354,79,o),
(450,158,o),
(450,293,cs),
(450,369,o),
(416,429,o),
(347,467,c),
(351,463,l),
(391,440,o),
(452,414,o),
(509,414,c),
(509,500,l),
(306,500,l),
(287,507,o),
(266,510,o),
(244,510,cs),
(134,510,o),
(37,426,o),
(37,293,cs),
(37,158,o),
(137,79,o),
(244,79,cs)
);
},
{
closed = 1;
nodes = (
(471,-200,l),
(471,-158,l),
(471,-38,o),
(385,0,o),
(281,0,c),
(177,0,l),
(146,0,o),
(131,14,o),
(131,34,cs),
(131,68,o),
(172,75,o),
(244,79,c),
(196,90,l),
(133,100,o),
(51,84,o),
(51,8,cs),
(51,-46,o),
(92,-77,o),
(181,-77,c),
(281,-77,l),
(354,-77,o),
(391,-108,o),
(391,-178,c),
(391,-200,l)
);
},
{
closed = 1;
nodes = (
(178,154,o),
(117,203,o),
(117,293,cs),
(117,384,o),
(178,434,o),
(244,434,cs),
(310,434,o),
(370,383,o),
(370,293,cs),
(370,203,o),
(309,154,o),
(244,154,cs)
);
}
);
width = 538;
},
{
anchors = (
{
name = bottom;
pos = (454,-210);
},
{
name = center;
pos = (447,250);
},
{
name = ogonek;
pos = (621,10);
},
{
name = top;
pos = (449,510);
},
{
name = topright;
pos = (975,500);
}
);
background = {
anchors = (
{
name = bottom;
pos = (480.87,-10);
},
{
name = center;
pos = (478.87,250);
},
{
name = ogonek;
pos = (652.87,10);
},
{
name = top;
pos = (480.87,510);
},
{
name = topright;
pos = (1006.87,500);
}
);
shapes = (
{
closed = 1;
nodes = (
(806.87,-15,o),
(961.87,68,o),
(961.87,254,cs),
(961.87,439,o),
(806.87,525,o),
(480.87,525,cs),
(152.87,525,o),
(-4.13,439,o),
(-4.13,254,cs),
(-4.13,68,o),
(152.87,-15,o),
(480.87,-15,cs)
);
},
{
closed = 1;
nodes = (
(324.87,133,o),
(240.87,172,o),
(240.87,254,cs),
(240.87,336,o),
(326.87,376,o),
(480.87,376,cs),
(634.87,376,o),
(716.87,335,o),
(716.87,254,cs),
(716.87,172,o),
(632.87,133,o),
(480.87,133,cs)
);
},
{
closed = 1;
nodes = (
(335.328,221.61,o),
(280.687,243.963,o),
(280.687,294.258,cs),
(280.687,345.174,o),
(335.328,366.906,o),
(413.564,366.906,cs),
(508.171,366.906,o),
(587.422,353.245,o),
(587.422,294.258,cs),
(587.422,235.891,o),
(508.171,221.61,o),
(413.564,221.61,cs)
);
}
);
};
layerId = "38E161BF-7670-40F4-B2BA-C78FC8454263";
shapes = (
{
closed = 1;
nodes = (
(738,69,o),
(860,138,o),
(860,263,cs),
(860,348,o),
(774,397,o),
(684,426,c),
(695,411,l),
(770,390,o),
(862,375,o),
(949,379,c),
(949,505,l),
(567,505,l),
(528,505,o),
(488,505,o),
(449,505,c),
(158,505,o),
(35,416,o),
(35,283,cs),
(35,138,o),
(164,69,o),
(449,69,cs)
);
},
{
closed = 1;
nodes = (
(902,-215,l),
(902,-158,l),
(902,-38,o),
(840,0,o),
(642,0,c),
(347,0,l),
(317,0,o),
(299,8,o),
(299,27,cs),
(299,60,o),
(337,69,o),
(449,69,c),
(353,80,l),
(150,80,o),
(55,54,o),
(55,-32,cs),
(55,-86,o),
(83,-147,o),
(273,-147,c),
(552,-147,l),
(628,-147,o),
(662,-148,o),
(662,-188,c),
(662,-215,l)
);
},
{
closed = 1;
nodes = (
(314,200,o),
(263,235,o),
(263,279,cs),
(263,329,o),
(316,360,o),
(449,360,cs),
(583,360,o),
(632,329,o),
(632,279,cs),
(632,235,o),
(581,200,o),
(449,200,cs)
);
}
);
width = 969;
},
{
anchors = (
{
name = bottom;
pos = (312,-210);
},
{
name = center;
pos = (307,250);
},
{
name = ogonek;
pos = (421,10);
},
{
name = top;
pos = (308,510);
},
{
name = topright;
pos = (654,500);
}
);
layerId = "3FBA4204-9B78-4099-9F7B-502DDE19710D";
shapes = (
{
closed = 1;
nodes = (
(474,76,o),
(578,152,o),
(578,283,cs),
(578,362,o),
(515,414,o),
(447,447,c),
(450,440,l),
(503,418,o),
(578,397,o),
(646,398,c),
(646,496,l),
(395,497,l),
(367,504,o),
(338,508,o),
(308,508,cs),
(141,508,o),
(36,423,o),
(36,289,cs),
(36,152,o),
(145,76,o),
(308,76,cs)
);
},
{
closed = 1;
nodes = (
(605,-205,l),
(605,-158,l),
(605,-38,o),
(527,0,o),
(393,0,c),
(230,0,l),
(200,0,o),
(184,12,o),
(184,32,cs),
(184,65,o),
(224,73,o),
(308,76,c),
(245,87,l),
(138,94,o),
(52,75,o),
(52,-4,cs),
(52,-58,o),
(89,-99,o),
(210,-99,c),
(365,-99,l),
(433,-99,o),
(475,-120,o),
(475,-181,c),
(475,-205,l)
);
},
{
closed = 1;
nodes = (
(220,170,o),
(163,213,o),
(163,288,cs),
(163,364,o),
(221,409,o),
(308,409,cs),
(395,409,o),
(452,363,o),
(452,288,cs),
(452,213,o),
(394,170,o),
(308,170,cs)
);
}
);
width = 671;
}
);
metricLeft = o;
unicode = 103;
},
{
color = 6;
glyphname = h;
kernLeft = n;
kernRight = n;
layers = (
{
anchors = (
{
name = bottom;
pos = (289,0);
},
{
name = center;
pos = (289,250);
},
{
name = top;
pos = (324,510);
}
);
layerId = "BC735296-CD3A-4FA4-9AA9-EE2D747BC69E";
shapes = (
{
closed = 1;
nodes = (
(501,0,l),
(501,334,ls),
(501,443,o),
(436,510,o),
(329,510,cs),
(237,510,o),
(165,436,o),
(151,325,c),
(152,267,l),
(161,362,o),
(230,430,o),
(313,430,cs),
(385,430,o),
(421,391,o),
(421,314,cs),
(421,0,l)
);
},
{
closed = 1;
nodes = (
(157,0,l),
(157,700,l),
(77,700,l),
(77,0,l)
);
}
);
width = 566;
},
{
anchors = (
{
name = bottom;
pos = (509,0);
},
{
name = center;
pos = (179,565);
},
{
name = top;
pos = (559,510);
}
);
layerId = "38E161BF-7670-40F4-B2BA-C78FC8454263";
shapes = (
{
closed = 1;
nodes = (
(963,0,l),
(963,282,ls),
(963,452,o),
(811,505,o),
(655,505,cs),
(405,505,o),
(293,354,o),
(283,315,c),
(285,267,l),
(327,290,o),
(418,320,o),
(513,320,cs),
(679,320,o),
(723,272,o),
(723,182,cs),
(723,0,l)
);
},
{
closed = 1;
nodes = (
(295,0,l),
(295,690,l),
(55,690,l),
(55,0,l)
);
}
);
width = 1008;
},
{
anchors = (
{
name = bottom;
pos = (356,0);
},
{
name = center;
pos = (253,348);
},
{
name = top;
pos = (396,510);
}
);
layerId = "3FBA4204-9B78-4099-9F7B-502DDE19710D";
shapes = (
{
closed = 1;
nodes = (
(644,0,l),
(644,318,ls),
(644,446,o),
(552,508,o),
(430,508,cs),
(288,508,o),
(204,411,o),
(191,322,c),
(192,267,l),
(198,332,o),
(276,396,o),
(374,396,cs),
(475,396,o),
(514,354,o),
(514,273,cs),
(514,0,l)
);
},
{
closed = 1;
nodes = (
(199,0,l),
(199,697,l),
(69,697,l),
(69,0,l)
);
}
);
width = 702;
}
);
metricRight = n;
unicode = 104;
},
{
color = 6;
glyphname = i;
layers = (
{
anchors = (
{
name = bottom;
pos = (112,0);
},
{
name = ogonek;
pos = (160,0);
},
{
name = top;
pos = (112,510);
}
);
layerId = "BC735296-CD3A-4FA4-9AA9-EE2D747BC69E";
shapes = (
{
closed = 1;
nodes = (
(60,700,l),
(60,603,l),
(164,603,l),
(164,700,l)
);
},
{
closed = 1;
nodes = (
(72,0,l),
(152,0,l),
(152,500,l),
(72,500,l)
);
}
);
width = 224;
},
{
anchors = (
{
name = bottom;
pos = (181.999,0);
},
{
name = ogonek;
pos = (180,0);
},
{
name = top;
pos = (181.999,505);
}
);
layerId = "38E161BF-7670-40F4-B2BA-C78FC8454263";
shapes = (
{
closed = 1;
nodes = (
(55,747,l),
(55,597,l),
(309,597,l),
(309,747,l)
);
},
{
closed = 1;
nodes = (
(61.999,0,l),
(301.999,0,l),
(301.999,490,l),
(61.999,490,l)
);
}
);
width = 364;
},
{
anchors = (
{
name = bottom;
pos = (134,0);
},
{
name = ogonek;
pos = (193,0);
},
{
name = top;
pos = (134,508);
}
);
layerId = "3FBA4204-9B78-4099-9F7B-502DDE19710D";
shapes = (
{
closed = 1;
nodes = (
(58,715,l),
(58,601,l),
(209,601,l),
(209,715,l)
);
},
{
closed = 1;
nodes = (
(68,0,l),
(198,0,l),
(198,497,l),
(68,497,l)
);
}
);
width = 268;
}
);
metricLeft = idotless;
metricRight = idotless;
unicode = 105;
},
{
color = 6;
glyphname = idotless;
layers = (
{
anchors = (
{
name = bottom;
pos = (100,0);
},
{
name = ogonek;
pos = (148,0);
},
{
name = top;
pos = (100,510);
}
);
layerId = "BC735296-CD3A-4FA4-9AA9-EE2D747BC69E";
shapes = (
{
closed = 1;
nodes = (
(60,0,l),
(140,0,l),
(140,500,l),
(60,500,l)
);
}
);
width = 200;
},
{
anchors = (
{
name = bottom;
pos = (175,0);
},
{
name = ogonek;
pos = (173,0);
},
{
name = top;
pos = (175,505);
}
);
layerId = "38E161BF-7670-40F4-B2BA-C78FC8454263";
shapes = (
{
closed = 1;
nodes = (
(55,0,l),
(295,0,l),
(295,490,l),
(55,490,l)
);
}
);
width = 350;
},
{
anchors = (
{
name = bottom;
pos = (123,0);
},
{
name = ogonek;
pos = (182,0);
},
{
name = top;
pos = (123,508);
}
);
layerId = "3FBA4204-9B78-4099-9F7B-502DDE19710D";
shapes = (
{
closed = 1;
nodes = (
(58,0,l),
(188,0,l),
(188,497,l),
(58,497,l)
);
}
);
width = 247;
}
);
unicode = 305;
},
{
color = 3;
glyphname = iogonek;
layers = (
{
anchors = (
{
name = _ogonek;
pos = (115,0);
}
);
layerId = "BC735296-CD3A-4FA4-9AA9-EE2D747BC69E";
shapes = (
{
closed = 1;
nodes = (
(173,-160,l),
(108,-160,o),
(73,-130,o),
(73,-85,cs),
(73,-40,o),
(110,-10,o),
(152,0,c),
(152,22,l),
(73,12,o),
(8,-21,o),
(8,-95,cs),
(8,-169,o),
(74,-215,o),
(173,-215,c)
);
},
{
ref = i;
}
);
width = 224;
},
{
anchors = (
{
name = _ogonek;
pos = (179.996,0);
}
);
layerId = "38E161BF-7670-40F4-B2BA-C78FC8454263";
shapes = (
{
closed = 1;
nodes = (
(343,-142,l),
(253,-142,o),
(174,-120,o),
(174,-65,cs),
(174,-21,o),
(218,-10,o),
(302,0,c),
(302,22,l),
(124,12,o),
(-6,-11,o),
(-6,-105,cs),
(-6,-189,o),
(125,-240,o),
(343,-240,c)
);
},
{
ref = i;
}
);
width = 364;
},
{
anchors = (
{
name = _ogonek;
pos = (136,0);
}
);
layerId = "3FBA4204-9B78-4099-9F7B-502DDE19710D";
shapes = (
{
closed = 1;
nodes = (
(225,-154,l),
(152,-154,o),
(104,-127,o),
(104,-79,cs),
(104,-34,o),
(143,-10,o),
(198,0,c),
(198,22,l),
(88,12,o),
(3,-18,o),
(3,-98,cs),
(3,-175,o),
(89,-223,o),
(225,-223,c)
);
},
{
ref = i;
}
);
width = 268;
}
);
unicode = 303;
},
{
color = 6;
glyphname = j;
kernLeft = j;
layers = (
{
background = {
shapes = (
{
pos = (-2,0);
ref = i;
}
);
};
layerId = "BC735296-CD3A-4FA4-9AA9-EE2D747BC69E";
shapes = (
{
closed = 1;
nodes = (
(73,-200,l),
(153,-200,l),
(153,500,l),
(73,500,l)
);
},
{
closed = 1;
nodes = (
(60,700,l),
(60,603,l),
(164,603,l),
(164,700,l)
);
}
);
width = 224;
},
{
layerId = "38E161BF-7670-40F4-B2BA-C78FC8454263";
shapes = (
{
closed = 1;
nodes = (
(61.999,-200,l),
(301.999,-200,l),
(301.999,490,l),
(61.999,490,l)
);
},
{
closed = 1;
nodes = (
(55,747,l),
(55,597,l),
(309,597,l),
(309,747,l)
);
}
);
width = 364;
},
{
layerId = "3FBA4204-9B78-4099-9F7B-502DDE19710D";
shapes = (
{
closed = 1;
nodes = (
(70,-200,l),
(200,-200,l),
(200,497,l),
(70,497,l)
);
},
{
closed = 1;
nodes = (
(58,715,l),
(58,601,l),
(209,601,l),
(209,715,l)
);
}
);
width = 268;
}
);
metricLeft = i;
metricRight = i;
unicode = 106;
},
{
color = 6;
glyphname = k;
kernRight = k;
layers = (
{
anchors = (
{
name = bottom;
pos = (269,0);
},
{
name = top;
pos = (269,500);
}
);
layerId = "BC735296-CD3A-4FA4-9AA9-EE2D747BC69E";
shapes = (
{
closed = 1;
nodes = (
(77,0,l),
(157,0,l),
(157,700,l),
(77,700,l)
);
},
{
closed = 1;
nodes = (
(377,500,l),
(159,279,l),
(406,0,l),
(508,0,l),
(243,305,l),
(241,253,l),
(491,500,l)
);
}
);
width = 518;
},
{
anchors = (
{
name = bottom;
pos = (439,0);
},
{
name = top;
pos = (459,500);
}
);
layerId = "38E161BF-7670-40F4-B2BA-C78FC8454263";
shapes = (
{
closed = 1;
nodes = (
(55,0,l),
(295,0,l),
(295,690,l),
(55,690,l)
);
},
{
closed = 1;
nodes = (
(585,490,l),
(299,279,l),
(633,0,l),
(937,0,l),
(512,345,l),
(507,215,l),
(903,490,l)
);
}
);
width = 942;
},
{
anchors = (
{
name = bottom;
pos = (324,0);
},
{
name = top;
pos = (327,500);
}
);
layerId = "3FBA4204-9B78-4099-9F7B-502DDE19710D";
shapes = (
{
closed = 1;
nodes = (
(69,0,l),
(199,0,l),
(199,697,l),
(69,697,l)
);
},
{
closed = 1;
nodes = (
(441,497,l),
(202,279,l),
(476,0,l),
(641,0,l),
(325,316,l),
(322,236,l),
(618,497,l)
);
}
);
width = 649;
}
);
metricLeft = h;
unicode = 107;
},
{
color = 6;
glyphname = l;
layers = (
{
anchors = (
{
name = bottom;
pos = (116,0);
},
{
name = center;
pos = (121,371);
},
{
name = top;
pos = (118,700);
},
{
name = topright;
pos = (205,500);
}
);
background = {
shapes = (
{
closed = 1;
nodes = (
(-9,424,l),
(103,424,l),
(275,424,l),
(275,499,l),
(102,499,l),
(-9,499,l)
);
},
{
closed = 1;
nodes = (
(75,145,l),
(155,145,l),
(155,630,l),
(75,630,l)
);
},
{
closed = 1;
nodes = (
(265,59,l),
(185,58.648,o),
(155,78.669,o),
(155,145,c),
(75,145,l),
(75,35,o),
(135,-15,o),
(265,-15,c)
);
}
);
};
layerId = "BC735296-CD3A-4FA4-9AA9-EE2D747BC69E";
shapes = (
{
closed = 1;
nodes = (
(75,0,l),
(155,0,l),
(155,700,l),
(75,700,l)
);
}
);
width = 230;
},
{
anchors = (
{
name = bottom;
pos = (181,0);
},
{
name = center;
pos = (192,371);
},
{
name = top;
pos = (187,700);
},
{
name = topright;
pos = (360,490);
}
);
background = {
shapes = (
{
closed = 1;
nodes = (
(-64,424,l),
(48,424,l),
(220,424,l),
(220,499,l),
(47,499,l),
(-64,499,l)
);
},
{
closed = 1;
nodes = (
(20,145,l),
(100,145,l),
(100,630,l),
(20,630,l)
);
},
{
closed = 1;
nodes = (
(210,59,l),
(130,58.648,o),
(100,78.669,o),
(100,145,c),
(20,145,l),
(20,35,o),
(80,-15,o),
(210,-15,c)
);
}
);
};
layerId = "38E161BF-7670-40F4-B2BA-C78FC8454263";
shapes = (
{
closed = 1;
nodes = (
(60,0,l),
(300,0,l),
(300,690,l),
(60,690,l)
);
}
);
width = 360;
},
{
anchors = (
{
name = bottom;
pos = (136,0);
},
{
name = center;
pos = (143,371);
},
{
name = top;
pos = (140,700);
},
{
name = topright;
pos = (251,496);
}
);
layerId = "3FBA4204-9B78-4099-9F7B-502DDE19710D";
shapes = (
{
closed = 1;
nodes = (
(70,0,l),
(200,0,l),
(200,697,l),
(70,697,l)
);
}
);
width = 271;
}
);
unicode = 108;
},
{
color = 3;
glyphname = lslash;
layers = (
{
anchors = (
{
name = _center;
pos = (125,350);
}
);
layerId = "BC735296-CD3A-4FA4-9AA9-EE2D747BC69E";
shapes = (
{
closed = 1;
nodes = (
(-15,293,l),
(20,240,l),
(265,407,l),
(228,460,l)
);
},
{
pos = (10,0);
ref = l;
}
);
width = 250;
},
{
anchors = (
{
name = _center;
pos = (191,345);
}
);
layerId = "38E161BF-7670-40F4-B2BA-C78FC8454263";
shapes = (
{
closed = 1;
nodes = (
(-30,233,l),
(5,180,l),
(411,457,l),
(374,510,l)
);
},
{
pos = (11,0);
ref = l;
}
);
width = 381;
},
{
anchors = (
{
name = _center;
pos = (145,348);
}
);
layerId = "3FBA4204-9B78-4099-9F7B-502DDE19710D";
shapes = (
{
closed = 1;
nodes = (
(-20,274,l),
(15,221,l),
(311,423,l),
(274,476,l)
);
},
{
alignment = -1;
pos = (10,0);
ref = l;
}
);
width = 292;
}
);
metricLeft = "=l-90";
metricRight = "=l-90";
unicode = 322;
},
{
color = 6;
glyphname = m;
kernLeft = n;
kernRight = n;
layers = (
{
anchors = (
{
name = bottom;
pos = (447,0);
},
{
name = top;
pos = (476,500);
}
);
background = {
shapes = (
{
closed = 1;
nodes = (
(63,484,o),
(63,383,o),
(63,367,c),
(63,0,l),
(143,0,l),
(143,347,l),
(143,359,o),
(143,488,o),
(143,500,c),
(63,500,l)
);
},
{
closed = 1;
nodes = (
(407,0,l),
(487,0,l),
(487,312,l),
(407,312,l)
);
},
{
closed = 1;
nodes = (
(487,472,o),
(400,510,o),
(300,510,cs),
(204,510,o),
(138,416,o),
(114,375,c),
(106,376,l),
(106,365,o),
(109,355,o),
(109,355,c),
(138,307,l),
(138,307,o),
(201,430,o),
(292,430,cs),
(352,430,o),
(407,402,o),
(407,312,c),
(487,312,l)
);
},
{
closed = 1;
nodes = (
(743,0,l),
(823,0,l),
(823,312,l),
(743,312,l)
);
},
{
closed = 1;
nodes = (
(823,472,o),
(736,510,o),
(646,510,cs),
(547,510,o),
(483,420,o),
(462,378,c),
(458,362,l),
(448,347,o),
(442,337,o),
(442,337,c),
(474,297,l),
(474,297,o),
(529,430,o),
(636,430,cs),
(686,430,o),
(743,412,o),
(743,312,c),
(823,312,l)
);
}
);
};
layerId = "BC735296-CD3A-4FA4-9AA9-EE2D747BC69E";
shapes = (
{
closed = 1;
nodes = (
(65,0,l),
(145,0,l),
(145,500,l),
(65,500,l)
);
},
{
closed = 1;
nodes = (
(225,510,o),
(153,436,o),
(139,325,c),
(140,267,l),
(149,362,o),
(218,430,o),
(301,430,cs),
(373,430,o),
(409,391,o),
(409,314,cs),
(409,0,l),
(489,0,l),
(489,334,ls),
(489,443,o),
(424,510,o),
(317,510,cs)
);
},
{
closed = 1;
nodes = (
(561,510,o),
(489,436,o),
(475,325,c),
(476,267,l),
(485,362,o),
(554,430,o),
(637,430,cs),
(709,430,o),
(745,391,o),
(745,314,cs),
(745,0,l),
(825,0,l),
(825,334,ls),
(825,443,o),
(760,510,o),
(653,510,cs)
);
}
);
width = 890;
},
{
anchors = (
{
name = bottom;
pos = (890,0);
},
{
name = top;
pos = (948,500);
}
);
background = {
shapes = (
{
pos = (667.961,0);
ref = n;
},
{
ref = n;
}
);
};
layerId = "38E161BF-7670-40F4-B2BA-C78FC8454263";
shapes = (
{
closed = 1;
nodes = (
(45,0,l),
(285,0,l),
(285,490,l),
(45,490,l)
);
},
{
closed = 1;
nodes = (
(395,505,o),
(283,359,o),
(273,310,c),
(275,272,l),
(321,303,o),
(424,345,o),
(533,345,cs),
(669,345,o),
(713,307,o),
(713,207,cs),
(713,0,l),
(953,0,l),
(953,237,ls),
(953,447,o),
(801,505,o),
(645,505,cs)
);
},
{
closed = 1;
nodes = (
(1071,505,o),
(939,359,o),
(929,320,c),
(931,272,l),
(977,303,o),
(1080,345,o),
(1189,345,cs),
(1325,345,o),
(1369,307,o),
(1369,207,cs),
(1369,0,l),
(1609,0,l),
(1609,237,ls),
(1609,447,o),
(1457,505,o),
(1301,505,cs)
);
}
);
width = 1654;
},
{
anchors = (
{
name = bottom;
pos = (584,0);
},
{
name = top;
pos = (622,500);
}
);
layerId = "3FBA4204-9B78-4099-9F7B-502DDE19710D";
shapes = (
{
closed = 1;
nodes = (
(60,0,l),
(190,0,l),
(190,497,l),
(60,497,l)
);
},
{
closed = 1;
nodes = (
(280,508,o),
(195,412,o),
(182,320,c),
(183,269,l),
(190,334,o),
(271,403,o),
(375,403,cs),
(467,403,o),
(505,365,o),
(505,281,cs),
(505,0,l),
(635,0,l),
(635,304,ls),
(635,445,o),
(543,508,o),
(421,508,cs)
);
},
{
closed = 1;
nodes = (
(719,508,o),
(628,412,o),
(615,323,c),
(617,269,l),
(623,334,o),
(704,403,o),
(808,403,cs),
(900,403,o),
(939,365,o),
(939,281,cs),
(939,0,l),
(1069,0,l),
(1069,304,ls),
(1069,445,o),
(976,508,o),
(854,508,cs)
);
}
);
width = 1127;
}
);
metricLeft = n;
metricRight = n;
unicode = 109;
},
{
color = 6;
glyphname = n;
kernLeft = n;
kernRight = n;
layers = (
{
anchors = (
{
name = bottom;
pos = (277,0);
},
{
name = top;
pos = (302,510);
}
);
background = {
shapes = (
{
pos = (570,0);
ref = a;
scale = (-1,1);
}
);
};
layerId = "BC735296-CD3A-4FA4-9AA9-EE2D747BC69E";
shapes = (
{
closed = 1;
nodes = (
(65,0,l),
(145,0,l),
(145,500,l),
(65,500,l)
);
},
{
closed = 1;
nodes = (
(225,510,o),
(153,436,o),
(139,325,c),
(140,267,l),
(149,362,o),
(218,430,o),
(301,430,cs),
(373,430,o),
(409,391,o),
(409,314,cs),
(409,0,l),
(489,0,l),
(489,334,ls),
(489,443,o),
(424,510,o),
(317,510,cs)
);
}
);
width = 554;
},
{
anchors = (
{
name = bottom;
pos = (499,0);
},
{
name = top;
pos = (549,510);
}
);
background = {
shapes = (
{
pos = (1074.184,0);
ref = a;
scale = (-1,1);
}
);
};
layerId = "38E161BF-7670-40F4-B2BA-C78FC8454263";
shapes = (
{
closed = 1;
nodes = (
(45,0,l),
(285,0,l),
(285,490,l),
(45,490,l)
);
},
{
closed = 1;
nodes = (
(395,505,o),
(283,359,o),
(273,310,c),
(275,272,l),
(321,303,o),
(424,345,o),
(533,345,cs),
(669,345,o),
(713,307,o),
(713,207,cs),
(713,0,l),
(953,0,l),
(953,237,ls),
(953,447,o),
(801,505,o),
(645,505,cs)
);
}
);
width = 998;
},
{
anchors = (
{
name = bottom;
pos = (348,0);
},
{
name = top;
pos = (380,510);
}
);
layerId = "3FBA4204-9B78-4099-9F7B-502DDE19710D";
shapes = (
{
closed = 1;
nodes = (
(59.995,0,l),
(189.995,0,l),
(190,497,l),
(60,497,l)
);
},
{
closed = 1;
nodes = (
(280,508,o),
(195,412,o),
(182,320,c),
(183,269,l),
(190,334,o),
(271,403,o),
(375,403,cs),
(467,403,o),
(505,365,o),
(505,281,cs),
(505,0,l),
(635,0,l),
(635,304,ls),
(635,445,o),
(543,508,o),
(421,508,cs)
);
}
);
width = 693;
}
);
unicode = 110;
},
{
color = 6;
glyphname = eng;
kernLeft = n;
kernRight = n;
layers = (
{
anchors = (
{
name = bottom;
pos = (277,0);
},
{
name = top;
pos = (302,510);
}
);
layerId = "BC735296-CD3A-4FA4-9AA9-EE2D747BC69E";
shapes = (
{
closed = 1;
nodes = (
(407,-210,o),
(489,-133,o),
(489,-20,cs),
(489,334,ls),
(489,443,o),
(424,510,o),
(317,510,cs),
(225,510,o),
(153,436,o),
(139,325,c),
(140,267,l),
(149,362,o),
(218,430,o),
(301,430,cs),
(373,430,o),
(409,391,o),
(409,314,cs),
(409,0,ls),
(409,-88,o),
(370,-130,o),
(289,-130,c),
(289,-210,l)
);
},
{
closed = 1;
nodes = (
(145,0,l),
(145,500,l),
(65,500,l),
(65,0,l)
);
}
);
width = 554;
},
{
anchors = (
{
name = bottom;
pos = (499,0);
},
{
name = top;
pos = (549,510);
}
);
layerId = "38E161BF-7670-40F4-B2BA-C78FC8454263";
shapes = (
{
closed = 1;
nodes = (
(879,-215,o),
(953,-188,o),
(953,-70,cs),
(953,237,ls),
(953,447,o),
(801,505,o),
(645,505,cs),
(395,505,o),
(283,359,o),
(273,310,c),
(275,272,l),
(321,303,o),
(423,345,o),
(533,345,cs),
(669,345,o),
(713,307,o),
(713,207,cs),
(713,0,ls),
(713,-40,o),
(680,-50,o),
(553,-50,c),
(553,-215,l)
);
},
{
closed = 1;
nodes = (
(285,0,l),
(285,490,l),
(45,490,l),
(45,0,l)
);
}
);
width = 998;
},
{
anchors = (
{
name = bottom;
pos = (348,0);
},
{
name = top;
pos = (380,510);
}
);
layerId = "3FBA4204-9B78-4099-9F7B-502DDE19710D";
shapes = (
{
closed = 1;
nodes = (
(554,-212,o),
(635,-150,o),
(635,-36,cs),
(635,304,ls),
(635,445,o),
(543,508,o),
(421,508,cs),
(280,508,o),
(195,412,o),
(182,320,c),
(183,269,l),
(190,334,o),
(271,403,o),
(375,403,cs),
(467,403,o),
(505,365,o),
(505,281,cs),
(505,0,ls),
(505,-73,o),
(467,-105,o),
(372,-105,c),
(372,-212,l)
);
},
{
closed = 1;
nodes = (
(190,0,l),
(190,497,l),
(60,497,l),
(60,0,l)
);
}
);
width = 693;
}
);
metricLeft = n;
metricRight = n;
unicode = 331;
},
{
color = 6;
glyphname = o;
kernLeft = o;
kernRight = o;
layers = (
{
anchors = (
{
name = bottom;
pos = (282,-10);
},
{
name = center;
pos = (281,250);
},
{
name = ogonek;
pos = (368,10);
},
{
name = top;
pos = (282,510);
},
{
name = topright;
pos = (545,500);
}
);
layerId = "BC735296-CD3A-4FA4-9AA9-EE2D747BC69E";
shapes = (
{
closed = 1;
nodes = (
(410,-10,o),
(525,88,o),
(525,249,cs),
(525,409,o),
(410,510,o),
(282,510,cs),
(153,510,o),
(37,409,o),
(37,249,cs),
(37,88,o),
(153,-10,o),
(282,-10,cs)
);
},
{
closed = 1;
nodes = (
(197,65,o),
(117,130,o),
(117,249,cs),
(117,368,o),
(198,435,o),
(282,435,cs),
(366,435,o),
(445,367,o),
(445,249,cs),
(445,130,o),
(365,65,o),
(282,65,cs)
);
}
);
width = 562;
},
{
anchors = (
{
name = bottom;
pos = (510,-10);
},
{
name = center;
pos = (508,250);
},
{
name = ogonek;
pos = (682,10);
},
{
name = top;
pos = (510,510);
},
{
name = topright;
pos = (1036,500);
}
);
background = {
shapes = (
{
pos = (-20,0);
ref = a;
}
);
};
layerId = "38E161BF-7670-40F4-B2BA-C78FC8454263";
shapes = (
{
closed = 1;
nodes = (
(826,-15,o),
(981,58,o),
(981,244,cs),
(981,429,o),
(826,505,o),
(510,505,cs),
(192,505,o),
(35,429,o),
(35,244,cs),
(35,58,o),
(192,-15,o),
(510,-15,cs)
);
},
{
closed = 1;
nodes = (
(359,130,o),
(280,167,o),
(280,244,cs),
(280,321,o),
(361,360,o),
(510,360,cs),
(659,360,o),
(736,320,o),
(736,244,cs),
(736,167,o),
(657,130,o),
(510,130,cs)
);
}
);
width = 1016;
},
{
anchors = (
{
name = bottom;
pos = (353,-10);
},
{
name = center;
pos = (352,250);
},
{
name = ogonek;
pos = (466,10);
},
{
name = top;
pos = (353,510);
},
{
name = topright;
pos = (698,500);
}
);
layerId = "3FBA4204-9B78-4099-9F7B-502DDE19710D";
shapes = (
{
closed = 1;
nodes = (
(540,-12,o),
(668,79,o),
(668,247,cs),
(668,415,o),
(540,508,o),
(353,508,cs),
(165,508,o),
(36,415,o),
(36,247,cs),
(36,79,o),
(165,-12,o),
(353,-12,cs)
);
},
{
closed = 1;
nodes = (
(247,88,o),
(168,145,o),
(168,247,cs),
(168,350,o),
(248,409,o),
(353,409,cs),
(458,409,o),
(536,349,o),
(536,247,cs),
(536,145,o),
(457,88,o),
(353,88,cs)
);
}
);
width = 704;
}
);
unicode = 111;
},
{
color = 3;
glyphname = oslash;
kernLeft = o;
kernRight = o;
layers = (
{
layerId = "BC735296-CD3A-4FA4-9AA9-EE2D747BC69E";
shapes = (
{
closed = 1;
nodes = (
(101,7,l),
(153,-25,l),
(461,495,l),
(407,525,l)
);
},
{
ref = o;
}
);
width = 562;
},
{
layerId = "38E161BF-7670-40F4-B2BA-C78FC8454263";
shapes = (
{
closed = 1;
nodes = (
(293,-55,l),
(345,-87,l),
(723,552,l),
(669,582,l)
);
},
{
ref = o;
}
);
width = 1016;
},
{
layerId = "3FBA4204-9B78-4099-9F7B-502DDE19710D";
shapes = (
{
closed = 1;
nodes = (
(161,-12,l),
(213,-44,l),
(543,513,l),
(489,543,l)
);
},
{
alignment = -1;
ref = o;
}
);
width = 704;
}
);
metricLeft = o;
metricRight = o;
unicode = 248;
},
{
color = 6;
glyphname = p;
layers = (
{
anchors = (
{
name = bottom;
pos = (307,-10);
},
{
name = top;
pos = (303,510);
}
);
background = {
shapes = (
{
angle = 180;
pos = (567.966,500.539);
ref = d;
}
);
};
layerId = "BC735296-CD3A-4FA4-9AA9-EE2D747BC69E";
shapes = (
{
closed = 1;
nodes = (
(431,-10,o),
(532,98,o),
(532,249,cs),
(532,399,o),
(434,510,o),
(315,510,cs),
(165,510,o),
(135,392,o),
(135,249,cs),
(135,148,o),
(169,-10,o),
(315,-10,cs)
);
},
{
closed = 1;
nodes = (
(193,66,o),
(145,149,o),
(145,249,cs),
(145,359,o),
(207,434,o),
(295,434,cs),
(395,434,o),
(452,356,o),
(452,249,cs),
(452,142,o),
(387,66,o),
(295,66,cs)
);
},
{
closed = 1;
nodes = (
(65,-200,l),
(145,-200,l),
(145,395,l),
(142,500,l),
(65,500,l)
);
}
);
width = 569;
},
{
anchors = (
{
name = bottom;
pos = (576,-10);
},
{
name = top;
pos = (568,510);
}
);
layerId = "38E161BF-7670-40F4-B2BA-C78FC8454263";
shapes = (
{
closed = 1;
nodes = (
(871,-15,o),
(1028,73,o),
(1028,245,cs),
(1028,409,o),
(871,504,o),
(655,504,cs),
(415,504,o),
(265,399,o),
(265,245,cs),
(265,90,o),
(415,-15,o),
(655,-15,cs)
);
},
{
closed = 1;
nodes = (
(413,138,o),
(285,160,o),
(285,245,cs),
(285,329,o),
(413,352,o),
(565,352,cs),
(701,352,o),
(779,316,o),
(779,245,cs),
(779,173,o),
(701,138,o),
(565,138,cs)
);
},
{
closed = 1;
nodes = (
(45,-200,l),
(285,-200,l),
(285,300,l),
(271,490,l),
(45,490,l)
);
}
);
width = 1063;
},
{
anchors = (
{
name = bottom;
pos = (393,-10);
},
{
name = top;
pos = (387,510);
}
);
layerId = "3FBA4204-9B78-4099-9F7B-502DDE19710D";
shapes = (
{
closed = 1;
nodes = (
(569,-12,o),
(688,90,o),
(688,248,cs),
(688,402,o),
(571,508,o),
(422,508,cs),
(244,508,o),
(177,394,o),
(177,248,cs),
(177,130,o),
(247,-12,o),
(422,-12,cs)
);
},
{
closed = 1;
nodes = (
(263,89,o),
(190,152,o),
(190,248,cs),
(190,350,o),
(273,408,o),
(380,408,cs),
(492,408,o),
(555,344,o),
(555,248,cs),
(555,152,o),
(486,89,o),
(380,89,cs)
);
},
{
closed = 1;
nodes = (
(60,-200,l),
(190,-200,l),
(190,365,l),
(184,497,l),
(60,497,l)
);
}
);
width = 724;
}
);
metricLeft = n;
metricRight = o;
unicode = 112;
},
{
color = 6;
glyphname = thorn;
layers = (
{
anchors = (
{
name = bottom;
pos = (270,0);
},
{
name = top;
pos = (270,500);
}
);
layerId = "BC735296-CD3A-4FA4-9AA9-EE2D747BC69E";
shapes = (
{
closed = 1;
nodes = (
(431,-10,o),
(532,98,o),
(532,249,cs),
(532,399,o),
(434,510,o),
(315,510,cs),
(165,510,o),
(135,392,o),
(135,249,cs),
(135,148,o),
(169,-10,o),
(315,-10,cs)
);
},
{
closed = 1;
nodes = (
(193,67,o),
(145,149,o),
(145,249,cs),
(145,359,o),
(207,433,o),
(295,433,cs),
(395,433,o),
(452,356,o),
(452,249,cs),
(452,142,o),
(387,67,o),
(295,67,cs)
);
},
{
closed = 1;
nodes = (
(65,-200,l),
(145,-200,l),
(145,395,l),
(145,699,l),
(65,699,l)
);
}
);
width = 569;
},
{
anchors = (
{
name = bottom;
pos = (576,-10);
},
{
name = top;
pos = (568,510);
}
);
layerId = "38E161BF-7670-40F4-B2BA-C78FC8454263";
shapes = (
{
closed = 1;
nodes = (
(871,-15,o),
(1028,73,o),
(1028,245,cs),
(1028,409,o),
(871,504,o),
(655,504,cs),
(415,504,o),
(265,399,o),
(265,245,cs),
(265,90,o),
(415,-15,o),
(655,-15,cs)
);
},
{
closed = 1;
nodes = (
(413,138,o),
(285,160,o),
(285,245,cs),
(285,329,o),
(413,352,o),
(565,352,cs),
(701,352,o),
(779,316,o),
(779,245,cs),
(779,173,o),
(701,138,o),
(565,138,cs)
);
},
{
closed = 1;
nodes = (
(45,-200,l),
(285,-200,l),
(285,300,l),
(285,690,l),
(45,690,l)
);
}
);
width = 1063;
},
{
anchors = (
{
name = bottom;
pos = (367,-3);
},
{
name = top;
pos = (364,503);
}
);
layerId = "3FBA4204-9B78-4099-9F7B-502DDE19710D";
shapes = (
{
closed = 1;
nodes = (
(569,-12,o),
(688,90,o),
(688,248,cs),
(688,402,o),
(571,508,o),
(422,508,cs),
(244,508,o),
(177,394,o),
(177,248,cs),
(177,130,o),
(247,-12,o),
(422,-12,cs)
);
},
{
closed = 1;
nodes = (
(263,89,o),
(190,152,o),
(190,248,cs),
(190,350,o),
(273,408,o),
(380,408,cs),
(492,408,o),
(555,344,o),
(555,248,cs),
(555,152,o),
(486,89,o),
(380,89,cs)
);
},
{
closed = 1;
nodes = (
(59.995,-199.998,l),
(189.995,-199.998,l),
(190,365,l),
(190,696,l),
(60,696,l)
);
}
);
width = 724;
}
);
metricLeft = p;
metricRight = p;
unicode = 254;
},
{
color = 6;
glyphname = q;
kernLeft = o;
layers = (
{
anchors = (
{
name = bottom;
pos = (266,-10);
},
{
name = top;
pos = (262,510);
}
);
layerId = "BC735296-CD3A-4FA4-9AA9-EE2D747BC69E";
shapes = (
{
closed = 1;
nodes = (
(400,-10,o),
(434,148,o),
(434,249,cs),
(434,392,o),
(404,510,o),
(254,510,cs),
(136,510,o),
(37,399,o),
(37,249,cs),
(37,98,o),
(136,-10,o),
(254,-10,cs)
);
},
{
closed = 1;
nodes = (
(183,66,o),
(117,142,o),
(117,249,cs),
(117,356,o),
(174,434,o),
(274,434,cs),
(374,434,o),
(424,359,o),
(424,249,cs),
(424,149,o),
(376,66,o),
(274,66,cs)
);
},
{
closed = 1;
nodes = (
(424,500,l),
(424,407,l),
(424,-200,l),
(504,-200,l),
(504,500,l)
);
}
);
width = 584;
},
{
anchors = (
{
name = bottom;
pos = (499,-10);
},
{
name = top;
pos = (491,510);
}
);
layerId = "38E161BF-7670-40F4-B2BA-C78FC8454263";
shapes = (
{
closed = 1;
nodes = (
(648,-15,o),
(798,90,o),
(798,245,cs),
(798,399,o),
(648,504,o),
(408,504,cs),
(192,504,o),
(35,409,o),
(35,245,cs),
(35,73,o),
(192,-15,o),
(408,-15,cs)
);
},
{
closed = 1;
nodes = (
(362,138,o),
(284,173,o),
(284,245,cs),
(284,316,o),
(362,352,o),
(498,352,cs),
(650,352,o),
(778,329,o),
(778,245,cs),
(778,160,o),
(650,138,o),
(498,138,cs)
);
},
{
closed = 1;
nodes = (
(792,490,l),
(778,300,l),
(778,-200,l),
(1018,-200,l),
(1018,490,l)
);
}
);
width = 1098;
},
{
anchors = (
{
name = bottom;
pos = (339,-10);
},
{
name = top;
pos = (334,510);
}
);
layerId = "3FBA4204-9B78-4099-9F7B-502DDE19710D";
shapes = (
{
closed = 1;
nodes = (
(478,-12,o),
(548,130,o),
(548,248,cs),
(548,394,o),
(480,508,o),
(302,508,cs),
(154,508,o),
(36,402,o),
(36,248,cs),
(36,90,o),
(154,-12,o),
(302,-12,cs)
);
},
{
closed = 1;
nodes = (
(239,89,o),
(169,152,o),
(169,248,cs),
(169,344,o),
(233,408,o),
(344,408,cs),
(461,408,o),
(535,350,o),
(535,248,cs),
(535,152,o),
(462,89,o),
(344,89,cs)
);
},
{
closed = 1;
nodes = (
(539,497,l),
(535,374,l),
(535,-200,l),
(665,-200,l),
(665,497,l)
);
}
);
width = 745;
}
);
metricLeft = o;
metricRight = d;
unicode = 113;
},
{
color = 6;
glyphname = r;
kernLeft = n;
layers = (
{
anchors = (
{
name = bottom;
pos = (166,0);
},
{
name = top;
pos = (342,510);
}
);
background = {
anchors = (
{
name = bottom;
pos = (499,0);
},
{
name = top;
pos = (549,510);
}
);
};
layerId = "38E161BF-7670-40F4-B2BA-C78FC8454263";
shapes = (
{
closed = 1;
nodes = (
(45,0,l),
(285,0,l),
(285,490,l),
(45,490,l)
);
},
{
closed = 1;
nodes = (
(543,505,l),
(375,505,o),
(283,349,o),
(273,280,c),
(275,232,l),
(313,263,o),
(412,305,o),
(543,305,c)
);
}
);
width = 563;
},
{
anchors = (
{
name = bottom;
pos = (105,0);
},
{
name = top;
pos = (186,510);
}
);
background = {
shapes = (
{
ref = n;
}
);
};
layerId = "BC735296-CD3A-4FA4-9AA9-EE2D747BC69E";
shapes = (
{
closed = 1;
nodes = (
(65,0,l),
(145,0,l),
(145,500,l),
(65,500,l)
);
},
{
closed = 1;
nodes = (
(305,510,l),
(168,510,o),
(139,354,o),
(139,325,c),
(140,267,l),
(151,335,o),
(203,425,o),
(305,425,c)
);
}
);
width = 330;
},
{
anchors = (
{
name = bottom;
pos = (126,0);
},
{
name = top;
pos = (236,510);
}
);
layerId = "3FBA4204-9B78-4099-9F7B-502DDE19710D";
shapes = (
{
closed = 1;
nodes = (
(60,0,l),
(190,0,l),
(190,497,l),
(60,497,l)
);
},
{
closed = 1;
nodes = (
(381,508,l),
(234,508,o),
(185,352,o),
(182,311,c),
(183,256,l),
(202,314,o),
(269,390,o),
(381,390,c)
);
}
);
width = 401;
}
);
metricLeft = n;
unicode = 114;
},
{
color = 6;
glyphname = s;
layers = (
{
anchors = (
{
name = bottom;
pos = (449,-10);
},
{
name = top;
pos = (413,510);
}
);
background = {
shapes = (
{
pos = (-213.8,56);
ref = c;
}
);
};
layerId = "38E161BF-7670-40F4-B2BA-C78FC8454263";
shapes = (
{
closed = 1;
nodes = (
(32,108,o),
(92,-15,o),
(428,-15,cs),
(659,-15,o),
(807,30,o),
(807,145,cs),
(807,270,o),
(652,280,o),
(497,280,cs),
(328,280,o),
(295,286,o),
(295,316,cs),
(295,346,o),
(335,360,o),
(428,360,cs),
(526,360,o),
(559,348,o),
(574,314,c),
(789,314,l),
(790,421,o),
(679,505,o),
(428,505,cs),
(224,505,o),
(45,468,o),
(45,339,cs),
(45,235,o),
(161,206,o),
(355,206,cs),
(508,206,o),
(557,206,o),
(557,173,cs),
(557,151,o),
(541,130,o),
(428,130,cs),
(329,130,o),
(280,141,o),
(261,176,c),
(40,176,l)
);
}
);
width = 842;
},
{
anchors = (
{
name = bottom;
pos = (304,-10);
},
{
name = top;
pos = (280,510);
}
);
layerId = "3FBA4204-9B78-4099-9F7B-502DDE19710D";
shapes = (
{
closed = 1;
nodes = (
(33,118,o),
(86,-12,o),
(297,-12,cs),
(438,-12,o),
(525,41,o),
(525,137,cs),
(525,242,o),
(429,264,o),
(326,286,cs),
(234,301,o),
(188,310,o),
(188,352,cs),
(188,387,o),
(222,408,o),
(287,408,cs),
(353,408,o),
(382,387,o),
(393,338,c),
(508,338,l),
(507,438,o),
(435,508,o),
(287,508,cs),
(155,508,o),
(55,454,o),
(55,358,cs),
(55,258,o),
(157,229,o),
(270,210,cs),
(353,197,o),
(392,188,o),
(392,146,cs),
(392,111,o),
(372,88,o),
(296,88,cs),
(221,88,o),
(174,120,o),
(160,165,c),
(40,165,l)
);
}
);
width = 564;
},
{
anchors = (
{
name = bottom;
pos = (244,-10);
},
{
name = top;
pos = (226,510);
}
);
background = {
shapes = (
{
pos = (540.7,0);
ref = e;
scale = (-1,1);
}
);
};
layerId = "BC735296-CD3A-4FA4-9AA9-EE2D747BC69E";
shapes = (
{
closed = 1;
nodes = (
(33,110,o),
(74,-10,o),
(236,-10,cs),
(343,-10,o),
(404,48,o),
(404,133,cs),
(404,226,o),
(332,252,o),
(254,283,cs),
(196,307,o),
(142,325,o),
(142,369,cs),
(142,409,o),
(172,435,o),
(227,435,cs),
(280,435,o),
(307,409,o),
(317,349,c),
(386,349,l),
(384,445,o),
(329,510,o),
(229,510,cs),
(130,510,o),
(62,447,o),
(62,366,cs),
(62,269,o),
(160,236,o),
(237,208,cs),
(286,191,o),
(324,177,o),
(324,132,cs),
(324,93,o),
(300,64,o),
(233,64,cs),
(158,64,o),
(119,103,o),
(115,161,c),
(41,161,l)
);
}
);
width = 441;
}
);
unicode = 115;
},
{
color = 3;
glyphname = scedilla;
layers = (
{
anchors = (
{
name = _bottom;
pos = (244,-10);
}
);
layerId = "BC735296-CD3A-4FA4-9AA9-EE2D747BC69E";
shapes = (
{
closed = 1;
nodes = (
(109,-129,l),
(99,-186,o),
(144,-240,o),
(216,-240,cs),
(292,-240,o),
(327,-191,o),
(327,-143,cs),
(327,-84,o),
(291,-54,o),
(246,-42,c),
(204,-64,l),
(253,-85,o),
(263,-115,o),
(263,-136,cs),
(263,-153,o),
(254,-178,o),
(221,-178,cs),
(176,-178,o),
(169,-143,o),
(167,-129,c)
);
},
{
closed = 1;
nodes = (
(204,-64,l),
(285,-74,l),
(285,6,l),
(204,6,l)
);
},
{
ref = s;
}
);
width = 441;
},
{
anchors = (
{
name = _bottom;
pos = (449,-10);
}
);
layerId = "38E161BF-7670-40F4-B2BA-C78FC8454263";
shapes = (
{
closed = 1;
nodes = (
(157,-119,l),
(167,-196,o),
(252,-270,o),
(417,-270,cs),
(586,-270,o),
(681,-221,o),
(681,-148,cs),
(681,-87,o),
(614,-66,o),
(529,-52,c),
(364,-75,l),
(461,-88,o),
(469,-106,o),
(469,-122,cs),
(469,-139,o),
(449,-150,o),
(411,-150,cs),
(352,-150,o),
(336,-126,o),
(331,-119,c)
);
},
{
closed = 1;
nodes = (
(364,-75,l),
(534,-95,l),
(534,9,l),
(364,9,l)
);
},
{
ref = s;
}
);
width = 842;
},
{
anchors = (
{
name = _bottom;
pos = (304,-10);
}
);
layerId = "3FBA4204-9B78-4099-9F7B-502DDE19710D";
shapes = (
{
closed = 1;
nodes = (
(115,-126,l),
(111,-189,o),
(169,-249,o),
(270,-249,cs),
(375,-249,o),
(428,-200,o),
(428,-144,cs),
(428,-85,o),
(382,-57,o),
(326,-46,c),
(245,-74,l),
(312,-87,o),
(318,-113,o),
(318,-127,cs),
(318,-149,o),
(304,-167,o),
(267,-167,cs),
(220,-167,o),
(212,-137,o),
(209,-126,c)
);
},
{
closed = 1;
nodes = (
(245,-74,l),
(354,-81,l),
(354,7,l),
(245,7,l)
);
},
{
ref = s;
}
);
width = 564;
}
);
metricRight = s;
unicode = 351;
},
{
color = 6;
glyphname = germandbls;
layers = (
{
anchors = (
{
name = bottom;
pos = (211,0);
},
{
name = top;
pos = (211,500);
}
);
background = {
anchors = (
{
name = bottom;
pos = (255.81,-10);
},
{
name = top;
pos = (237.81,510);
}
);
};
layerId = "BC735296-CD3A-4FA4-9AA9-EE2D747BC69E";
shapes = (
{
closed = 1;
nodes = (
(424,-160,o),
(501,-71,o),
(501,32,cs),
(501,157,o),
(411,206,o),
(301,205,c),
(310,172,l),
(449,427,l),
(449,500,l),
(141,500,l),
(141,425,l),
(394,425,l),
(375,457,l),
(249,224,l),
(249,150,l),
(287,150,ls),
(382,150,o),
(421,102,o),
(421,32,cs),
(421,-43,o),
(376,-86,o),
(278,-86,c),
(278,-160,l)
);
},
{
closed = 1;
nodes = (
(157,0,l),
(157,530,ls),
(157,601,o),
(197,621,o),
(247,620,cs),
(293,620,l),
(293,700,l),
(247,700,ls),
(147,700,o),
(77,650,o),
(77,530,cs),
(77,0,l)
);
}
);
width = 521;
},
{
anchors = (
{
name = bottom;
pos = (613,0);
},
{
name = top;
pos = (613,500);
}
);
background = {
anchors = (
{
name = bottom;
pos = (658.21,-10);
},
{
name = center;
pos = (809.801,65.751);
},
{
name = ogonek;
pos = (983.801,-174.249);
},
{
name = top;
pos = (640.21,510);
},
{
name = topright;
pos = (1337.801,315.751);
}
);
shapes = (
{
pos = (15,0);
ref = f;
}
);
};
layerId = "38E161BF-7670-40F4-B2BA-C78FC8454263";
shapes = (
{
closed = 1;
nodes = (
(854,-200,o),
(1128,-181,o),
(1128,26,cs),
(1128,178,o),
(918,202,o),
(698,205,c),
(699,151,l),
(1052,340,l),
(1052,460,l),
(279,460,l),
(279,310,l),
(821,310,l),
(813,352,l),
(509,224,l),
(509,80,l),
(539,80,ls),
(831,80,o),
(883,77,o),
(883,17,cs),
(883,-43,o),
(831,-46,o),
(509,-46,c),
(509,-200,l)
);
},
{
closed = 1;
nodes = (
(295,0,l),
(295,459,ls),
(295,508,o),
(313,530,o),
(365,530,cs),
(559,530,l),
(559,690,l),
(295,690,ls),
(115,690,o),
(55,630,o),
(55,510,cs),
(55,0,l)
);
}
);
width = 1138;
},
{
anchors = (
{
name = bottom;
pos = (335,0);
},
{
name = top;
pos = (335,500);
}
);
layerId = "3FBA4204-9B78-4099-9F7B-502DDE19710D";
shapes = (
{
closed = 1;
nodes = (
(557,-173,o),
(696,-105,o),
(696,30,cs),
(696,162,o),
(566,202,o),
(423,204,c),
(431,157,l),
(636,400,l),
(636,487,l),
(183,488,l),
(183,389,l),
(541,389,l),
(523,432,l),
(329,224,l),
(329,129,l),
(364,129,ls),
(521,129,o),
(564,94,o),
(564,28,cs),
(564,-43,o),
(517,-73,o),
(349,-73,c),
(349,-173,l)
);
},
{
closed = 1;
nodes = (
(199,0,l),
(199,508,ls),
(199,572,o),
(232,593,o),
(282,592,cs),
(374,592,l),
(374,697,l),
(261,697,ls),
(136,697,o),
(69,644,o),
(69,524,cs),
(69,0,l)
);
}
);
width = 713;
}
);
metricLeft = h;
unicode = 223;
},
{
color = 6;
glyphname = t;
kernLeft = t;
kernRight = t;
layers = (
{
anchors = (
{
name = bottom;
pos = (177,0);
},
{
name = center;
pos = (171,250);
},
{
name = top;
pos = (176,639);
},
{
name = topright;
pos = (258,551);
}
);
layerId = "BC735296-CD3A-4FA4-9AA9-EE2D747BC69E";
shapes = (
{
closed = 1;
nodes = (
(30,425,l),
(324,425,l),
(324,500,l),
(30,500,l)
);
},
{
closed = 1;
nodes = (
(137,0,l),
(217,0,l),
(217,630,l),
(137,630,l)
);
}
);
width = 354;
},
{
anchors = (
{
name = bottom;
pos = (314,0);
},
{
name = center;
pos = (314,250);
},
{
name = top;
pos = (314,639);
},
{
name = topright;
pos = (471,556);
}
);
layerId = "38E161BF-7670-40F4-B2BA-C78FC8454263";
shapes = (
{
closed = 1;
nodes = (
(20,340,l),
(608,340,l),
(608,490,l),
(20,490,l)
);
},
{
closed = 1;
nodes = (
(194,0,l),
(434,0,l),
(434,640,l),
(194,640,l)
);
}
);
width = 628;
},
{
anchors = (
{
name = bottom;
pos = (218,0);
},
{
name = center;
pos = (214,250);
},
{
name = top;
pos = (217,639);
},
{
name = topright;
pos = (316,555);
}
);
layerId = "3FBA4204-9B78-4099-9F7B-502DDE19710D";
shapes = (
{
closed = 1;
nodes = (
(25,396,l),
(411,396,l),
(411,497,l),
(25,497,l)
);
},
{
closed = 1;
nodes = (
(153,0,l),
(283,0,l),
(283,633,l),
(153,633,l)
);
}
);
width = 434;
}
);
unicode = 116;
},
{
color = 3;
glyphname = tbar;
layers = (
{
layerId = "BC735296-CD3A-4FA4-9AA9-EE2D747BC69E";
shapes = (
{
closed = 1;
nodes = (
(26,275,l),
(318,275,l),
(318,350,l),
(26,350,l)
);
},
{
ref = t;
}
);
width = 344;
},
{
layerId = "38E161BF-7670-40F4-B2BA-C78FC8454263";
shapes = (
{
closed = 1;
nodes = (
(21,190,l),
(608,190,l),
(608,265,l),
(21,265,l)
);
},
{
ref = t;
}
);
width = 628;
},
{
layerId = "3FBA4204-9B78-4099-9F7B-502DDE19710D";
shapes = (
{
closed = 1;
nodes = (
(24,248,l),
(409,248,l),
(409,323,l),
(24,323,l)
);
},
{
ref = t;
}
);
width = 433;
}
);
unicode = 359;
},
{
color = 3;
glyphname = tcedilla;
layers = (
{
anchors = (
{
name = _bottom;
pos = (177,0);
}
);
layerId = "BC735296-CD3A-4FA4-9AA9-EE2D747BC69E";
shapes = (
{
closed = 1;
nodes = (
(42,-119,l),
(32,-176,o),
(77,-230,o),
(149,-230,cs),
(225,-230,o),
(260,-181,o),
(260,-133,cs),
(260,-74,o),
(224,-44,o),
(179,-32,c),
(137,-54,l),
(186,-75,o),
(196,-105,o),
(196,-126,cs),
(196,-143,o),
(187,-168,o),
(154,-168,cs),
(109,-168,o),
(102,-133,o),
(100,-119,c)
);
},
{
closed = 1;
nodes = (
(137,-54,l),
(218,-64,l),
(218,16,l),
(137,16,l)
);
},
{
ref = t;
}
);
width = 354;
},
{
anchors = (
{
name = _bottom;
pos = (314,0);
}
);
layerId = "38E161BF-7670-40F4-B2BA-C78FC8454263";
shapes = (
{
closed = 1;
nodes = (
(22,-109,l),
(32,-186,o),
(117,-260,o),
(282,-260,cs),
(451,-260,o),
(546,-211,o),
(546,-138,cs),
(546,-77,o),
(479,-56,o),
(394,-42,c),
(229,-65,l),
(326,-78,o),
(334,-96,o),
(334,-112,cs),
(334,-129,o),
(314,-140,o),
(276,-140,cs),
(217,-140,o),
(201,-116,o),
(196,-109,c)
);
},
{
closed = 1;
nodes = (
(229,-65,l),
(399,-85,l),
(399,19,l),
(229,19,l)
);
},
{
ref = t;
}
);
width = 628;
},
{
anchors = (
{
name = _bottom;
pos = (218,0);
}
);
layerId = "3FBA4204-9B78-4099-9F7B-502DDE19710D";
shapes = (
{
closed = 1;
nodes = (
(29,-116,l),
(25,-179,o),
(83,-239,o),
(184,-239,cs),
(289,-239,o),
(342,-190,o),
(342,-134,cs),
(342,-75,o),
(296,-47,o),
(240,-36,c),
(159,-64,l),
(226,-77,o),
(232,-103,o),
(232,-117,cs),
(232,-139,o),
(218,-157,o),
(181,-157,cs),
(134,-157,o),
(126,-127,o),
(123,-116,c)
);
},
{
closed = 1;
nodes = (
(159,-64,l),
(268,-71,l),
(268,17,l),
(159,17,l)
);
},
{
ref = t;
}
);
width = 434;
}
);
unicode = 355;
},
{
color = 6;
glyphname = u;
kernLeft = n;
kernRight = n;
layers = (
{
anchors = (
{
name = bottom;
pos = (267,0);
},
{
name = ogonek;
pos = (449,0);
},
{
name = top;
pos = (284,510);
},
{
name = topright;
pos = (532,500);
}
);
layerId = "BC735296-CD3A-4FA4-9AA9-EE2D747BC69E";
shapes = (
{
closed = 1;
nodes = (
(489,500,l),
(409,500,l),
(409,0,l),
(489,0,l)
);
},
{
closed = 1;
nodes = (
(406,163,o),
(357,70,o),
(255,70,cs),
(192,70,o),
(145,98,o),
(145,188,cs),
(145,500,l),
(65,500,l),
(65,168,ls),
(65,28,o),
(161,-10,o),
(239,-10,cs),
(389,-10,o),
(410,166,o),
(415,205,c),
(414,233,l)
);
}
);
width = 554;
},
{
anchors = (
{
name = bottom;
pos = (479,0);
},
{
name = ogonek;
pos = (843,0);
},
{
name = top;
pos = (513,510);
},
{
name = topright;
pos = (1009,500);
}
);
background = {
anchors = (
{
name = bottom;
pos = (499,0);
},
{
name = top;
pos = (549,510);
}
);
shapes = (
{
angle = 180;
pos = (1013,510);
ref = n;
}
);
};
layerId = "38E161BF-7670-40F4-B2BA-C78FC8454263";
shapes = (
{
closed = 1;
nodes = (
(953,490,l),
(713,490,l),
(713,0,l),
(953,0,l)
);
},
{
closed = 1;
nodes = (
(681,207,o),
(582,145,o),
(465,145,cs),
(339,145,o),
(285,173,o),
(285,283,cs),
(285,490,l),
(45,490,l),
(45,258,ls),
(45,48,o),
(197,-15,o),
(373,-15,cs),
(593,-15,o),
(715,136,o),
(725,205,c),
(723,253,l)
);
}
);
width = 998;
},
{
anchors = (
{
name = bottom;
pos = (334,0);
},
{
name = ogonek;
pos = (573,0);
},
{
name = top;
pos = (357,510);
},
{
name = topright;
pos = (682,500);
}
);
layerId = "3FBA4204-9B78-4099-9F7B-502DDE19710D";
shapes = (
{
closed = 1;
nodes = (
(635,497,l),
(505,497,l),
(505,0,l),
(635,0,l)
);
},
{
closed = 1;
nodes = (
(493,176,o),
(429,93,o),
(322,93,cs),
(239,93,o),
(190,121,o),
(190,218,cs),
(190,497,l),
(60,497,l),
(60,196,ls),
(60,34,o),
(173,-12,o),
(282,-12,cs),
(454,-12,o),
(507,157,o),
(513,205,c),
(512,239,l)
);
}
);
width = 693;
}
);
metricLeft = n;
metricRight = n;
unicode = 117;
},
{
color = 3;
glyphname = uogonek;
kernLeft = n;
kernRight = n;
layers = (
{
anchors = (
{
name = _ogonek;
pos = (449,0);
}
);
layerId = "BC735296-CD3A-4FA4-9AA9-EE2D747BC69E";
shapes = (
{
closed = 1;
nodes = (
(480,-160,l),
(415,-160,o),
(380,-130,o),
(380,-85,cs),
(380,-40,o),
(417,-10,o),
(459,0,c),
(459,22,l),
(380,12,o),
(315,-21,o),
(315,-95,cs),
(315,-169,o),
(381,-215,o),
(480,-215,c)
);
},
{
ref = u;
}
);
width = 554;
},
{
anchors = (
{
name = _ogonek;
pos = (842.996,0);
}
);
layerId = "38E161BF-7670-40F4-B2BA-C78FC8454263";
shapes = (
{
closed = 1;
nodes = (
(915,-142,l),
(825,-142,o),
(746,-120,o),
(746,-65,cs),
(746,-21,o),
(790,-10,o),
(874,0,c),
(874,22,l),
(696,12,o),
(566,-11,o),
(566,-105,cs),
(566,-189,o),
(697,-240,o),
(915,-240,c)
);
},
{
ref = u;
}
);
width = 998;
},
{
anchors = (
{
name = _ogonek;
pos = (573,0);
}
);
layerId = "3FBA4204-9B78-4099-9F7B-502DDE19710D";
shapes = (
{
closed = 1;
nodes = (
(616,-154,l),
(543,-154,o),
(495,-127,o),
(495,-79,cs),
(495,-34,o),
(534,-10,o),
(589,0,c),
(589,22,l),
(479,12,o),
(394,-18,o),
(394,-98,cs),
(394,-175,o),
(480,-223,o),
(616,-223,c)
);
},
{
ref = u;
}
);
width = 693;
}
);
metricLeft = u;
metricRight = u;
unicode = 371;
},
{
color = 6;
glyphname = v;
kernLeft = v;
kernRight = v;
layers = (
{
anchors = (
{
name = bottom;
pos = (247,0);
},
{
name = top;
pos = (247,500);
}
);
layerId = "BC735296-CD3A-4FA4-9AA9-EE2D747BC69E";
shapes = (
{
closed = 1;
nodes = (
(107,500,l),
(20,500,l),
(209,0,l),
(284,0,l),
(474,500,l),
(387,500,l),
(234,69,l),
(258,69,l)
);
}
);
width = 494;
},
{
anchors = (
{
name = bottom;
pos = (459,0);
},
{
name = top;
pos = (459,500);
}
);
layerId = "38E161BF-7670-40F4-B2BA-C78FC8454263";
shapes = (
{
closed = 1;
nodes = (
(269,490,l),
(5,490,l),
(338,0,l),
(564,0,l),
(913,490,l),
(648,490,l),
(396,92,l),
(510,90,l)
);
}
);
width = 918;
},
{
anchors = (
{
name = bottom;
pos = (313,0);
},
{
name = top;
pos = (313,500);
}
);
layerId = "3FBA4204-9B78-4099-9F7B-502DDE19710D";
shapes = (
{
closed = 1;
nodes = (
(158,497,l),
(15,497,l),
(249,0,l),
(372,0,l),
(611,497,l),
(469,497,l),
(287,85,l),
(334,85,l)
);
}
);
width = 627;
}
);
unicode = 118;
},
{
color = 6;
glyphname = w;
kernLeft = v;
kernRight = v;
layers = (
{
anchors = (
{
name = bottom;
pos = (392,0);
},
{
name = top;
pos = (386,510);
}
);
layerId = "BC735296-CD3A-4FA4-9AA9-EE2D747BC69E";
shapes = (
{
closed = 1;
nodes = (
(434,500,l),
(337,500,l),
(202,73,l),
(222,74,l),
(107,500,l),
(20,500,l),
(172,0,l),
(247,0,l),
(395,438,l),
(375,438,l),
(523,0,l),
(598,0,l),
(751,500,l),
(664,500,l),
(547,74,l),
(567,73,l)
);
}
);
width = 771;
},
{
anchors = (
{
name = bottom;
pos = (734,0);
},
{
name = top;
pos = (728,510);
}
);
background = {
anchors = (
{
name = bottom;
pos = (1053.336,0);
},
{
name = top;
pos = (1053.336,500);
}
);
shapes = (
{
closed = 1;
nodes = (
(912.336,0,l),
(1138.336,0,l),
(863.336,490,l),
(599.336,490,l)
);
},
{
closed = 1;
nodes = (
(1192.336,490,l),
(912.336,0,l),
(1138.336,0,l),
(1457.336,490,l)
);
},
{
closed = 1;
nodes = (
(308,0,l),
(534,0,l),
(269,490,l),
(5,490,l)
);
},
{
closed = 1;
nodes = (
(598,490,l),
(308,0,l),
(534,0,l),
(863,490,l)
);
}
);
};
layerId = "38E161BF-7670-40F4-B2BA-C78FC8454263";
shapes = (
{
closed = 1;
nodes = (
(861,490,l),
(596,490,l),
(370,94,l),
(473,94,l),
(269,490,l),
(5,490,l),
(298,0,l),
(524,0,l),
(787,379,l),
(669,380,l),
(922,0,l),
(1148,0,l),
(1457,490,l),
(1192,490,l),
(975,94,l),
(1079,92,l)
);
}
);
width = 1462;
},
{
anchors = (
{
name = bottom;
pos = (499,0);
},
{
name = top;
pos = (491,510);
}
);
layerId = "3FBA4204-9B78-4099-9F7B-502DDE19710D";
shapes = (
{
closed = 1;
nodes = (
(568,497,l),
(419,497,l),
(273,90,l),
(314,90,l),
(158,497,l),
(15,497,l),
(228,0,l),
(350,0,l),
(515,401,l),
(471,401,l),
(631,0,l),
(753,0,l),
(972,497,l),
(829,497,l),
(667,91,l),
(708,90,l)
);
}
);
width = 988;
}
);
metricLeft = v;
metricRight = v;
unicode = 119;
},
{
color = 6;
glyphname = x;
layers = (
{
anchors = (
{
name = bottom;
pos = (250,0);
},
{
name = top;
pos = (250,500);
}
);
layerId = "BC735296-CD3A-4FA4-9AA9-EE2D747BC69E";
shapes = (
{
closed = 1;
nodes = (
(378,500,l),
(232,287,l),
(25,0,l),
(122,0,l),
(281,228,l),
(475,500,l)
);
},
{
closed = 1;
nodes = (
(226,228,l),
(388,0,l),
(485,0,l),
(280,285,l),
(125,500,l),
(25,500,l)
);
}
);
width = 510;
},
{
anchors = (
{
name = bottom;
pos = (500,0);
},
{
name = top;
pos = (500,500);
}
);
layerId = "38E161BF-7670-40F4-B2BA-C78FC8454263";
shapes = (
{
closed = 1;
nodes = (
(656,490,l),
(416,300,l),
(10,0,l),
(304,0,l),
(550,202,l),
(950,490,l)
);
},
{
closed = 1;
nodes = (
(413,191,l),
(676,0,l),
(970,0,l),
(556,307,l),
(304,490,l),
(10,490,l)
);
}
);
width = 980;
},
{
anchors = (
{
name = bottom;
pos = (328,0);
},
{
name = top;
pos = (328,500);
}
);
layerId = "3FBA4204-9B78-4099-9F7B-502DDE19710D";
shapes = (
{
closed = 1;
nodes = (
(465,497,l),
(289,291,l),
(20,0,l),
(179,0,l),
(365,220,l),
(623,497,l)
);
},
{
closed = 1;
nodes = (
(285,217,l),
(478,0,l),
(637,0,l),
(367,293,l),
(179,497,l),
(20,497,l)
);
}
);
width = 657;
}
);
unicode = 120;
},
{
color = 6;
glyphname = y;
kernLeft = v;
kernRight = v;
layers = (
{
anchors = (
{
name = bottom;
pos = (250,0);
},
{
name = top;
pos = (250,510);
}
);
layerId = "BC735296-CD3A-4FA4-9AA9-EE2D747BC69E";
shapes = (
{
closed = 1;
nodes = (
(215,0,l),
(285,20,l),
(106,500,l),
(20,500,l)
);
},
{
closed = 1;
nodes = (
(400,500,l),
(240,70,l),
(119,-200,l),
(206,-200,l),
(485,500,l)
);
}
);
width = 505;
},
{
anchors = (
{
name = bottom;
pos = (475,0);
},
{
name = top;
pos = (475,510);
}
);
background = {
shapes = (
{
pos = (-5,0);
ref = v;
}
);
};
layerId = "38E161BF-7670-40F4-B2BA-C78FC8454263";
shapes = (
{
closed = 1;
nodes = (
(345,0,l),
(552,20,l),
(260,490,l),
(5,490,l)
);
},
{
closed = 1;
nodes = (
(670,490,l),
(402,83,l),
(193,-200,l),
(438,-200,l),
(925,490,l)
);
}
);
width = 930;
},
{
anchors = (
{
name = bottom;
pos = (320,0);
},
{
name = top;
pos = (320,510);
}
);
layerId = "3FBA4204-9B78-4099-9F7B-502DDE19710D";
shapes = (
{
closed = 1;
nodes = (
(256,0,l),
(368,20,l),
(153,497,l),
(15,497,l)
);
},
{
closed = 1;
nodes = (
(484,497,l),
(291,74,l),
(144.004,-200,l),
(279,-200,l),
(623,497,l)
);
}
);
width = 639;
}
);
metricLeft = v;
metricRight = v;
unicode = 121;
},
{
color = 6;
glyphname = z;
layers = (
{
anchors = (
{
name = bottom;
pos = (247,0);
},
{
name = top;
pos = (247,510);
}
);
layerId = "BC735296-CD3A-4FA4-9AA9-EE2D747BC69E";
shapes = (
{
closed = 1;
nodes = (
(440,500,l),
(55,500,l),
(55,425,l),
(381,425,l),
(368,453,l),
(55,75,l),
(55,0,l),
(443,0,l),
(443,75,l),
(119,75,l),
(132,47,l),
(440,425,l)
);
}
);
width = 498;
},
{
anchors = (
{
name = bottom;
pos = (444,0);
},
{
name = top;
pos = (444,510);
}
);
layerId = "38E161BF-7670-40F4-B2BA-C78FC8454263";
shapes = (
{
closed = 1;
nodes = (
(830,490,l),
(60,490,l),
(60,340,l),
(606,340,l),
(597,383,l),
(60,150,l),
(60,0,l),
(836,0,l),
(836,150,l),
(280,150,l),
(289,107,l),
(830,340,l)
);
}
);
width = 896;
},
{
anchors = (
{
name = bottom;
pos = (309,0);
},
{
name = top;
pos = (309,510);
}
);
layerId = "3FBA4204-9B78-4099-9F7B-502DDE19710D";
shapes = (
{
closed = 1;
nodes = (
(559,497,l),
(57,497,l),
(57,398,l),
(466,398,l),
(452,436,l),
(57,98,l),
(57,0,l),
(566,0,l),
(566,98,l),
(150,98,l),
(164,60,l),
(559,398,l)
);
}
);
width = 622;
}
);
unicode = 122;
},
{
color = 6;
glyphname = g.ss04;
kernLeft = o;
kernRight = g;
layers = (
{
anchors = (
{
name = bottom;
pos = (280,-210);
},
{
name = center;
pos = (276,250);
},
{
name = ogonek;
pos = (363,10);
},
{
name = top;
pos = (277,510);
},
{
name = topright;
pos = (540,500);
}
);
layerId = "BC735296-CD3A-4FA4-9AA9-EE2D747BC69E";
shapes = (
{
closed = 1;
nodes = (
(294,-215,ls),
(435,-215,o),
(523,-165,o),
(523,-56,cs),
(523,23,o),
(474,58,o),
(359,58,cs),
(186,58,ls),
(155,58,o),
(140,72,o),
(140,94,cs),
(140,128,o),
(181,138,o),
(263,138,c),
(177,152,l),
(116,151,o),
(60,129,o),
(60,66,cs),
(60,24,o),
(90,-6,o),
(140,-15,c),
(83,-15,o),
(40,-40,o),
(40,-97,cs),
(40,-178,o),
(124,-215,o),
(252,-215,cs)
);
},
{
closed = 1;
nodes = (
(165,-139,o),
(115,-124,o),
(115,-72,cs),
(115,-25,o),
(160,-19,o),
(233,-19,cs),
(265,-19,ls),
(407,-19,o),
(444,-24,o),
(444,-71,cs),
(444,-118,o),
(392,-139,o),
(301,-139,cs),
(256,-139,ls)
);
},
{
closed = 1;
nodes = (
(387,129,o),
(483,198,o),
(483,318,cs),
(483,381,o),
(446,433,o),
(372,471,c),
(345,498,l),
(324,506,o),
(301,510,o),
(277,510,cs),
(167,510,o),
(70,436,o),
(70,318,cs),
(70,198,o),
(170,129,o),
(277,129,cs)
);
},
{
closed = 1;
nodes = (
(211,204,o),
(150,243,o),
(150,318,cs),
(150,394,o),
(211,434,o),
(277,434,cs),
(343,434,o),
(403,393,o),
(403,318,cs),
(403,243,o),
(342,204,o),
(277,204,cs)
);
},
{
closed = 1;
nodes = (
(542,500,l),
(324,500,l),
(334,493,l),
(334,493,o),
(443,414,o),
(542,414,c)
);
}
);
width = 587;
},
{
anchors = (
{
name = bottom;
pos = (454,-210);
},
{
name = center;
pos = (447,250);
},
{
name = ogonek;
pos = (621,10);
},
{
name = top;
pos = (449,510);
},
{
name = topright;
pos = (975,500);
}
);
background = {
anchors = (
{
name = bottom;
pos = (480.87,-10);
},
{
name = center;
pos = (478.87,250);
},
{
name = ogonek;
pos = (652.87,10);
},
{
name = top;
pos = (480.87,510);
},
{
name = topright;
pos = (1006.87,500);
}
);
shapes = (
{
closed = 1;
nodes = (
(738,69,o),
(860,138,o),
(860,263,cs),
(860,348,o),
(774,397,o),
(684,426,c),
(695,411,l),
(770,390,o),
(862,375,o),
(949,379,c),
(949,505,l),
(567,505,l),
(528,505,o),
(488,505,o),
(449,505,c),
(158,505,o),
(35,416,o),
(35,283,cs),
(35,138,o),
(164,69,o),
(449,69,cs)
);
},
{
closed = 1;
nodes = (
(902,-215,l),
(902,-158,l),
(902,-38,o),
(840,0,o),
(642,0,c),
(347,0,l),
(317,0,o),
(299,8,o),
(299,27,cs),
(299,60,o),
(337,69,o),
(449,69,c),
(353,80,l),
(150,80,o),
(55,54,o),
(55,-32,cs),
(55,-86,o),
(83,-147,o),
(273,-147,c),
(552,-147,l),
(628,-147,o),
(662,-148,o),
(662,-188,c),
(662,-215,l)
);
},
{
closed = 1;
nodes = (
(314,200,o),
(263,235,o),
(263,279,cs),
(263,329,o),
(316,360,o),
(449,360,cs),
(583,360,o),
(632,329,o),
(632,279,cs),
(632,235,o),
(581,200,o),
(449,200,cs)
);
}
);
};
layerId = "38E161BF-7670-40F4-B2BA-C78FC8454263";
shapes = (
{
closed = 1;
nodes = (
(572,-324,ls),
(797,-324,o),
(922,-278,o),
(922,-146,cs),
(922,-20,o),
(782,0,o),
(642,0,cs),
(327,0,ls),
(313,0,o),
(279,1,o),
(279,29,cs),
(279,60,o),
(340,69,o),
(449,69,c),
(353,80,l),
(155,80,o),
(65,56,o),
(65,-20,cs),
(65,-77,o),
(120,-92,o),
(208,-104,c),
(90,-119,o),
(35,-161,o),
(35,-224,cs),
(35,-283,o),
(71,-324,o),
(263,-324,cs)
);
},
{
closed = 1;
nodes = (
(277,-197,o),
(249,-183,o),
(249,-153,cs),
(249,-117,o),
(286,-107,o),
(419,-107,cs),
(572,-107,ls),
(645,-107,o),
(692,-108,o),
(692,-147,cs),
(692,-186,o),
(645,-197,o),
(572,-197,cs),
(347,-197,ls)
);
},
{
closed = 1;
nodes = (
(738,69,o),
(860,142,o),
(860,254,cs),
(860,401,o),
(651,442,o),
(530,466,c),
(586,493,l),
(561,498,o),
(496,506,o),
(423,506,cs),
(179,506,o),
(35,421,o),
(35,277,cs),
(35,141,o),
(164,69,o),
(450,69,cs)
);
},
{
closed = 1;
nodes = (
(314,200,o),
(263,234,o),
(263,281,cs),
(263,328,o),
(316,360,o),
(449,360,cs),
(581,360,o),
(632,329,o),
(632,281,cs),
(632,234,o),
(581,200,o),
(448,200,cs)
);
},
{
closed = 1;
nodes = (
(949,505,l),
(449,505,l),
(530,466,l),
(530,466,o),
(750,369,o),
(949,379,c)
);
}
);
width = 979;
},
{
anchors = (
{
name = bottom;
pos = (316,-210);
},
{
name = center;
pos = (311,250);
},
{
name = ogonek;
pos = (425,10);
},
{
name = top;
pos = (312,510);
},
{
name = topright;
pos = (658,500);
}
);
layerId = "3FBA4204-9B78-4099-9F7B-502DDE19710D";
shapes = (
{
closed = 1;
nodes = (
(350,-254,ls),
(541,-254,o),
(638,-203,o),
(638,-93,cs),
(638,6,o),
(550,40,o),
(431,40,cs),
(203,40,ls),
(175,40,o),
(157,50,o),
(157,72,cs),
(157,108,o),
(198,116,o),
(308,116,c),
(219,130,l),
(115,129,o),
(45,106,o),
(45,36,cs),
(45,-8,o),
(77,-35,o),
(148,-45,c),
(72,-50,o),
(35,-84,o),
(35,-136,cs),
(35,-214,o),
(111,-254,o),
(276,-254,cs)
);
},
{
closed = 1;
nodes = (
(188,-165,o),
(148,-138,o),
(148,-97,cs),
(148,-58,o),
(177,-49,o),
(278,-49,cs),
(357,-49,ls),
(473,-49,o),
(513,-53,o),
(513,-97,cs),
(513,-142,o),
(472,-165,o),
(352,-165,cs),
(295,-165,ls)
);
},
{
closed = 1;
nodes = (
(484,115,o),
(588,181,o),
(588,298,cs),
(588,387,o),
(497,436,o),
(408,469,c),
(407,496,l),
(385,504,o),
(349,509,o),
(309,509,cs),
(158,509,o),
(46,431,o),
(46,305,cs),
(46,180,o),
(155,115,o),
(318,115,cs)
);
},
{
closed = 1;
nodes = (
(230,203,o),
(172,240,o),
(172,306,cs),
(172,373,o),
(231,411,o),
(318,411,cs),
(404,411,o),
(462,373,o),
(462,307,cs),
(462,240,o),
(404,203,o),
(317,203,cs)
);
},
{
closed = 1;
nodes = (
(656,502,l),
(350,502,l),
(382,485,l),
(382,485,o),
(526,400,o),
(656,403,c)
);
}
);
width = 696;
}
);
},
{
color = 6;
glyphname = f_f;
kernLeft = t;
layers = (
{
anchors = (
{
name = caret_1;
pos = (320,0);
}
);
layerId = "BC735296-CD3A-4FA4-9AA9-EE2D747BC69E";
shapes = (
{
closed = 1;
nodes = (
(502,0,l),
(502,530,l),
(422,530,l),
(422,0,l)
);
},
{
closed = 1;
nodes = (
(492,700,o),
(422,650,o),
(422,530,c),
(502,530,l),
(502,601,o),
(542,621,o),
(592,620,c),
(637,620,l),
(637,700,l),
(592,700,l)
);
},
{
closed = 1;
nodes = (
(192,0,l),
(192,510,l),
(112,510,l),
(112,0,l)
);
},
{
closed = 1;
nodes = (
(182,680,o),
(112,630,o),
(112,510,c),
(192,510,l),
(192,581,o),
(232,601,o),
(282,600,c),
(328,600,l),
(328,680,l),
(282,680,l)
);
},
{
closed = 1;
nodes = (
(30,425,l),
(635,425,l),
(635,500,l),
(30,500,l)
);
}
);
width = 649;
},
{
anchors = (
{
name = caret_1;
pos = (345,0);
}
);
background = {
shapes = (
{
closed = 1;
nodes = (
(182,0,l),
(182,510,l),
(102,510,l),
(102,0,l)
);
},
{
closed = 1;
nodes = (
(491.989,0,l),
(491.989,530,l),
(411.989,530,l),
(411.989,0,l)
);
},
{
closed = 1;
nodes = (
(172,680,o),
(102,630,o),
(102,510,c),
(182,510,l),
(182,581.403,o),
(222,601.372,o),
(272,600,c),
(317.504,600,l),
(317.504,680,l),
(272,680,l)
);
},
{
closed = 1;
nodes = (
(20,425,l),
(625.396,425,l),
(625.396,500,l),
(20,500,l)
);
},
{
closed = 1;
nodes = (
(481.989,700,o),
(411.989,650,o),
(411.989,530,c),
(491.989,530,l),
(491.989,601.403,o),
(531.989,621.372,o),
(581.989,620,c),
(627.493,620,l),
(627.493,700,l),
(581.989,700,l)
);
}
);
};
layerId = "38E161BF-7670-40F4-B2BA-C78FC8454263";
shapes = (
{
closed = 1;
nodes = (
(982,0,l),
(982,460,l),
(742,510,l),
(742,0,l)
);
},
{
closed = 1;
nodes = (
(802,690,o),
(742,630,o),
(742,510,c),
(982,460,l),
(982,521,o),
(1002,531,o),
(1082,530,c),
(1213.008,530,l),
(1213.008,690,l),
(982,690,l)
);
},
{
closed = 1;
nodes = (
(423,0,l),
(423,460,l),
(183,510,l),
(183,0,l)
);
},
{
closed = 1;
nodes = (
(243,690,o),
(183,630,o),
(183,510,c),
(423,460,l),
(423,521,o),
(443,531,o),
(523,530,c),
(654.008,530,l),
(654.008,690,l),
(423,690,l)
);
},
{
closed = 1;
nodes = (
(20,310,l),
(1213,310,l),
(1213,460,l),
(20,460,l)
);
}
);
width = 1233;
},
{
anchors = (
{
name = caret_1;
pos = (349,0);
}
);
layerId = "3FBA4204-9B78-4099-9F7B-502DDE19710D";
shapes = (
{
closed = 1;
nodes = (
(650,0,l),
(650,508,l),
(520,524,l),
(520,0,l)
);
},
{
closed = 1;
nodes = (
(587,697,o),
(520,644,o),
(520,524,c),
(650,508,l),
(650,576,o),
(684,593,o),
(743,592,c),
(815,592,l),
(815,697,l),
(712,697,l)
);
},
{
closed = 1;
nodes = (
(262,0,l),
(262,494,l),
(132,510,l),
(132,0,l)
);
},
{
closed = 1;
nodes = (
(199,683,o),
(132,630,o),
(132,510,c),
(262,494,l),
(262,563,o),
(296,579,o),
(355,578,c),
(428,578,l),
(428,683,l),
(324,683,l)
);
},
{
closed = 1;
nodes = (
(25,389,l),
(814,389,l),
(814,488,l),
(25,488,l)
);
}
);
width = 829;
}
);
metricLeft = f;
metricRight = f;
},
{
color = 6;
glyphname = f_f_i;
layers = (
{
anchors = (
{
name = caret_1;
pos = (298,0);
},
{
name = caret_2;
pos = (594,0);
}
);
background = {
shapes = (
{
pos = (2,0);
ref = f_f;
},
{
pos = (660.109,0);
ref = i;
}
);
};
layerId = "BC735296-CD3A-4FA4-9AA9-EE2D747BC69E";
shapes = (
{
closed = 1;
nodes = (
(798,425,l),
(798,500,l),
(472,500,l),
(454,425,l)
);
},
{
closed = 1;
nodes = (
(730,0,l),
(810,0,l),
(810,500,l),
(730,500,l)
);
},
{
closed = 1;
nodes = (
(502,0,l),
(502,530,l),
(422,530,l),
(422,0,l)
);
},
{
closed = 1;
nodes = (
(192,0,l),
(192,510,l),
(112,510,l),
(112,0,l)
);
},
{
closed = 1;
nodes = (
(182,680,o),
(112,630,o),
(112,510,c),
(192,510,l),
(192,581,o),
(232,601,o),
(282,600,c),
(328,600,l),
(328,680,l),
(282,680,l)
);
},
{
closed = 1;
nodes = (
(30,425,l),
(635,425,l),
(635,500,l),
(30,500,l)
);
},
{
closed = 1;
nodes = (
(492,700,o),
(422,650,o),
(422,530,c),
(502,530,l),
(502,601,o),
(542,621,o),
(592,620,c),
(810,620,l),
(810,700,l),
(592,700,l)
);
}
);
width = 870;
},
{
anchors = (
{
name = caret_1;
pos = (288,0);
},
{
name = caret_2;
pos = (584,0);
}
);
background = {
shapes = (
{
pos = (-8,0);
ref = f_f;
},
{
pos = (551.877,0);
ref = fi;
}
);
};
layerId = "38E161BF-7670-40F4-B2BA-C78FC8454263";
shapes = (
{
closed = 1;
nodes = (
(1496,310,l),
(1496,460,l),
(1176,460,l),
(1176,310,l)
);
},
{
closed = 1;
nodes = (
(1292,0,l),
(1532,0,l),
(1532,460,l),
(1292,460,l)
);
},
{
closed = 1;
nodes = (
(982,0,l),
(982,460,l),
(742,510,l),
(742,0,l)
);
},
{
closed = 1;
nodes = (
(423,0,l),
(423,460,l),
(183,510,l),
(183,0,l)
);
},
{
closed = 1;
nodes = (
(243,690,o),
(183,630,o),
(183,510,c),
(423,460,l),
(423,521,o),
(443,531,o),
(523,530,c),
(654.008,530,l),
(654.008,690,l),
(423,690,l)
);
},
{
closed = 1;
nodes = (
(20,310,l),
(1213,310,l),
(1213,460,l),
(20,460,l)
);
},
{
closed = 1;
nodes = (
(802,690,o),
(742,630,o),
(742,510,c),
(982,460,l),
(982,521,o),
(1002,531,o),
(1082,530,c),
(1535,530,l),
(1535,690,l),
(982,690,l)
);
}
);
width = 1590;
},
{
anchors = (
{
name = caret_1;
pos = (293,0);
},
{
name = caret_2;
pos = (589,0);
}
);
layerId = "3FBA4204-9B78-4099-9F7B-502DDE19710D";
shapes = (
{
closed = 1;
nodes = (
(1014,389,l),
(1014,488,l),
(690,488,l),
(678,389,l)
);
},
{
closed = 1;
nodes = (
(903,0,l),
(1033,0,l),
(1033,488,l),
(903,488,l)
);
},
{
closed = 1;
nodes = (
(650,0,l),
(650,508,l),
(520,524,l),
(520,0,l)
);
},
{
closed = 1;
nodes = (
(262,0,l),
(262,494,l),
(132,510,l),
(132,0,l)
);
},
{
closed = 1;
nodes = (
(199,683,o),
(132,630,o),
(132,510,c),
(262,494,l),
(262,563,o),
(296,579,o),
(355,578,c),
(428,578,l),
(428,683,l),
(324,683,l)
);
},
{
closed = 1;
nodes = (
(25,389,l),
(814,389,l),
(814,488,l),
(25,488,l)
);
},
{
closed = 1;
nodes = (
(587,697,o),
(520,644,o),
(520,524,c),
(650,508,l),
(650,576,o),
(684,593,o),
(743,592,c),
(1034,592,l),
(1034,697,l),
(712,697,l)
);
}
);
width = 1093;
}
);
metricLeft = f;
metricRight = i;
},
{
color = 6;
glyphname = fi;
kernLeft = t;
layers = (
{
anchors = (
{
name = caret_1;
pos = (312,0);
}
);
layerId = "BC735296-CD3A-4FA4-9AA9-EE2D747BC69E";
shapes = (
{
closed = 1;
nodes = (
(487,405,l),
(487,480,l),
(284,480,l),
(284,405,l)
);
},
{
closed = 1;
nodes = (
(419,0,l),
(499,0,l),
(499,480,l),
(419,480,l)
);
},
{
closed = 1;
nodes = (
(199,0,l),
(199,530,l),
(119,530,l),
(119,0,l)
);
},
{
closed = 1;
nodes = (
(189,700,o),
(119,650,o),
(119,530,c),
(199,530,l),
(199,601,o),
(239,621,o),
(289,620,c),
(499,620,l),
(499,700,l),
(289,700,l)
);
},
{
closed = 1;
nodes = (
(30,405,l),
(324,405,l),
(324,480,l),
(30,480,l)
);
}
);
width = 559;
},
{
anchors = (
{
name = caret_1;
pos = (603,0);
}
);
background = {
anchors = (
{
name = bottom;
pos = (211.959,0);
}
);
shapes = (
{
pos = (1.959,0);
ref = idotless;
},
{
pos = (726.261,596.556);
ref = period;
}
);
};
layerId = "38E161BF-7670-40F4-B2BA-C78FC8454263";
shapes = (
{
closed = 1;
nodes = (
(968,310,l),
(968,460,l),
(620,460,l),
(620,310,l)
);
},
{
closed = 1;
nodes = (
(764,0,l),
(1004,0,l),
(1004,460,l),
(764,460,l)
);
},
{
closed = 1;
nodes = (
(423,0,l),
(423,460,l),
(183,510,l),
(183,0,l)
);
},
{
closed = 1;
nodes = (
(243,690,o),
(183,630,o),
(183,510,c),
(423,460,l),
(423,521,o),
(443,531,o),
(523,530,c),
(1004,530,l),
(1004,690,l),
(423,690,l)
);
},
{
closed = 1;
nodes = (
(20,310,l),
(654,310,l),
(654,460,l),
(20,460,l)
);
}
);
width = 1059;
},
{
anchors = (
{
name = caret_1;
pos = (409,0);
}
);
layerId = "3FBA4204-9B78-4099-9F7B-502DDE19710D";
shapes = (
{
closed = 1;
nodes = (
(636,375,l),
(636,474,l),
(387,474,l),
(387,375,l)
);
},
{
closed = 1;
nodes = (
(525,0,l),
(655,0,l),
(655,474,l),
(525,474,l)
);
},
{
closed = 1;
nodes = (
(267,0,l),
(267,508,l),
(137,524,l),
(137,0,l)
);
},
{
closed = 1;
nodes = (
(204,697,o),
(137,644,o),
(137,524,c),
(267,508,l),
(267,576,o),
(301,593,o),
(360,592,c),
(655,592,l),
(655,697,l),
(329,697,l)
);
},
{
closed = 1;
nodes = (
(25,375,l),
(425,375,l),
(425,474,l),
(25,474,l)
);
}
);
width = 714;
}
);
metricLeft = f;
metricRight = i;
unicode = 64257;
},
{
color = 3;
glyphname = t_i;
layers = (
{
anchors = (
{
name = caret_1;
pos = (301,0);
}
);
layerId = "BC735296-CD3A-4FA4-9AA9-EE2D747BC69E";
shapes = (
{
closed = 1;
nodes = (
(30,425,l),
(496,425,l),
(496,500,l),
(30,500,l)
);
},
{
closed = 1;
nodes = (
(124,0,l),
(204,0,l),
(204,630,l),
(124,630,l)
);
},
{
pos = (364,0);
ref = i;
}
);
width = 588;
},
{
anchors = (
{
name = caret_1;
pos = (541,0);
}
);
background = {
anchors = (
{
name = bottom;
pos = (314,0);
},
{
name = center;
pos = (314,250);
},
{
name = top;
pos = (314,639.109);
},
{
name = topright;
pos = (608,505);
}
);
};
layerId = "38E161BF-7670-40F4-B2BA-C78FC8454263";
shapes = (
{
closed = 1;
nodes = (
(20,340,l),
(668,340,l),
(668,490,l),
(20,490,l)
);
},
{
closed = 1;
nodes = (
(194,0,l),
(434,0,l),
(434,640,l),
(194,640,l)
);
},
{
pos = (569,0);
ref = i;
}
);
width = 933;
},
{
anchors = (
{
name = caret_1;
pos = (395,0);
}
);
layerId = "3FBA4204-9B78-4099-9F7B-502DDE19710D";
shapes = (
{
closed = 1;
nodes = (
(25,398,l),
(548,398,l),
(548,497,l),
(25,497,l)
);
},
{
closed = 1;
nodes = (
(143.998,0,l),
(273.998,0,l),
(274,633,l),
(144,633,l)
);
},
{
alignment = -1;
pos = (426,0);
ref = i;
}
);
width = 694;
}
);
metricLeft = t;
metricRight = i;
},
{
color = 3;
glyphname = t_y;
layers = (
{
anchors = (
{
name = caret_1;
pos = (370,0);
}
);
layerId = "BC735296-CD3A-4FA4-9AA9-EE2D747BC69E";
shapes = (
{
closed = 1;
nodes = (
(30,425,l),
(409,425,l),
(409,500,l),
(30,500,l)
);
},
{
closed = 1;
nodes = (
(124,0,l),
(204,0,l),
(204,630,l),
(124,630,l)
);
},
{
pos = (324,0);
ref = y;
}
);
width = 829;
},
{
anchors = (
{
name = caret_1;
pos = (605,0);
}
);
layerId = "38E161BF-7670-40F4-B2BA-C78FC8454263";
shapes = (
{
closed = 1;
nodes = (
(20,340,l),
(618,340,l),
(618,490,l),
(20,490,l)
);
},
{
closed = 1;
nodes = (
(194,0,l),
(434,0,l),
(434,640,l),
(194,640,l)
);
},
{
pos = (479,0);
ref = y;
}
);
width = 1409;
},
{
anchors = (
{
name = caret_1;
pos = (421,0);
}
);
layerId = "3FBA4204-9B78-4099-9F7B-502DDE19710D";
shapes = (
{
closed = 1;
nodes = (
(25,398,l),
(473,398,l),
(473,497,l),
(25,497,l)
);
},
{
closed = 1;
nodes = (
(143.998,0,l),
(273.998,0,l),
(274,633,l),
(144,633,l)
);
},
{
alignment = -1;
pos = (371,0);
ref = y;
}
);
width = 1010;
}
);
metricLeft = t;
metricRight = y;
},
{
color = 6;
glyphname = ordfeminine;
layers = (
{
anchors = (
{
name = bottom;
pos = (141,-10);
},
{
name = center;
pos = (225,250);
},
{
name = ogonek;
pos = (419,0);
},
{
name = top;
pos = (230,510);
},
{
name = topright;
pos = (520,500);
}
);
layerId = "BC735296-CD3A-4FA4-9AA9-EE2D747BC69E";
shapes = (
{
closed = 1;
nodes = (
(346,300,o),
(390,437,o),
(390,499,cs),
(390,611,o),
(350,710,o),
(234,710,cs),
(111,710,o),
(37,619,o),
(37,499,cs),
(37,388,o),
(111,300,o),
(224,300,cs)
);
},
{
closed = 1;
nodes = (
(161,377,o),
(117,432,o),
(117,499,cs),
(117,576,o),
(152,632,o),
(244,632,cs),
(330,632,o),
(380,579,o),
(380,499,cs),
(380,439,o),
(332,377,o),
(244,377,cs)
);
},
{
closed = 1;
nodes = (
(380,400,l),
(380,377,o),
(387,310,o),
(387,310,c),
(460,310,l),
(460,700,l),
(380,700,l)
);
}
);
width = 525;
},
{
anchors = (
{
name = bottom;
pos = (280,-10);
},
{
name = center;
pos = (448,250);
},
{
name = ogonek;
pos = (856,0);
},
{
name = top;
pos = (458,510);
},
{
name = topright;
pos = (1038,500);
}
);
background = {
shapes = (
{
closed = 1;
nodes = (
(336,289.844,o),
(380,427.354,o),
(380,488.844,cs),
(380,601.472,o),
(339.656,699.844,o),
(224,699.844,cs),
(101,699.844,o),
(27,608.844,o),
(27,488.844,cs),
(27,377.844,o),
(101,289.844,o),
(214,289.844,cs)
);
},
{
closed = 1;
nodes = (
(151,366.844,o),
(107,421.844,o),
(107,488.844,cs),
(107,565.844,o),
(142,621.844,o),
(234,621.844,cs),
(320.366,621.844,o),
(370,568.844,o),
(370,488.844,cs),
(370,428.844,o),
(322,366.844,o),
(234,366.844,cs)
);
},
{
closed = 1;
nodes = (
(370,389.844,l),
(370,366.844,o),
(377,299.844,o),
(377,299.844,c),
(450,299.844,l),
(450,689.844,l),
(370,689.844,l)
);
}
);
};
layerId = "38E161BF-7670-40F4-B2BA-C78FC8454263";
shapes = (
{
closed = 1;
nodes = (
(588,276,o),
(738,381,o),
(738,494,cs),
(738,600,o),
(588,705,o),
(368,705,cs),
(172,705,o),
(35,628,o),
(35,490,cs),
(35,361,o),
(172,276,o),
(368,276,cs)
);
},
{
closed = 1;
nodes = (
(340,425,o),
(284,444,o),
(284,490,cs),
(284,537,o),
(340,555,o),
(438,555,cs),
(580,555,o),
(718,540,o),
(718,490,cs),
(718,441,o),
(580,425,o),
(438,425,cs)
);
},
{
closed = 1;
nodes = (
(718,469,l),
(718,363,o),
(732,290,o),
(732,290,c),
(958,290,l),
(958,690,l),
(718,690,l)
);
}
);
width = 1003;
},
{
anchors = (
{
name = bottom;
pos = (184,-10);
},
{
name = center;
pos = (295,250);
},
{
name = ogonek;
pos = (556,0);
},
{
name = top;
pos = (301,510);
},
{
name = topright;
pos = (682,500);
}
);
layerId = "3FBA4204-9B78-4099-9F7B-502DDE19710D";
shapes = (
{
closed = 1;
nodes = (
(422,293,o),
(499,420,o),
(499,497,cs),
(499,608,o),
(424,708,o),
(276,708,cs),
(130,708,o),
(36,622,o),
(36,496,cs),
(36,380,o),
(130,293,o),
(269,293,cs)
);
},
{
closed = 1;
nodes = (
(217,392,o),
(169,436,o),
(169,496,cs),
(169,564,o),
(211,608,o),
(305,608,cs),
(408,608,o),
(486,567,o),
(486,496,cs),
(486,440,o),
(410,392,o),
(305,392,cs)
);
},
{
closed = 1;
nodes = (
(486,422,l),
(486,373,o),
(495,304,o),
(495,304,c),
(616,304,l),
(616,697,l),
(486,697,l)
);
}
);
width = 674;
}
);
metricLeft = a;
metricRight = a;
unicode = 170;
},
{
color = 6;
glyphname = ordmasculine;
layers = (
{
anchors = (
{
name = bottom;
pos = (282,-10);
},
{
name = center;
pos = (281,250);
},
{
name = ogonek;
pos = (368,10);
},
{
name = top;
pos = (282,510);
},
{
name = topright;
pos = (545,500);
}
);
layerId = "BC735296-CD3A-4FA4-9AA9-EE2D747BC69E";
shapes = (
{
closed = 1;
nodes = (
(410,290,o),
(495,378,o),
(495,499,cs),
(495,619,o),
(410,710,o),
(282,710,cs),
(153,710,o),
(67,619,o),
(67,499,cs),
(67,378,o),
(153,290,o),
(282,290,cs)
);
},
{
closed = 1;
nodes = (
(199,364,o),
(146,420,o),
(146,499,cs),
(146,578,o),
(200,636,o),
(282,636,cs),
(364,636,o),
(416,577,o),
(416,499,cs),
(416,420,o),
(363,364,o),
(282,364,cs)
);
}
);
width = 562;
},
{
anchors = (
{
name = bottom;
pos = (510,-10);
},
{
name = center;
pos = (508,250);
},
{
name = ogonek;
pos = (682,10);
},
{
name = top;
pos = (510,510);
},
{
name = topright;
pos = (1036,500);
}
);
background = {
shapes = (
{
closed = 1;
nodes = (
(588,276.439,o),
(738,381.439,o),
(738,494.439,cs),
(738,600.439,o),
(588,705.439,o),
(368,705.439,cs),
(172.472,705.439,o),
(35,627.606,o),
(35,494.439,cs),
(35,361.439,o),
(172,276.439,o),
(368,276.439,cs)
);
},
{
closed = 1;
nodes = (
(345,425.439,o),
(284,444.439,o),
(284,494.439,cs),
(284,537.439,o),
(345,555.439,o),
(448,555.439,cs),
(580.366,555.439,o),
(718,530.439,o),
(718,494.439,cs),
(718,441.439,o),
(580.366,425.439,o),
(448,425.439,cs)
);
},
{
closed = 1;
nodes = (
(718,469.439,l),
(718,363.439,o),
(732,290.439,o),
(732,290.439,c),
(958,290.439,l),
(958,690.439,l),
(718,690.439,l)
);
}
);
};
layerId = "38E161BF-7670-40F4-B2BA-C78FC8454263";
shapes = (
{
closed = 1;
nodes = (
(786,275,o),
(941,333,o),
(941,489,cs),
(941,644,o),
(786,705,o),
(510,705,cs),
(232,705,o),
(75,644,o),
(75,489,cs),
(75,333,o),
(232,275,o),
(510,275,cs)
);
},
{
closed = 1;
nodes = (
(354,417,o),
(315,447,o),
(315,489,cs),
(315,531,o),
(356,563,o),
(510,563,cs),
(664,563,o),
(701,530,o),
(701,489,cs),
(701,447,o),
(662,417,o),
(510,417,cs)
);
}
);
width = 1016;
},
{
anchors = (
{
name = bottom;
pos = (353,-10);
},
{
name = center;
pos = (352,250);
},
{
name = ogonek;
pos = (466,10);
},
{
name = top;
pos = (353,510);
},
{
name = topright;
pos = (698,500);
}
);
layerId = "3FBA4204-9B78-4099-9F7B-502DDE19710D";
shapes = (
{
closed = 1;
nodes = (
(528,285,o),
(634,364,o),
(634,496,cs),
(634,627,o),
(528,708,o),
(353,708,cs),
(178,708,o),
(70,627,o),
(70,496,cs),
(70,364,o),
(178,285,o),
(353,285,cs)
);
},
{
closed = 1;
nodes = (
(247,380,o),
(199,428,o),
(199,496,cs),
(199,563,o),
(249,613,o),
(353,613,cs),
(458,613,o),
(505,562,o),
(505,496,cs),
(505,428,o),
(456,380,o),
(353,380,cs)
);
}
);
width = 704;
}
);
unicode = 186;
},
{
color = 6;
glyphname = Gamma;
kernLeft = I;
kernRight = T;
layers = (
{
layerId = "BC735296-CD3A-4FA4-9AA9-EE2D747BC69E";
shapes = (
{
closed = 1;
nodes = (
(153,575,l),
(550,575,l),
(550,650,l),
(153,650,l)
);
},
{
closed = 1;
nodes = (
(80,0,l),
(160,0,l),
(160,650,l),
(80,650,l)
);
}
);
width = 570;
},
{
layerId = "3FBA4204-9B78-4099-9F7B-502DDE19710D";
shapes = (
{
closed = 1;
nodes = (
(194,536,l),
(667,536,l),
(667,647,l),
(194,647,l)
);
},
{
closed = 1;
nodes = (
(77,0,l),
(210,0,l),
(210,647,l),
(77,647,l)
);
}
);
width = 684;
},
{
layerId = "38E161BF-7670-40F4-B2BA-C78FC8454263";
shapes = (
{
closed = 1;
nodes = (
(284,450,l),
(938,450,l),
(938,640,l),
(284,640,l)
);
},
{
closed = 1;
nodes = (
(70,0,l),
(320,0,l),
(320,640,l),
(70,640,l)
);
}
);
width = 948;
}
);
unicode = 915;
},
{
color = 6;
glyphname = Delta;
kernLeft = A;
kernRight = A;
layers = (
{
layerId = "BC735296-CD3A-4FA4-9AA9-EE2D747BC69E";
shapes = (
{
closed = 1;
nodes = (
(528,0,l),
(528,75,l),
(92,75,l),
(92,0,l)
);
},
{
closed = 1;
nodes = (
(104,0,l),
(321,588,l),
(297,588,l),
(514,0,l),
(600,0,l),
(351,650,l),
(267,650,l),
(20,0,l)
);
}
);
width = 620;
},
{
layerId = "3FBA4204-9B78-4099-9F7B-502DDE19710D";
shapes = (
{
closed = 1;
nodes = (
(676,0,l),
(676,111,l),
(97,111,l),
(97,0,l)
);
},
{
closed = 1;
nodes = (
(161,0,l),
(425,583,l),
(361,583,l),
(627,0,l),
(772,0,l),
(465,647,l),
(321,647,l),
(17,0,l)
);
}
);
width = 789;
},
{
layerId = "38E161BF-7670-40F4-B2BA-C78FC8454263";
shapes = (
{
closed = 1;
nodes = (
(918,0,l),
(918,150,l),
(234,150,l),
(234,0,l)
);
},
{
closed = 1;
nodes = (
(285,0,l),
(653,573,l),
(504,573,l),
(875,0,l),
(1150,0,l),
(717,640,l),
(439,640,l),
(10,0,l)
);
}
);
width = 1160;
}
);
unicode = 916;
},
{
color = 6;
glyphname = Zeta;
kernLeft = Z;
kernRight = Z;
layers = (
{
layerId = "BC735296-CD3A-4FA4-9AA9-EE2D747BC69E";
shapes = (
{
closed = 1;
nodes = (
(60,575,l),
(490,575,l),
(477,602,l),
(60,75,l),
(60,0,l),
(550,0,l),
(550,75,l),
(122,75,l),
(135,48,l),
(550,575,l),
(550,650,l),
(60,650,l)
);
}
);
width = 610;
},
{
layerId = "3FBA4204-9B78-4099-9F7B-502DDE19710D";
shapes = (
{
closed = 1;
nodes = (
(63,536,l),
(591,536,l),
(579,573,l),
(63,111,l),
(63,0,l),
(698,0,l),
(698,111,l),
(170,111,l),
(182,74,l),
(698,536,l),
(698,647,l),
(63,647,l)
);
}
);
width = 761;
},
{
layerId = "38E161BF-7670-40F4-B2BA-C78FC8454263";
shapes = (
{
closed = 1;
nodes = (
(70,450,l),
(729,450,l),
(721,491,l),
(70,190,l),
(70,0,l),
(1050,0,l),
(1050,190,l),
(394,190,l),
(402,149,l),
(1050,450,l),
(1050,640,l),
(70,640,l)
);
}
);
width = 1120;
}
);
unicode = 918;
},
{
color = 6;
glyphname = Theta;
kernLeft = O;
kernRight = O;
layers = (
{
layerId = "BC735296-CD3A-4FA4-9AA9-EE2D747BC69E";
shapes = (
{
closed = 1;
nodes = (
(548,-10,o),
(690,121,o),
(690,325,cs),
(690,529,o),
(548,660,o),
(370,660,cs),
(192,660,o),
(50,529,o),
(50,325,cs),
(50,121,o),
(192,-10,o),
(370,-10,cs)
);
},
{
closed = 1;
nodes = (
(235,65,o),
(130,155,o),
(130,325,cs),
(130,494,o),
(235,585,o),
(370,585,cs),
(505,585,o),
(610,494,o),
(610,325,cs),
(610,155,o),
(505,65,o),
(370,65,cs)
);
},
{
closed = 1;
nodes = (
(212,296,l),
(523,296,l),
(523,371,l),
(212,371,l)
);
}
);
width = 740;
},
{
layerId = "3FBA4204-9B78-4099-9F7B-502DDE19710D";
shapes = (
{
closed = 1;
nodes = (
(721,-13,o),
(871,113,o),
(871,323,cs),
(871,534,o),
(721,660,o),
(462,660,cs),
(204,660,o),
(53,534,o),
(53,323,cs),
(53,113,o),
(204,-13,o),
(462,-13,cs)
);
},
{
closed = 1;
nodes = (
(303,102,o),
(189,174,o),
(189,323,cs),
(189,473,o),
(303,545,o),
(462,545,cs),
(621,545,o),
(732,473,o),
(732,323,cs),
(732,174,o),
(621,102,o),
(462,102,cs)
);
},
{
closed = 1;
nodes = (
(256,275,l),
(664,275,l),
(664,380,l),
(256,380,l)
);
}
);
width = 924;
},
{
layerId = "38E161BF-7670-40F4-B2BA-C78FC8454263";
shapes = (
{
closed = 1;
nodes = (
(1101,-20,o),
(1270,96,o),
(1270,320,cs),
(1270,544,o),
(1101,660,o),
(665,660,cs),
(229,660,o),
(60,544,o),
(60,320,cs),
(60,96,o),
(229,-20,o),
(665,-20,cs)
);
},
{
closed = 1;
nodes = (
(459,170,o),
(320,200,o),
(320,320,cs),
(320,440,o),
(459,470,o),
(665,470,cs),
(871,470,o),
(1000,440,o),
(1000,320,cs),
(1000,200,o),
(871,170,o),
(665,170,cs)
);
},
{
closed = 1;
nodes = (
(380,270,l),
(940,270,l),
(940,370,l),
(380,370,l)
);
}
);
width = 1330;
}
);
unicode = 920;
},
{
color = 6;
glyphname = Lambda;
kernLeft = A;
kernRight = A;
layers = (
{
layerId = "BC735296-CD3A-4FA4-9AA9-EE2D747BC69E";
shapes = (
{
closed = 1;
nodes = (
(104,0,l),
(321,588,l),
(297,588,l),
(514,0,l),
(600,0,l),
(351,650,l),
(267,650,l),
(20,0,l)
);
}
);
width = 620;
},
{
layerId = "3FBA4204-9B78-4099-9F7B-502DDE19710D";
shapes = (
{
closed = 1;
nodes = (
(161,0,l),
(425,583,l),
(361,583,l),
(627,0,l),
(772,0,l),
(465,647,l),
(321,647,l),
(17,0,l)
);
}
);
width = 789;
},
{
layerId = "38E161BF-7670-40F4-B2BA-C78FC8454263";
shapes = (
{
closed = 1;
nodes = (
(285,0,l),
(653,573,l),
(504,573,l),
(875,0,l),
(1150,0,l),
(717,640,l),
(439,640,l),
(10,0,l)
);
}
);
width = 1160;
}
);
unicode = 923;
},
{
color = 6;
glyphname = Xi;
kernRight = E;
layers = (
{
layerId = "BC735296-CD3A-4FA4-9AA9-EE2D747BC69E";
shapes = (
{
closed = 1;
nodes = (
(60,575,l),
(540,575,l),
(540,650,l),
(60,650,l)
);
},
{
closed = 1;
nodes = (
(60,0,l),
(540,0,l),
(540,75,l),
(60,75,l)
);
},
{
closed = 1;
nodes = (
(130,296,l),
(470,296,l),
(470,371,l),
(130,371,l)
);
}
);
width = 600;
},
{
layerId = "3FBA4204-9B78-4099-9F7B-502DDE19710D";
shapes = (
{
closed = 1;
nodes = (
(60,536,l),
(708,536,l),
(708,647,l),
(60,647,l)
);
},
{
closed = 1;
nodes = (
(60,0,l),
(708,0,l),
(708,111,l),
(60,111,l)
);
},
{
closed = 1;
nodes = (
(150,280,l),
(618,280,l),
(618,385,l),
(150,385,l)
);
}
);
width = 768;
},
{
layerId = "38E161BF-7670-40F4-B2BA-C78FC8454263";
shapes = (
{
closed = 1;
nodes = (
(60,450,l),
(1068,450,l),
(1068,640,l),
(60,640,l)
);
},
{
closed = 1;
nodes = (
(60,0,l),
(1070,0,l),
(1070,190,l),
(60,190,l)
);
},
{
closed = 1;
nodes = (
(198,270,l),
(930,270,l),
(930,370,l),
(198,370,l)
);
}
);
width = 1130;
}
);
unicode = 926;
},
{
color = 6;
glyphname = Pi;
kernLeft = I;
kernRight = I;
layers = (
{
layerId = "BC735296-CD3A-4FA4-9AA9-EE2D747BC69E";
shapes = (
{
closed = 1;
nodes = (
(153,575,l),
(565,575,l),
(565,650,l),
(153,650,l)
);
},
{
closed = 1;
nodes = (
(560,0,l),
(640,0,l),
(640,650,l),
(560,650,l)
);
},
{
closed = 1;
nodes = (
(80,0,l),
(160,0,l),
(160,650,l),
(80,650,l)
);
}
);
width = 720;
},
{
layerId = "3FBA4204-9B78-4099-9F7B-502DDE19710D";
shapes = (
{
closed = 1;
nodes = (
(194,536,l),
(707,536,l),
(707,647,l),
(194,647,l)
);
},
{
closed = 1;
nodes = (
(685,0,l),
(818,0,l),
(818,647,l),
(685,647,l)
);
},
{
closed = 1;
nodes = (
(77,0,l),
(210,0,l),
(210,647,l),
(77,647,l)
);
}
);
width = 895;
},
{
layerId = "38E161BF-7670-40F4-B2BA-C78FC8454263";
shapes = (
{
closed = 1;
nodes = (
(284,450,l),
(988,450,l),
(988,640,l),
(284,640,l)
);
},
{
closed = 1;
nodes = (
(960,0,l),
(1210,0,l),
(1210,640,l),
(960,640,l)
);
},
{
closed = 1;
nodes = (
(70,0,l),
(320,0,l),
(320,640,l),
(70,640,l)
);
}
);
width = 1280;
}
);
unicode = 928;
},
{
color = 6;
glyphname = Sigma;
kernLeft = I;
kernRight = E;
layers = (
{
layerId = "BC735296-CD3A-4FA4-9AA9-EE2D747BC69E";
shapes = (
{
closed = 1;
nodes = (
(80,571,l),
(307,314,l),
(327,375,l),
(80,73,l),
(80,0,l),
(550,0,l),
(550,75,l),
(145,75,l),
(155,52,l),
(388,337,l),
(150,601,l),
(143,575,l),
(540,575,l),
(540,650,l),
(80,650,l)
);
}
);
width = 610;
},
{
layerId = "3FBA4204-9B78-4099-9F7B-502DDE19710D";
shapes = (
{
closed = 1;
nodes = (
(77,533,l),
(387,311,l),
(413,357,l),
(77,110,l),
(77,0,l),
(728,0,l),
(728,111,l),
(166,111,l),
(157,52,l),
(539,324,l),
(153,598,l),
(166,536,l),
(718,536,l),
(718,647,l),
(77,647,l)
);
}
);
width = 805;
},
{
layerId = "38E161BF-7670-40F4-B2BA-C78FC8454263";
shapes = (
{
closed = 1;
nodes = (
(80,450,l),
(385,299,l),
(425,360,l),
(80,190,l),
(80,0,l),
(1046,0,l),
(1046,190,l),
(216,190,l),
(141,57,l),
(654,322,l),
(135,576,l),
(216,450,l),
(1036,450,l),
(1036,640,l),
(80,640,l)
);
}
);
width = 1126;
}
);
unicode = 931;
},
{
color = 6;
glyphname = Phi;
kernLeft = O;
kernRight = O;
layers = (
{
layerId = "BC735296-CD3A-4FA4-9AA9-EE2D747BC69E";
shapes = (
{
closed = 1;
nodes = (
(628,80,o),
(750,161,o),
(750,325,cs),
(750,489,o),
(628,570,o),
(400,570,cs),
(172,570,o),
(50,489,o),
(50,325,cs),
(50,161,o),
(172,80,o),
(400,80,cs)
);
},
{
closed = 1;
nodes = (
(225,155,o),
(130,205,o),
(130,325,cs),
(130,444,o),
(225,495,o),
(400,495,cs),
(575,495,o),
(670,444,o),
(670,325,cs),
(670,205,o),
(575,155,o),
(400,155,cs)
);
},
{
closed = 1;
nodes = (
(360,0,l),
(440,0,l),
(440,650,l),
(360,650,l)
);
}
);
width = 800;
},
{
layerId = "3FBA4204-9B78-4099-9F7B-502DDE19710D";
shapes = (
{
closed = 1;
nodes = (
(771,77,o),
(931,143,o),
(931,323,cs),
(931,504,o),
(771,570,o),
(492,570,cs),
(214,570,o),
(53,504,o),
(53,323,cs),
(53,143,o),
(214,77,o),
(492,77,cs)
);
},
{
closed = 1;
nodes = (
(303,192,o),
(189,214,o),
(189,323,cs),
(189,433,o),
(303,455,o),
(492,455,cs),
(681,455,o),
(792,433,o),
(792,323,cs),
(792,214,o),
(681,192,o),
(492,192,cs)
);
},
{
closed = 1;
nodes = (
(425.5,0,l),
(558.5,0,l),
(558.5,650,l),
(425.5,650,l)
);
}
);
width = 984;
},
{
layerId = "38E161BF-7670-40F4-B2BA-C78FC8454263";
shapes = (
{
closed = 1;
nodes = (
(1161,70,o),
(1310,116,o),
(1310,320,cs),
(1310,524,o),
(1161,570,o),
(685,570,cs),
(209,570,o),
(60,524,o),
(60,320,cs),
(60,116,o),
(209,70,o),
(685,70,cs)
);
},
{
closed = 1;
nodes = (
(439,260,o),
(320,260,o),
(320,320,cs),
(320,380,o),
(439,380,o),
(685,380,cs),
(931,380,o),
(1040,380,o),
(1040,320,cs),
(1040,260,o),
(931,260,o),
(685,260,cs)
);
},
{
closed = 1;
nodes = (
(560,0,l),
(810,0,l),
(810,640,l),
(560,640,l)
);
}
);
width = 1370;
}
);
unicode = 934;
},
{
color = 6;
glyphname = Psi;
layers = (
{
layerId = "BC735296-CD3A-4FA4-9AA9-EE2D747BC69E";
shapes = (
{
closed = 1;
nodes = (
(710.528,649.91,l),
(630.949,650,l),
(631,485,ls),
(631.052,315,o),
(526,295,o),
(391,295,cs),
(256,295,o),
(150.72,315,o),
(151,485,cs),
(151.272,650,l),
(71.449,649.503,l),
(71,485,ls),
(70.416,271.007,o),
(213,220,o),
(391,220,cs),
(569,220,o),
(711.613,271.008,o),
(711,485,cs)
);
},
{
closed = 1;
nodes = (
(351,0,l),
(431,0,l),
(431,650,l),
(351,650,l)
);
}
);
width = 782;
},
{
layerId = "3FBA4204-9B78-4099-9F7B-502DDE19710D";
shapes = (
{
closed = 1;
nodes = (
(885.744,650,l),
(752.794,650,l),
(753,490,ls),
(753.205,331,o),
(636,319,o),
(477,319,cs),
(318,319,o),
(200.903,331,o),
(201,490,cs),
(201.097,650,l),
(68.191,650,l),
(68,490,ls),
(67.738,270,o),
(219,204,o),
(477,204,cs),
(736,204,o),
(886.352,270,o),
(886,490,cs)
);
},
{
closed = 1;
nodes = (
(410,0,l),
(543,0,l),
(543,650,l),
(410,650,l)
);
}
);
width = 954;
},
{
layerId = "38E161BF-7670-40F4-B2BA-C78FC8454263";
shapes = (
{
closed = 1;
nodes = (
(1271.024,640,l),
(1021.451,640,l),
(1021,463,ls),
(1020.669,333,o),
(872,353,o),
(666,353,cs),
(460,353,o),
(310.908,333,o),
(311,463,cs),
(311.126,640,l),
(60.641,640,l),
(61,463,ls),
(61.474,229,o),
(230,163,o),
(666,163,cs),
(1102,163,o),
(1270.969,229,o),
(1271,463,cs)
);
},
{
closed = 1;
nodes = (
(541,0,l),
(791,0,l),
(791,640,l),
(541,640,l)
);
}
);
width = 1332;
}
);
unicode = 936;
},
{
color = 6;
glyphname = Omega;
layers = (
{
anchors = (
{
name = topleft;
pos = (110,650);
}
);
layerId = "BC735296-CD3A-4FA4-9AA9-EE2D747BC69E";
shapes = (
{
closed = 1;
nodes = (
(320,0,l),
(320,130,l),
(246,162,o),
(150,234,o),
(150,363,cs),
(150,484,o),
(233,580,o),
(365,580,cs),
(497,580,o),
(580,484,o),
(580,363,cs),
(580,237,o),
(486,165,o),
(414,130,c),
(414,0,l),
(684,0,l),
(684,75,l),
(484,75,l),
(484,95,l),
(565,125,o),
(660,227,o),
(660,363,cs),
(660,519,o),
(545,660,o),
(365,660,cs),
(185,660,o),
(70,519,o),
(70,363,cs),
(70,225,o),
(162,131,o),
(250,95,c),
(250,75,l),
(50,75,l),
(50,0,l)
);
}
);
width = 730;
},
{
anchors = (
{
name = topleft;
pos = (120,650);
}
);
layerId = "3FBA4204-9B78-4099-9F7B-502DDE19710D";
shapes = (
{
closed = 1;
nodes = (
(377,0,l),
(377,152,l),
(280,181,o),
(182,237,o),
(182,353,cs),
(182,465,o),
(266,546,o),
(436,546,cs),
(606,546,o),
(690,465,o),
(690,353,cs),
(690,240,o),
(595,184,o),
(501,152,c),
(501,0,l),
(843,0,l),
(843,111,l),
(605,111,l),
(605,128,l),
(709,153,o),
(823,227,o),
(823,366,cs),
(823,528,o),
(672,660,o),
(436,660,cs),
(200,660,o),
(49,528,o),
(49,366,cs),
(49,248,o),
(131,164,o),
(269,128,c),
(269,111,l),
(35,111,l),
(35,0,l)
);
}
);
width = 872;
},
{
anchors = (
{
name = topleft;
pos = (130,640);
}
);
layerId = "38E161BF-7670-40F4-B2BA-C78FC8454263";
shapes = (
{
closed = 1;
nodes = (
(540,0,l),
(540,200,l),
(392,222,o),
(290,244,o),
(290,331,cs),
(290,424,o),
(376,470,o),
(630,470,cs),
(884,470,o),
(970,424,o),
(970,331,cs),
(970,247,o),
(872,225,o),
(728,200,c),
(728,0,l),
(1238,0,l),
(1238,190,l),
(909,190,l),
(909,200,l),
(1061,208,o),
(1220,261,o),
(1220,403,cs),
(1220,579,o),
(990,660,o),
(630,660,cs),
(270,660,o),
(40,579,o),
(40,403,cs),
(40,261,o),
(190,208,o),
(349,200,c),
(349,190,l),
(30,190,l),
(30,0,l)
);
}
);
width = 1260;
}
);
unicode = 937;
},
{
color = 6;
glyphname = alpha;
kernLeft = o;
kernRight = a;
layers = (
{
associatedMasterId = "38E161BF-7670-40F4-B2BA-C78FC8454263";
layerId = "FE9CF255-1972-4014-849A-70222EB360C3";
name = public.background;
shapes = (
{
closed = 1;
nodes = (
(313,68,o),
(187,66,o),
(187,66,c),
(123,66,o),
(82,75,o),
(82,139,cs),
(82,190,o),
(132,214,o),
(197,214,c),
(311,214,o),
(334,100,o),
(334,51,cs),
(334,34,o),
(332,66,o),
(332,68,c)
);
},
{
closed = 1;
nodes = (
(67,67,l),
(225,67,l),
(225,433,l),
(67,433,l)
);
}
);
width = 569;
},
{
anchors = (
{
name = top;
pos = (281,510);
}
);
layerId = "BC735296-CD3A-4FA4-9AA9-EE2D747BC69E";
shapes = (
{
closed = 1;
nodes = (
(400,-10,o),
(434,148,o),
(434,249,cs),
(434,392,o),
(404,510,o),
(264,510,cs),
(136,510,o),
(37,399,o),
(37,249,cs),
(37,98,o),
(136,-10,o),
(254,-10,cs)
);
},
{
closed = 1;
nodes = (
(183,66,o),
(117,142,o),
(117,249,cs),
(117,356,o),
(174,434,o),
(274,434,cs),
(374,434,o),
(424,359,o),
(424,249,cs),
(424,149,o),
(376,66,o),
(274,66,cs)
);
},
{
closed = 1;
nodes = (
(424,100,l),
(424,67,o),
(430.3,6.7,o),
(431,0,c),
(504,0,l),
(504,500,l),
(424,500,l)
);
}
);
width = 569;
},
{
anchors = (
{
name = top;
pos = (344,510);
}
);
layerId = "3FBA4204-9B78-4099-9F7B-502DDE19710D";
shapes = (
{
closed = 1;
nodes = (
(478,-11,o),
(548,130,o),
(548,248,cs),
(548,394,o),
(480,508,o),
(309,508,cs),
(154,508,o),
(36,405,o),
(36,248,cs),
(36,93,o),
(154,-11,o),
(302,-11,cs)
);
},
{
closed = 1;
nodes = (
(239,89,o),
(169,152,o),
(169,248,cs),
(169,344,o),
(233,407,o),
(344,407,cs),
(461,407,o),
(535,350,o),
(535,248,cs),
(535,153,o),
(462,89,o),
(344,89,cs)
);
},
{
closed = 1;
nodes = (
(535,128,l),
(535,69,o),
(543.1,6.9,o),
(544,0,c),
(665,0,l),
(665,497,l),
(535,497,l)
);
}
);
width = 723;
},
{
anchors = (
{
name = top;
pos = (478,510);
}
);
layerId = "38E161BF-7670-40F4-B2BA-C78FC8454263";
shapes = (
{
closed = 1;
nodes = (
(648,-14,o),
(798,91,o),
(798,245,cs),
(798,400,o),
(648,505,o),
(408,505,cs),
(192,505,o),
(35,417,o),
(35,245,cs),
(35,81,o),
(192,-14,o),
(408,-14,cs)
);
},
{
closed = 1;
nodes = (
(362,138,o),
(284,174,o),
(284,245,cs),
(284,317,o),
(362,352,o),
(498,352,cs),
(650,352,o),
(778,330,o),
(778,245,cs),
(778,161,o),
(650,138,o),
(498,138,cs)
);
},
{
closed = 1;
nodes = (
(778,190,l),
(778,73,o),
(789.6,8.3,o),
(792,0,c),
(1018,0,l),
(1018,490,l),
(778,490,l)
);
}
);
width = 1063;
}
);
unicode = 945;
},
{
color = 6;
glyphname = beta;
kernRight = B;
layers = (
{
layerId = "BC735296-CD3A-4FA4-9AA9-EE2D747BC69E";
shapes = (
{
closed = 1;
nodes = (
(532.052,303.546,o),
(478.038,380.517,o),
(358.038,387,c),
(448.038,393.544,o),
(502.399,458.905,o),
(502.418,534,cs),
(502.443,634,o),
(434,710,o),
(295,710,cs),
(159,710,o),
(65,649,o),
(65,479,cs),
(65,249,l),
(135,249,l),
(135,148,o),
(164,-10,o),
(320,-10,cs),
(436,-10,o),
(531.922,68,o),
(532,209,cs)
);
},
{
closed = 1;
nodes = (
(211.902,414.93,l),
(212.038,350,l),
(306.534,349.729,ls),
(395.158,349.476,o),
(452.068,305.179,o),
(452,219,cs),
(451.92,117,o),
(397,66,o),
(295,66,cs),
(193,66,o),
(145,149,o),
(145,249,cs),
(145,479,ls),
(145,609,o),
(207,634,o),
(295,634,cs),
(385,634,o),
(422.245,591,o),
(422.31,524,cs),
(422.364,467.479,o),
(385.654,414.479,o),
(307.319,414.682,cs)
);
},
{
closed = 1;
nodes = (
(65,-200,l),
(145,-200,l),
(145,259,l),
(127,259,l),
(65,249,l)
);
}
);
width = 569;
},
{
layerId = "3FBA4204-9B78-4099-9F7B-502DDE19710D";
shapes = (
{
closed = 1;
nodes = (
(688,300.744,o),
(614.361,358.528,o),
(504.361,372.23,c),
(564.361,374.238,o),
(657.523,416.044,o),
(657.523,509.493,cs),
(657.523,628.493,o),
(564,709,o),
(365,709,cs),
(160,709,o),
(60,631,o),
(60,449,cs),
(60,238,l),
(177,248,l),
(177,130,o),
(257,-12,o),
(432,-12,cs),
(579,-12,o),
(688,60,o),
(688,188,cs)
);
},
{
closed = 1;
nodes = (
(285.483,402.57,l),
(285.361,326.23,l),
(407.926,326.045,ls),
(508.195,325.894,o),
(555,283.193,o),
(555,218,cs),
(555,142,o),
(496,89,o),
(380,89,cs),
(263,89,o),
(190,152,o),
(190,248,cs),
(190,459,ls),
(190,581,o),
(258,609,o),
(365,609,cs),
(497,609,o),
(525.054,555,o),
(525,489,cs),
(524.953,431.782,o),
(486.338,403.18,o),
(408.738,402.944,cs)
);
},
{
closed = 1;
nodes = (
(60,-200,l),
(190,-200,l),
(190,258,l),
(166,258,l),
(60,238,l)
);
}
);
width = 724;
},
{
layerId = "38E161BF-7670-40F4-B2BA-C78FC8454263";
shapes = (
{
closed = 1;
nodes = (
(1016.554,294.423,o),
(933.634,351.365,o),
(753.634,355.527,c),
(923.634,359.287,o),
(978,418.359,o),
(978,506,cs),
(978,640,o),
(822,705,o),
(516,705,cs),
(183,705,o),
(45,630,o),
(45,386,cs),
(45,195,l),
(265,245,l),
(265,90,o),
(415,-15,o),
(655,-15,cs),
(871,-15,o),
(1016.554,37.906,o),
(1016.554,189.898,cs)
);
},
{
closed = 1;
nodes = (
(398.848,382.57,l),
(398.634,317.527,l),
(630.062,318.312,ls),
(711.679,318.589,o),
(779.083,299.296,o),
(779,235,cs),
(778.907,163,o),
(711,138,o),
(565,138,cs),
(413,138,o),
(285,160,o),
(285,245,cs),
(285,416,ls),
(285,550,o),
(393,553,o),
(515,553,cs),
(661,553,o),
(729.016,537,o),
(729,456,cs),
(728.988,397.042,o),
(671.357,382.788,o),
(599.867,382.731,cs)
);
},
{
closed = 1;
nodes = (
(45,-200,l),
(285,-200,l),
(285,252,l),
(253,252,l),
(45,205,l)
);
}
);
width = 1063;
}
);
unicode = 946;
},
{
color = 3;
glyphname = gamma;
kernLeft = v;
kernRight = v;
layers = (
{
layerId = "BC735296-CD3A-4FA4-9AA9-EE2D747BC69E";
shapes = (
{
closed = 1;
nodes = (
(206,-200,l),
(286,-200,l),
(286,60,l),
(206,60,l)
);
},
{
alignment = -1;
ref = v;
}
);
width = 494;
},
{
layerId = "3FBA4204-9B78-4099-9F7B-502DDE19710D";
shapes = (
{
closed = 1;
nodes = (
(245,-200,l),
(375,-200,l),
(375,77,l),
(245,77,l)
);
},
{
alignment = -1;
ref = v;
}
);
width = 627;
},
{
layerId = "38E161BF-7670-40F4-B2BA-C78FC8454263";
shapes = (
{
closed = 1;
nodes = (
(331,-200,l),
(571,-200,l),
(571,50,l),
(331,50,l)
);
},
{
alignment = -1;
ref = v;
}
);
width = 918;
}
);
unicode = 947;
},
{
color = 6;
glyphname = delta;
kernLeft = o;
kernRight = o;
layers = (
{
layerId = "BC735296-CD3A-4FA4-9AA9-EE2D747BC69E";
shapes = (
{
closed = 1;
nodes = (
(418,-10,o),
(509,96.202,o),
(509,237.994,cs),
(509,377.939,o),
(382,588,o),
(149,668,c),
(97,625,l),
(209,580,o),
(349,472,o),
(389,378.939,c),
(401,364.828,l),
(384,404,o),
(356,465,o),
(264,465,cs),
(120,465,o),
(37,363.822,o),
(37,227.994,cs),
(37,86.129,o),
(130,-10,o),
(274,-10,cs)
);
},
{
closed = 1;
nodes = (
(180,65,o),
(117,130.399,o),
(117,227.994,cs),
(117,325.589,o),
(174,393,o),
(274,393,cs),
(374,393,o),
(429,328.607,o),
(429,227.994,cs),
(429,130.442,o),
(368,65,o),
(274,65,cs)
);
},
{
closed = 1;
nodes = (
(97,700,l),
(97,625,l),
(480,625,l),
(480,700,l)
);
}
);
width = 549;
},
{
layerId = "3FBA4204-9B78-4099-9F7B-502DDE19710D";
shapes = (
{
closed = 1;
nodes = (
(533,-12,o),
(654,92,o),
(654,252,cs),
(654,406,o),
(516,582,o),
(211,639,c),
(141,599,l),
(293,558,o),
(499,453,o),
(525,342,c),
(522,342,l),
(482,426,o),
(395,469,o),
(296,469,cs),
(158,469,o),
(36,385,o),
(36,238,cs),
(36,83,o),
(153,-12,o),
(344,-12,cs)
);
},
{
closed = 1;
nodes = (
(240,89,o),
(169,139,o),
(169,236,cs),
(169,331,o),
(236,380,o),
(347,380,cs),
(448,380,o),
(535,334,o),
(535,236,cs),
(535,139,o),
(453,89,o),
(350,89,cs)
);
},
{
closed = 1;
nodes = (
(140,697,l),
(140,598,l),
(623,598,l),
(623,697,l)
);
}
);
width = 695;
},
{
layerId = "38E161BF-7670-40F4-B2BA-C78FC8454263";
shapes = (
{
closed = 1;
nodes = (
(736,-15,o),
(989,40,o),
(989,243,cs),
(989,396,o),
(791,570,o),
(276,570,c),
(163,540,l),
(482,520,o),
(761,430,o),
(795,290,c),
(809,274,l),
(758,373,o),
(567,445,o),
(388,445,cs),
(193,445,o),
(35,376,o),
(35,224,cs),
(35,60,o),
(202,-15,o),
(498,-15,cs)
);
},
{
closed = 1;
nodes = (
(372,138,o),
(284,149,o),
(284,224,cs),
(284,292,o),
(372,307,o),
(508,307,cs),
(609,307,o),
(779,301,o),
(779,221,cs),
(779,162,o),
(694,138,o),
(518,138,cs)
);
},
{
closed = 1;
nodes = (
(160,690,l),
(160,540,l),
(940,540,l),
(940,690,l)
);
}
);
width = 1034;
}
);
unicode = 948;
},
{
color = 6;
glyphname = epsilon;
kernLeft = o;
kernRight = o;
layers = (
{
anchors = (
{
name = top;
pos = (277,510);
}
);
layerId = "BC735296-CD3A-4FA4-9AA9-EE2D747BC69E";
shapes = (
{
closed = 1;
nodes = (
(381,-10,o),
(489,54,o),
(524,168,c),
(449,168,l),
(414,91,o),
(348,65,o),
(267,65,cs),
(196,65,o),
(130,86,o),
(130,148,cs),
(130,194,o),
(178,224,o),
(257,224,cs),
(361,224,l),
(361,289,l),
(266,289,ls),
(197,289,o),
(141,311,o),
(141,358,cs),
(141,399,o),
(187,435,o),
(274,435,cs),
(358,435,o),
(421,394,o),
(443,333,c),
(524,333,l),
(498,450,o),
(390,510,o),
(277,510,cs),
(156,510,o),
(59,458,o),
(59,363,cs),
(59,308,o),
(107,260,o),
(187,257,c),
(107,251,o),
(48,203,o),
(48,138,cs),
(48,44,o),
(145,-10,o),
(267,-10,cs)
);
}
);
width = 551;
},
{
anchors = (
{
name = top;
pos = (344,497);
}
);
layerId = "3FBA4204-9B78-4099-9F7B-502DDE19710D";
shapes = (
{
closed = 1;
nodes = (
(524,-12,o),
(632,55,o),
(662,186,c),
(543,186,l),
(521,107,o),
(441,88,o),
(348,88,cs),
(260,88,o),
(186,102,o),
(186,155,cs),
(186,201,o),
(255,211,o),
(325,211,cs),
(448,211,l),
(448,287,l),
(325,287,ls),
(257,287,o),
(193,287,o),
(193,334,cs),
(193,377,o),
(249,408,o),
(348,408,cs),
(434,408,o),
(519,379,o),
(542,312,c),
(661,312,l),
(639,431,o),
(523,508,o),
(348,508,cs),
(179,508,o),
(56,446,o),
(56,354,cs),
(56,281,o),
(139,249.008,o),
(229,247,c),
(139,243,o),
(47,213,o),
(47,130,cs),
(47,27,o),
(181,-12,o),
(348,-12,cs)
);
}
);
width = 688;
},
{
anchors = (
{
name = top;
pos = (511,510);
}
);
layerId = "38E161BF-7670-40F4-B2BA-C78FC8454263";
shapes = (
{
closed = 1;
nodes = (
(823,-15,o),
(932,69,o),
(972,193,c),
(752,193,l),
(720,150,o),
(633,130,o),
(513,130,cs),
(397,130,o),
(305,143,o),
(305,182,cs),
(305,218,o),
(360,217,o),
(432,217,cs),
(663,217,l),
(663,281,l),
(432,281,ls),
(360,281,o),
(310,281,o),
(310,309,cs),
(310,345,o),
(383,360,o),
(513,360,cs),
(633,360,o),
(719,340,o),
(751,298,c),
(971,298,l),
(929,420,o),
(813,505,o),
(513,505,cs),
(225,505,o),
(54,448,o),
(54,344,cs),
(54,257,o),
(188,249,o),
(298,249,c),
(178,241,o),
(45,223,o),
(45,128,cs),
(45,15,o),
(229,-15,o),
(513,-15,cs)
);
}
);
width = 997;
}
);
unicode = 949;
},
{
color = 6;
glyphname = zeta;
layers = (
{
layerId = "BC735296-CD3A-4FA4-9AA9-EE2D747BC69E";
shapes = (
{
closed = 1;
nodes = (
(408,650,l),
(189,580,o),
(35,429,o),
(35,269,cs),
(35,-28.734,o),
(337.269,70.909,o),
(337,-103,cs),
(336.85,-200,l),
(417.25,-200,l),
(417,-103,ls),
(416.335,155.149,o),
(115,26.884,o),
(115,269,cs),
(115,406,o),
(231,525,o),
(468,625,c)
);
},
{
closed = 1;
nodes = (
(68,700,l),
(68,625,l),
(468,625,l),
(468,700,l)
);
}
);
width = 458;
},
{
layerId = "3FBA4204-9B78-4099-9F7B-502DDE19710D";
shapes = (
{
closed = 1;
nodes = (
(527,633,l),
(252,573,o),
(50,427,o),
(50,247,cs),
(50,-47.785,o),
(364.857,75.948,o),
(364,-120,cs),
(363.65,-200,l),
(494.1,-200.15,l),
(494,-120,ls),
(493.622,183.18,o),
(182,55.901,o),
(182,247,cs),
(182,364,o),
(263,478,o),
(557,598,c)
);
},
{
closed = 1;
nodes = (
(84,697,l),
(84,598,l),
(557,598,l),
(557,697,l)
);
}
);
width = 547;
},
{
anchors = (
{
name = bottom;
pos = (518,-10);
},
{
name = center;
pos = (516,250);
},
{
name = ogonek;
pos = (690,10);
},
{
name = top;
pos = (518,510);
},
{
name = topright;
pos = (1044,500);
}
);
associatedMasterId = "38E161BF-7670-40F4-B2BA-C78FC8454263";
layerId = "FE9CF255-1972-4014-849A-70222EB360C3";
name = public.background;
shapes = (
{
closed = 1;
nodes = (
(844,-15,o),
(999,68,o),
(999,254,cs),
(999,439,o),
(844,525,o),
(518,525,cs),
(190,525,o),
(33,439,o),
(33,254,cs),
(33,68,o),
(190,-15,o),
(518,-15,cs)
);
},
{
closed = 1;
nodes = (
(362,133,o),
(278,172,o),
(278,254,cs),
(278,336,o),
(364,376,o),
(518,376,cs),
(672,376,o),
(754,335,o),
(754,254,cs),
(754,172,o),
(670,133,o),
(518,133,cs)
);
}
);
width = 820;
},
{
layerId = "38E161BF-7670-40F4-B2BA-C78FC8454263";
shapes = (
{
closed = 1;
nodes = (
(730,565,l),
(460,545,o),
(45,484,o),
(45,224,cs),
(45,-135.856,o),
(538.734,82.63,o),
(539,-98,cs),
(539.15,-200,l),
(779.35,-200,l),
(779,-98,ls),
(777.757,264.19,o),
(290,10.783,o),
(290,244,cs),
(290,363,o),
(403,460,o),
(830,540,c)
);
},
{
closed = 1;
nodes = (
(100,690,l),
(100,540,l),
(830,540,l),
(830,690,l)
);
}
);
width = 820;
}
);
unicode = 950;
},
{
color = 6;
glyphname = eta;
kernLeft = n;
kernRight = n;
layers = (
{
anchors = (
{
name = top;
pos = (302,510);
}
);
layerId = "BC735296-CD3A-4FA4-9AA9-EE2D747BC69E";
shapes = (
{
closed = 1;
nodes = (
(65,0,l),
(145,0,l),
(145,500,l),
(65,500,l)
);
},
{
closed = 1;
nodes = (
(225,510,o),
(153,436,o),
(139,325,c),
(140,267,l),
(149,362,o),
(218,430,o),
(301,430,cs),
(373,430,o),
(409,391,o),
(409,314,cs),
(409,-200,l),
(489,-200,l),
(489,334,ls),
(489,443,o),
(424,510,o),
(317,510,cs)
);
}
);
width = 554;
},
{
anchors = (
{
name = top;
pos = (380,510);
}
);
layerId = "3FBA4204-9B78-4099-9F7B-502DDE19710D";
shapes = (
{
closed = 1;
nodes = (
(60,0,l),
(190,0,l),
(190,497,l),
(60,497,l)
);
},
{
closed = 1;
nodes = (
(280,508,o),
(195,412,o),
(182,320,c),
(183,269,l),
(190,334,o),
(271,403,o),
(375,403,cs),
(467,403,o),
(505,365,o),
(505,281,cs),
(505,-200,l),
(635,-200,l),
(635,304,ls),
(635,445,o),
(543,508,o),
(421,508,cs)
);
}
);
width = 693;
},
{
anchors = (
{
name = top;
pos = (549,510);
}
);
layerId = "38E161BF-7670-40F4-B2BA-C78FC8454263";
shapes = (
{
closed = 1;
nodes = (
(45,0,l),
(285,0,l),
(285,490,l),
(45,490,l)
);
},
{
closed = 1;
nodes = (
(395,505,o),
(283,359,o),
(273,310,c),
(275,272,l),
(321,303,o),
(424,345,o),
(533,345,cs),
(669,345,o),
(713,307,o),
(713,207,cs),
(713,-200,l),
(953,-200,l),
(953,237,ls),
(953,447,o),
(801,505,o),
(645,505,cs)
);
}
);
width = 998;
}
);
unicode = 951;
},
{
color = 6;
glyphname = theta;
kernLeft = O;
kernRight = O;
layers = (
{
layerId = "BC735296-CD3A-4FA4-9AA9-EE2D747BC69E";
shapes = (
{
closed = 1;
nodes = (
(473,-10,o),
(565,146,o),
(565,350,cs),
(565,554,o),
(473,710,o),
(305,710,cs),
(137,710,o),
(45,554,o),
(45,350,cs),
(45,146,o),
(137,-10,o),
(305,-10,cs)
);
},
{
closed = 1;
nodes = (
(190,65,o),
(125,180,o),
(125,350,cs),
(125,519,o),
(190,635,o),
(305,635,cs),
(420,635,o),
(485,519,o),
(485,350,cs),
(485,180,o),
(420,65,o),
(305,65,cs)
);
},
{
closed = 1;
nodes = (
(110,321,l),
(501,321,l),
(501,396,l),
(110,396,l)
);
}
);
width = 610;
},
{
layerId = "3FBA4204-9B78-4099-9F7B-502DDE19710D";
shapes = (
{
closed = 1;
nodes = (
(601,-13,o),
(695,138,o),
(695,348,cs),
(695,559,o),
(601,707,o),
(372,707,cs),
(144,707,o),
(46,559,o),
(46,348,cs),
(46,138,o),
(144,-13,o),
(372,-13,cs)
);
},
{
closed = 1;
nodes = (
(243,86,o),
(179,199,o),
(179,348,cs),
(179,498,o),
(243,608,o),
(372,608,cs),
(501,608,o),
(562,498,o),
(562,348,cs),
(562,199,o),
(501,86,o),
(372,86,cs)
);
},
{
closed = 1;
nodes = (
(163,295,l),
(581,295,l),
(581,400,l),
(163,400,l)
);
}
);
width = 741;
},
{
layerId = "38E161BF-7670-40F4-B2BA-C78FC8454263";
shapes = (
{
closed = 1;
nodes = (
(881,-20,o),
(1035,121,o),
(1035,345,cs),
(1035,569,o),
(881,710,o),
(545,710,cs),
(209,710,o),
(45,569,o),
(45,345,cs),
(45,121,o),
(209,-20,o),
(545,-20,cs)
);
},
{
closed = 1;
nodes = (
(329,125,o),
(290,225,o),
(290,345,cs),
(290,465,o),
(329,565,o),
(545,565,cs),
(761,565,o),
(790,465,o),
(790,345,cs),
(790,225,o),
(761,125,o),
(545,125,cs)
);
},
{
closed = 1;
nodes = (
(265,295,l),
(815,295,l),
(815,395,l),
(265,395,l)
);
}
);
width = 1080;
}
);
unicode = 952;
},
{
color = 6;
glyphname = iota;
layers = (
{
anchors = (
{
name = top;
pos = (125,500);
}
);
layerId = "BC735296-CD3A-4FA4-9AA9-EE2D747BC69E";
shapes = (
{
closed = 1;
nodes = (
(264,80,l),
(195,75,o),
(165,92,o),
(165,169,cs),
(165,500,l),
(85,500,l),
(85,169,ls),
(85,48,o),
(139,-10,o),
(264,0,c)
);
}
);
width = 294;
},
{
anchors = (
{
name = top;
pos = (125,497);
}
);
layerId = "3FBA4204-9B78-4099-9F7B-502DDE19710D";
shapes = (
{
closed = 1;
nodes = (
(286,102,l),
(221,92,o),
(190,114,o),
(190,182,cs),
(190,497,l),
(60,497,l),
(60,169,ls),
(60,49,o),
(123,-20,o),
(286,0,c)
);
}
);
width = 320;
},
{
anchors = (
{
name = top;
pos = (165,490);
}
);
layerId = "38E161BF-7670-40F4-B2BA-C78FC8454263";
shapes = (
{
closed = 1;
nodes = (
(375,170,l),
(319,160,o),
(285,178,o),
(285,230,cs),
(285,490,l),
(45,490,l),
(45,170,ls),
(45,50,o),
(128,-30,o),
(375,0,c)
);
}
);
width = 415;
}
);
unicode = 953;
},
{
color = 6;
glyphname = kappa;
kernLeft = n;
kernRight = k;
layers = (
{
layerId = "BC735296-CD3A-4FA4-9AA9-EE2D747BC69E";
shapes = (
{
closed = 1;
nodes = (
(65,0,l),
(145,0,l),
(145,500,l),
(65,500,l)
);
},
{
closed = 1;
nodes = (
(365,500,l),
(147,279,l),
(394,0,l),
(496,0,l),
(231,305,l),
(229,253,l),
(479,500,l)
);
}
);
width = 506;
},
{
layerId = "3FBA4204-9B78-4099-9F7B-502DDE19710D";
shapes = (
{
closed = 1;
nodes = (
(60,0,l),
(190,0,l),
(190,497,l),
(60,497,l)
);
},
{
closed = 1;
nodes = (
(432,497,l),
(193,279,l),
(467,0,l),
(632,0,l),
(316,316,l),
(313,236,l),
(609,497,l)
);
}
);
width = 640;
},
{
layerId = "38E161BF-7670-40F4-B2BA-C78FC8454263";
shapes = (
{
closed = 1;
nodes = (
(45,0,l),
(285,0,l),
(285,490,l),
(45,490,l)
);
},
{
closed = 1;
nodes = (
(575,490,l),
(289,279,l),
(623,0,l),
(927,0,l),
(502,345,l),
(497,215,l),
(893,490,l)
);
}
);
width = 932;
}
);
unicode = 954;
},
{
color = 6;
glyphname = lambda;
kernRight = A;
layers = (
{
layerId = "BC735296-CD3A-4FA4-9AA9-EE2D747BC69E";
shapes = (
{
closed = 1;
nodes = (
(387,0,l),
(474,0,l),
(285,500,l),
(210,500,l),
(20,0,l),
(107,0,l),
(260,431,l),
(227,431,l)
);
},
{
closed = 1;
nodes = (
(50,700,l),
(50,625,l),
(80,625,ls),
(140,625,o),
(161,599,o),
(180,550,cs),
(227,431,l),
(285,500,l),
(250,590,ls),
(219,669,o),
(170,700,o),
(100,700,cs)
);
}
);
width = 494;
},
{
layerId = "3FBA4204-9B78-4099-9F7B-502DDE19710D";
shapes = (
{
closed = 1;
nodes = (
(469,0,l),
(612,0,l),
(378,497,l),
(255,497,l),
(16,0,l),
(158,0,l),
(340,412,l),
(283,412,l)
);
},
{
closed = 1;
nodes = (
(75,700,l),
(75,601,l),
(130,601,ls),
(180,601,o),
(201,588,o),
(226,530,cs),
(271,428,l),
(378,497,l),
(336,590,ls),
(300,669,o),
(245,700,o),
(165,700,cs)
);
}
);
width = 627;
},
{
layerId = "38E161BF-7670-40F4-B2BA-C78FC8454263";
shapes = (
{
closed = 1;
nodes = (
(648,0,l),
(913,0,l),
(580,490,l),
(354,490,l),
(5,0,l),
(270,0,l),
(517,400,l),
(383,400,l)
);
},
{
closed = 1;
nodes = (
(115,690,l),
(115,540,l),
(246,540,ls),
(291,540,o),
(309,523,o),
(324,500,cs),
(371,428,l),
(580,490,l),
(496,600,ls),
(453,657,o),
(405,690,o),
(315,690,cs)
);
}
);
width = 918;
}
);
unicode = 955;
},
{
color = 6;
glyphname = xi;
layers = (
{
layerId = "BC735296-CD3A-4FA4-9AA9-EE2D747BC69E";
shapes = (
{
closed = 1;
nodes = (
(41.029,-5.734,o),
(323.269,70.909,o),
(323,-103,cs),
(322.85,-200,l),
(403.25,-200,l),
(403,-103,ls),
(402.378,138.15,o),
(121.031,54.884,o),
(121,212,cs),
(120.984,293.179,o),
(180.843,333.502,o),
(269.504,333.729,cs),
(375,334,l),
(375.136,398.93,l),
(269.719,398.682,ls),
(211,398.544,o),
(144.729,421.48,o),
(144.729,488,cs),
(144.729,557.078,o),
(186.017,605.218,o),
(434,625,c),
(364,635,l),
(120.205,625.431,o),
(62.621,571.329,o),
(62.621,483,cs),
(62.621,417.905,o),
(114,380.544,o),
(194,368,c),
(113,361.517,o),
(40.988,301.546,o),
(41,212,cs)
);
},
{
closed = 1;
nodes = (
(44,700,l),
(44,625,l),
(434,625,l),
(434,700,l)
);
}
);
width = 444;
},
{
layerId = "3FBA4204-9B78-4099-9F7B-502DDE19710D";
shapes = (
{
closed = 1;
nodes = (
(45.841,-18.19,o),
(358.856,75.614,o),
(358,-120,cs),
(357.65,-200,l),
(488.1,-200.15,l),
(488,-120,ls),
(487.634,173.16,o),
(176.493,76.564,o),
(176.493,209.229,cs),
(176.493,279.422,o),
(243.165,290.717,o),
(313.434,290.815,cs),
(446,291,l),
(445.877,367.341,l),
(312.622,366.714,ls),
(245.029,366.397,o),
(211.361,392.046,o),
(211.361,444.264,cs),
(211.361,515.53,o),
(265.959,544.718,o),
(511,598,c),
(481,622,l),
(191.898,592.923,o),
(73.838,551.932,o),
(73.838,444.264,cs),
(73.838,380.814,o),
(127,334.008,o),
(207,332,c),
(127,328.299,o),
(45.841,282.499,o),
(45.841,189.755,cs)
);
},
{
closed = 1;
nodes = (
(58,697,l),
(58,598,l),
(511,598,l),
(511,697,l)
);
}
);
width = 521;
},
{
anchors = (
{
name = bottom;
pos = (518,-10);
},
{
name = center;
pos = (516,250);
},
{
name = ogonek;
pos = (690,10);
},
{
name = top;
pos = (518,510);
},
{
name = topright;
pos = (1044,500);
}
);
associatedMasterId = "38E161BF-7670-40F4-B2BA-C78FC8454263";
layerId = "FE9CF255-1972-4014-849A-70222EB360C3";
name = public.background;
shapes = (
{
closed = 1;
nodes = (
(844,-15,o),
(999,68,o),
(999,254,cs),
(999,439,o),
(844,525,o),
(518,525,cs),
(190,525,o),
(33,439,o),
(33,254,cs),
(33,68,o),
(190,-15,o),
(518,-15,cs)
);
},
{
closed = 1;
nodes = (
(362,133,o),
(278,172,o),
(278,254,cs),
(278,336,o),
(364,376,o),
(518,376,cs),
(672,376,o),
(754,335,o),
(754,254,cs),
(754,172,o),
(670,133,o),
(518,133,cs)
);
}
);
width = 790;
},
{
layerId = "38E161BF-7670-40F4-B2BA-C78FC8454263";
shapes = (
{
closed = 1;
nodes = (
(45,-91.76,o),
(538.74,79.067,o),
(539,-98,cs),
(539.15,-200,l),
(779.35,-200,l),
(779,-98,ls),
(777.791,254.191,o),
(290,45.783,o),
(290,219,cs),
(290,275.226,o),
(332.713,296.709,o),
(421.571,296.785,cs),
(673,297,l),
(672.785,361.044,l),
(421.767,361.204,ls),
(350.276,361.25,o),
(319.683,380.516,o),
(319.683,419.474,cs),
(319.683,486.823,o),
(387.387,494.546,o),
(790,540,c),
(680,548,l),
(439.72,533.905,o),
(63.634,554.598,o),
(63.634,424.473,cs),
(63.634,326.832,o),
(198,328.76,o),
(308,329,c),
(188,320.838,o),
(45,293.525,o),
(45,169,cs)
);
},
{
closed = 1;
nodes = (
(70,690,l),
(70,540,l),
(790,540,l),
(790,690,l)
);
}
);
width = 790;
}
);
unicode = 958;
},
{
color = 6;
glyphname = pi;
layers = (
{
layerId = "BC735296-CD3A-4FA4-9AA9-EE2D747BC69E";
shapes = (
{
closed = 1;
nodes = (
(140,0,l),
(220,0,l),
(220,450,l),
(140,450,l)
);
},
{
closed = 1;
nodes = (
(50,500,l),
(50,425,l),
(580,425,l),
(580,500,l)
);
},
{
closed = 1;
nodes = (
(481,450,l),
(404,450,l),
(404,169,ls),
(404,48,o),
(440,-10,o),
(570,0,c),
(570,80,l),
(506,75,o),
(481,92,o),
(481,169,cs)
);
}
);
width = 620;
},
{
layerId = "3FBA4204-9B78-4099-9F7B-502DDE19710D";
shapes = (
{
closed = 1;
nodes = (
(162,0,l),
(292,0,l),
(292,427,l),
(162,427,l)
);
},
{
closed = 1;
nodes = (
(50,497,l),
(50,398,l),
(733,398,l),
(733,497,l)
);
},
{
closed = 1;
nodes = (
(621,427,l),
(496,427,l),
(496,185,ls),
(496,68,o),
(516,-30,o),
(733,0,c),
(733,102,l),
(642,92,o),
(621,114,o),
(621,191,cs)
);
}
);
width = 783;
},
{
layerId = "38E161BF-7670-40F4-B2BA-C78FC8454263";
shapes = (
{
closed = 1;
nodes = (
(220,0,l),
(460,0,l),
(460,380,l),
(220,380,l)
);
},
{
closed = 1;
nodes = (
(50,490,l),
(50,340,l),
(1090,340,l),
(1090,490,l)
);
},
{
closed = 1;
nodes = (
(920,380,l),
(690,380,l),
(690,219,ls),
(690,50,o),
(740,-40,o),
(1090,0,c),
(1090,170,l),
(962,150,o),
(920,172,o),
(920,239,cs)
);
}
);
width = 1140;
}
);
unicode = 960;
},
